<svg xmlns="http://www.w3.org/2000/svg" xmlns:xlink="http://www.w3.org/1999/xlink" width="110" height="110" viewBox="0 0 110 110">
  <defs>
    <clipPath id="clip-path">
      <rect id="Rectángulo_407342" data-name="Rectángulo 407342" width="110" height="110" transform="translate(800.781 1960)" fill="#37a2e4" opacity="0.47"/>
    </clipPath>
    <filter id="Trazado_1048292" x="5" y="-4.866" width="90.453" height="115.636" filterUnits="userSpaceOnUse">
      <feOffset dy="3" input="SourceAlpha"/>
      <feGaussianBlur stdDeviation="3" result="blur"/>
      <feFlood flood-opacity="0.161"/>
      <feComposite operator="in" in2="blur"/>
      <feComposite in="SourceGraphic"/>
    </filter>
  </defs>
  <g id="Grupo_1181771" data-name="Grupo 1181771" transform="translate(-1112.781 -1425)">
    <g id="Enmascarar_grupo_1098939" data-name="Enmascarar grupo 1098939" transform="translate(312 -535)" clip-path="url(#clip-path)">
      <g id="Grupo_1181563" data-name="Grupo 1181563" transform="translate(-1 -1)">
        <g id="Grupo_1181561" data-name="Grupo 1181561" transform="translate(815.781 1961)">
          <g id="Grupo_1181560" data-name="Grupo 1181560" transform="translate(0 0)">
            <path id="Trazado_1048291" data-name="Trazado 1048291" d="M127.429,109.916c-22.489,0-40.784-16.31-40.784-36.359S124.352,2.836,125.959.662a1.964,1.964,0,0,1,2.941,0c1.607,2.173,39.31,53.434,39.31,72.895s-18.3,36.359-40.784,36.359Z" transform="translate(-86.645 0)" fill="#2da8f9"/>
            <g transform="matrix(1, 0, 0, 1, -14, 0)" filter="url(#Trazado_1048292)">
              <path id="Trazado_1048292-2" data-name="Trazado 1048292" d="M122.873,97.636c-19.977,0-36.228-14.488-36.228-32.3S120.139,2.519,121.567.588a1.745,1.745,0,0,1,2.613,0C125.607,2.519,159.1,48.053,159.1,65.34s-16.252,32.3-36.228,32.3Z" transform="translate(-72.64 1.13)" fill="#2cfefa" opacity="0.9"/>
            </g>
          </g>
        </g>
      </g>
    </g>
    <g id="icon2" transform="translate(1133.124 1427.948)">
      <g id="Grupo_1181770" data-name="Grupo 1181770" transform="translate(5.63 31.281)">
        <path id="Trazado_1048923" data-name="Trazado 1048923" d="M62.2,328.27V343.9H10.143V328.27s2.6,2.347,5.205,2.347,5.205-2.347,5.205-2.347,2.6,2.347,5.205,2.347,5.2-2.347,5.2-2.347,2.6,2.347,5.205,2.347,5.205-2.347,5.205-2.347,2.6,2.347,5.206,2.347,5.205-2.347,5.205-2.347,2.6,2.347,5.206,2.347S62.2,328.27,62.2,328.27Z" transform="translate(-10.143 -297.337)" fill="#80eaff"/>
        <path id="Trazado_1048924" data-name="Trazado 1048924" d="M62.2,365.529v3.986s-2.6,2.347-5.206,2.347-5.206-2.347-5.206-2.347-2.6,2.347-5.205,2.347-5.206-2.347-5.206-2.347-2.6,2.347-5.205,2.347-5.205-2.347-5.205-2.347-2.6,2.347-5.2,2.347-5.205-2.347-5.205-2.347-2.6,2.347-5.205,2.347-5.205-2.347-5.205-2.347v-3.986s2.6,2.347,5.205,2.347,5.205-2.347,5.205-2.347,2.6,2.347,5.205,2.347,5.2-2.347,5.2-2.347,2.6,2.347,5.205,2.347,5.205-2.347,5.205-2.347,2.6,2.347,5.206,2.347,5.205-2.347,5.205-2.347,2.6,2.347,5.206,2.347S62.2,365.529,62.2,365.529Z" transform="translate(-10.145 -330.652)" fill="#6cf"/>
        <path id="Trazado_1048925" data-name="Trazado 1048925" d="M117.99,48.617a7.669,7.669,0,1,1-15.339,0c0-6.3,7.669-12.544,7.669-12.544S117.99,42.476,117.99,48.617Z" transform="translate(-92.858 -36.073)" fill="#f5f5f5"/>
        <path id="Trazado_1048926" data-name="Trazado 1048926" d="M221.157,92.226a7.669,7.669,0,1,1-15.339,0c0-6.3,7.669-12.544,7.669-12.544S221.157,86.085,221.157,92.226Z" transform="translate(-185.103 -75.065)" fill="#cbf3f9"/>
        <path id="Trazado_1048927" data-name="Trazado 1048927" d="M401.108,275.115l-3.826-11.445L400.6,262.3l5.324,10.824c1.559,3.763-3.255,5.757-4.814,1.994Z" transform="translate(-356.298 -238.348)" fill="#365e7d"/>
        <path id="Trazado_1048928" data-name="Trazado 1048928" d="M285.024,95.884a11.349,11.349,0,1,1,6.142-14.829A11.349,11.349,0,0,1,285.024,95.884Z" transform="translate(-241.89 -70.026)" fill="#4da6ff"/>
        <path id="Trazado_1048929" data-name="Trazado 1048929" d="M309.578,118.791a8.305,8.305,0,1,1,4.495-10.851A8.3,8.3,0,0,1,309.578,118.791Z" transform="translate(-267.61 -95.745)" fill="#f5f5f5"/>
      </g>
      <path id="Trazado_1048930" data-name="Trazado 1048930" d="M57.716,61.348a.847.847,0,0,0-.911.145,10.721,10.721,0,0,1-2.32,1.516l-3.179-6.463A12.064,12.064,0,1,0,36.6,37.436c-1.154-1.2-2.024-1.928-2.067-1.964a.847.847,0,0,0-1.077-.007,29.645,29.645,0,0,0-3.293,3.243,29.418,29.418,0,0,0-6.42-7.8.847.847,0,0,0-1.077-.007c-.322.262-7.89,6.5-7.89,13.05a8.426,8.426,0,0,0,11.463,7.858,8.424,8.424,0,0,0,10.778,4.565,12.134,12.134,0,0,0,7.271,2.431,11.95,11.95,0,0,0,1.95-.161l.879,2.629a.847.847,0,0,0-.594.216c-.023.021-2.368,2.1-4.576,2.1s-4.553-2.081-4.576-2.1a.847.847,0,0,0-1.134,0c-.648.584-2.733,2.1-4.576,2.1-2.208,0-4.553-2.081-4.576-2.1a.848.848,0,0,0-1.134,0c-.024.021-2.368,2.1-4.576,2.1s-4.553-2.081-4.576-2.1a.848.848,0,0,0-1.134,0c-.023.021-2.368,2.1-4.576,2.1s-4.553-2.081-4.576-2.1a.847.847,0,0,0-1.414.629V77.566a.847.847,0,0,0,.847.847H57.372a.847.847,0,0,0,.847-.847V62.122a.847.847,0,0,0-.5-.774ZM54.2,66.264c.558,1.372.015,2.316-.774,2.643s-1.839.044-2.415-1.319l-3.121-9.336q.5-.158,1-.362t.973-.455L54.2,66.264ZM25.73,50.19a6.732,6.732,0,0,1-9.264-6.236c0-4.811,5.04-9.75,6.725-11.266a26.178,26.178,0,0,1,5.79,7.463c-1.783,2.341-3.418,5.318-3.418,8.364A8.422,8.422,0,0,0,25.73,50.19Zm8.256,5.055a6.738,6.738,0,0,1-6.73-6.73c0-4.811,5.041-9.751,6.725-11.267.345.316.832.779,1.386,1.353a12.065,12.065,0,0,0,.168,16.463,6.742,6.742,0,0,1-1.549.181Zm.7-4.53a10.366,10.366,0,1,1,13.544,5.61,10.3,10.3,0,0,1-13.544-5.61ZM6.79,63.806a8.381,8.381,0,0,0,4.3,1.482,9.3,9.3,0,0,0,5.143-2.074,9.3,9.3,0,0,0,5.143,2.074,9.3,9.3,0,0,0,5.142-2.074,9.3,9.3,0,0,0,5.143,2.074A9.3,9.3,0,0,0,36.8,63.214a9.3,9.3,0,0,0,5.143,2.074,9.3,9.3,0,0,0,5.143-2.075c.234.178.532.392.879.614l.8,2.4a10.454,10.454,0,0,1-1.114-.834.847.847,0,0,0-1.134,0c-.648.584-2.733,2.1-4.576,2.1-2.208,0-4.553-2.081-4.576-2.1a.848.848,0,0,0-1.134,0c-.023.021-2.368,2.1-4.576,2.1s-4.553-2.081-4.576-2.1a.848.848,0,0,0-1.134,0c-.024.021-2.368,2.1-4.576,2.1s-4.553-2.081-4.576-2.1a.847.847,0,0,0-1.134,0c-.648.584-2.733,2.1-4.576,2.1a7.934,7.934,0,0,1-4.3-1.869V63.806ZM56.525,76.719H6.79V71.641a8.379,8.379,0,0,0,4.3,1.482,9.3,9.3,0,0,0,5.143-2.074,9.3,9.3,0,0,0,5.143,2.074,9.3,9.3,0,0,0,5.142-2.074,9.3,9.3,0,0,0,5.143,2.074A9.3,9.3,0,0,0,36.8,71.049a9.3,9.3,0,0,0,5.143,2.074,9.3,9.3,0,0,0,5.143-2.074,9.3,9.3,0,0,0,5.144,2.074,8.38,8.38,0,0,0,4.3-1.482v5.078Zm0-7.155a7.965,7.965,0,0,1-4.3,1.865c-2.209,0-4.554-2.081-4.576-2.1a.847.847,0,0,0-1.134,0c-.648.584-2.733,2.1-4.576,2.1-2.208,0-4.553-2.081-4.576-2.1a.848.848,0,0,0-1.134,0c-.023.021-2.368,2.1-4.576,2.1s-4.553-2.081-4.576-2.1a.847.847,0,0,0-1.134,0c-.648.584-2.733,2.1-4.575,2.1-2.208,0-4.553-2.081-4.576-2.1a.848.848,0,0,0-1.134,0c-.023.021-2.368,2.1-4.576,2.1a7.934,7.934,0,0,1-4.3-1.869V67.7a8.379,8.379,0,0,0,4.3,1.482,9.3,9.3,0,0,0,5.143-2.074,9.3,9.3,0,0,0,5.143,2.074,9.3,9.3,0,0,0,5.142-2.074,9.3,9.3,0,0,0,5.143,2.074A9.3,9.3,0,0,0,36.8,67.111a9.3,9.3,0,0,0,5.143,2.074,9.3,9.3,0,0,0,5.143-2.075,12.089,12.089,0,0,0,2.53,1.49,3.588,3.588,0,0,0,3.194,2.122,3.306,3.306,0,0,0,1.263-.251,3.271,3.271,0,0,0,1.811-1.849,3.469,3.469,0,0,0,.179-.636c.163-.095.318-.19.464-.284v1.862Zm0-3.942c-.15.119-.354.275-.6.445-.047-.154-.1-.313-.171-.476-.007-.017-.015-.033-.022-.05l-.5-1.014a11.666,11.666,0,0,0,1.294-.722v1.816ZM49.392,44.572a.847.847,0,0,1,0,1.2L43.712,51.45a.847.847,0,0,1-1.2,0l-3.371-3.371a.847.847,0,0,1,1.2-1.2l2.772,2.772,5.082-5.082a.847.847,0,0,1,1.2,0Zm3.239,5.641a9.074,9.074,0,1,0-4.9,4.9,8.994,8.994,0,0,0,4.9-4.9Zm-5.547,3.334a7.358,7.358,0,1,1,3.982-3.982,7.367,7.367,0,0,1-3.982,3.982Z"/>
    </g>
  </g>
</svg>
