<svg xmlns="http://www.w3.org/2000/svg" xmlns:xlink="http://www.w3.org/1999/xlink" width="110" height="110" viewBox="0 0 110 110">
  <defs>
    <clipPath id="clip-path">
      <rect id="Rectángulo_407344" data-name="Rectángulo 407344" width="110" height="110" transform="translate(800.781 1960)" fill="#37a2e4" opacity="0.47"/>
    </clipPath>
    <filter id="Trazado_1048323" x="5" y="-4.866" width="90.453" height="115.637" filterUnits="userSpaceOnUse">
      <feOffset dy="3" input="SourceAlpha"/>
      <feGaussianBlur stdDeviation="3" result="blur"/>
      <feFlood flood-opacity="0.161"/>
      <feComposite operator="in" in2="blur"/>
      <feComposite in="SourceGraphic"/>
    </filter>
  </defs>
  <g id="Grupo_1181779" data-name="Grupo 1181779" transform="translate(6892 10183)">
    <g id="Enmascarar_grupo_1098940" data-name="Enmascarar grupo 1098940" transform="translate(-7692.781 -12143)" clip-path="url(#clip-path)">
      <g id="Grupo_1181567" data-name="Grupo 1181567" transform="translate(-1 -1)">
        <g id="Grupo_1181565" data-name="Grupo 1181565" transform="translate(815.781 1961)">
          <g id="Grupo_1181564" data-name="Grupo 1181564" transform="translate(0 0)">
            <path id="Trazado_1048322" data-name="Trazado 1048322" d="M127.429,109.916c-22.489,0-40.784-16.31-40.784-36.359S124.352,2.836,125.959.662a1.964,1.964,0,0,1,2.941,0c1.607,2.173,39.31,53.434,39.31,72.895s-18.3,36.359-40.784,36.359Z" transform="translate(-86.645 0)" fill="#2da8f9"/>
            <g transform="matrix(1, 0, 0, 1, -14, 0)" filter="url(#Trazado_1048323)">
              <path id="Trazado_1048323-2" data-name="Trazado 1048323" d="M122.873,97.636c-19.977,0-36.228-14.488-36.228-32.3S120.139,2.519,121.567.588a1.745,1.745,0,0,1,2.613,0C125.607,2.519,159.1,48.053,159.1,65.34s-16.252,32.3-36.228,32.3Z" transform="translate(-72.64 1.13)" fill="#2cfefa" opacity="0.9"/>
            </g>
          </g>
        </g>
      </g>
    </g>
    <g id="icon3" transform="translate(-6875.558 -10149.099)">
      <g id="Grupo_1181772" data-name="Grupo 1181772" transform="translate(19.233 3.773)">
        <path id="Trazado_1048931" data-name="Trazado 1048931" d="M86.6,12.679v35.3a1.741,1.741,0,0,1-1.741,1.741H56.2a1.573,1.573,0,0,1-1.573-1.573V12.679A1.573,1.573,0,0,1,56.2,11.106H85.027A1.573,1.573,0,0,1,86.6,12.679Z" transform="translate(-52.268 -11.106)" fill="#bfbfbf"/>
        <path id="Trazado_1048932" data-name="Trazado 1048932" d="M423.662,404.764l-2.253-6.738,1.952-.809,3.135,6.373c.918,2.215-1.917,3.389-2.834,1.174Z" transform="translate(-388.15 -364.693)" fill="#365e7d"/>
        <path id="Trazado_1048933" data-name="Trazado 1048933" d="M58.539,46.939V77.762a1.767,1.767,0,0,1-1.767,1.767H28.339a1.767,1.767,0,0,1-1.767-1.767V42.685a1.767,1.767,0,0,1,1.767-1.767H52.519Z" transform="translate(-26.572 -38.407)" fill="#f5f5f5"/>
        <path id="Trazado_1048934" data-name="Trazado 1048934" d="M335.969,270.776a6.682,6.682,0,1,1,3.616-8.731,6.682,6.682,0,0,1-3.616,8.731Z" transform="translate(-301.444 -237.129)" fill="#80eaff"/>
        <path id="Trazado_1048935" data-name="Trazado 1048935" d="M340.621,46.939H334.6V40.918Z" transform="translate(-308.653 -38.407)" fill="#e6e6e6"/>
        <path id="Trazado_1048936" data-name="Trazado 1048936" d="M184.678,117.639a3.206,3.206,0,1,1-6.412,0c0-2.634,3.206-5.243,3.206-5.243S184.678,115.073,184.678,117.639Z" transform="translate(-165.488 -103.864)" fill="#80eaff"/>
      </g>
      <path id="Trazado_1048937" data-name="Trazado 1048937" d="M35.216,21.428a3.884,3.884,0,0,0,3.88-3.88c0-2.849-3.307-5.643-3.448-5.761a.674.674,0,0,0-.857-.005c-.141.115-3.454,2.845-3.454,5.766a3.884,3.884,0,0,0,3.88,3.88Zm0-8.218c.969.93,2.534,2.763,2.534,4.338a2.532,2.532,0,0,1-5.064,0c0-1.742,1.71-3.565,2.53-4.338ZM29.229,24.4a.674.674,0,0,1,.674-.674H46.6a.674.674,0,1,1,0,1.348H29.9a.674.674,0,0,1-.674-.674Zm-1.6,5.3a.674.674,0,0,1,.014.953l-2.747,2.832a.674.674,0,0,1-.479.2h-.005a.674.674,0,0,1-.477-.2L22.8,32.357a.674.674,0,0,1,.953-.953l.65.65,2.271-2.341a.674.674,0,0,1,.953-.014Zm27.454-.4a.674.674,0,0,1,0,.953l-4.271,4.271a.674.674,0,0,1-.953,0L47.32,31.992a.674.674,0,0,1,.953-.953L50.331,33.1,54.126,29.3a.674.674,0,0,1,.953,0Zm3.1,13.07-2.574-5.234a7.356,7.356,0,0,0-1.371-12.589V5.346A2.249,2.249,0,0,0,51.99,3.1H23.168a2.249,2.249,0,0,0-2.247,2.247v.267a2.444,2.444,0,0,0-2.364,2.439V43.128A2.444,2.444,0,0,0,21,45.569H49.432a2.444,2.444,0,0,0,2.441-2.441v-.114a2.858,2.858,0,0,0,1.593-.866l.638,1.909c.005.015.011.03.017.044a2.533,2.533,0,0,0,1.311,1.422,2.135,2.135,0,0,0,2.847-1.179,2.533,2.533,0,0,0-.079-1.932Q58.192,42.392,58.183,42.372ZM22.269,5.346a.9.9,0,0,1,.9-.9H51.99a.9.9,0,0,1,.9.9V24.087a7.323,7.323,0,0,0-1.016-.168V12.3a.674.674,0,0,0-.2-.477L45.655,5.808a.674.674,0,0,0-.477-.2H22.269Zm27.3,6.285h-3.72V7.911Zm.953,31.5a1.1,1.1,0,0,1-1.093,1.093H21a1.1,1.1,0,0,1-1.093-1.093V8.051A1.1,1.1,0,0,1,21,6.958H44.5V12.3a.674.674,0,0,0,.674.674h5.347v10.94A7.392,7.392,0,0,0,45.493,26.6H29.9a.674.674,0,1,0,0,1.348H44.626c-.079.158-.155.318-.223.483a7.458,7.458,0,0,0-.346,1.047H29.9a.674.674,0,0,0,0,1.348h13.95a7.259,7.259,0,0,0,.073,1.53H29.9a.674.674,0,1,0,0,1.348H44.266c.043.12.088.239.137.358a7.436,7.436,0,0,0,.614,1.172H29.9a.674.674,0,0,0,0,1.348H46.132a7.4,7.4,0,0,0,4.394,1.993Zm1.348-1.5v-3.05c.128-.012.256-.027.383-.045l.62,1.855A1.515,1.515,0,0,1,51.873,41.625ZM48.9,36.8a6.008,6.008,0,0,1-3.252-7.85,6.045,6.045,0,0,1,.711-1.263c.009-.012.019-.024.027-.037A6.01,6.01,0,1,1,48.9,36.8Zm8.123,7.056a.787.787,0,0,1-1.05.435,1.235,1.235,0,0,1-.6-.683l-1.8-5.4c.149-.051.3-.105.444-.166s.295-.13.438-.2l2.51,5.1a1.236,1.236,0,0,1,.06.908Zm-9.75-5.069a.674.674,0,0,1-.674.674H29.9a.674.674,0,1,1,0-1.348H46.6A.674.674,0,0,1,47.274,38.785ZM27.625,23.944a.674.674,0,0,1,.014.953l-2.747,2.832a.674.674,0,0,1-.479.2h-.005a.674.674,0,0,1-.477-.2L22.8,26.6a.674.674,0,0,1,.953-.953l.65.65,2.271-2.341a.674.674,0,0,1,.953-.014Zm0,11.51a.674.674,0,0,1,.014.953L24.892,39.24a.674.674,0,0,1-.479.2h-.005a.674.674,0,0,1-.477-.2L22.8,38.113a.674.674,0,0,1,.953-.953l.65.65,2.271-2.341a.674.674,0,0,1,.953-.014Z"/>
    </g>
  </g>
</svg>
