<svg xmlns="http://www.w3.org/2000/svg" xmlns:xlink="http://www.w3.org/1999/xlink" width="110" height="110" viewBox="0 0 110 110">
  <defs>
    <clipPath id="clip-path">
      <rect id="Rectángulo_407346" data-name="Rectángulo 407346" width="110" height="110" transform="translate(800.781 1960)" fill="#37a2e4" opacity="0.47"/>
    </clipPath>
    <filter id="Trazado_1048354" x="5" y="-4.866" width="90.453" height="115.637" filterUnits="userSpaceOnUse">
      <feOffset dy="3" input="SourceAlpha"/>
      <feGaussianBlur stdDeviation="3" result="blur"/>
      <feFlood flood-opacity="0.161"/>
      <feComposite operator="in" in2="blur"/>
      <feComposite in="SourceGraphic"/>
    </filter>
  </defs>
  <g id="Grupo_1181778" data-name="Grupo 1181778" transform="translate(6560.27 10183)">
    <g id="Enmascarar_grupo_1098941" data-name="Enmascarar grupo 1098941" transform="translate(-7361.051 -12143)" clip-path="url(#clip-path)">
      <g id="Grupo_1181571" data-name="Grupo 1181571" transform="translate(-1 -1)">
        <g id="Grupo_1181569" data-name="Grupo 1181569" transform="translate(815.781 1961)">
          <g id="Grupo_1181568" data-name="Grupo 1181568" transform="translate(0 0)">
            <path id="Trazado_1048353" data-name="Trazado 1048353" d="M127.429,109.916c-22.489,0-40.784-16.31-40.784-36.359S124.352,2.836,125.959.662a1.964,1.964,0,0,1,2.941,0c1.607,2.173,39.31,53.434,39.31,72.895s-18.3,36.359-40.784,36.359Z" transform="translate(-86.645 0)" fill="#2da8f9"/>
            <g transform="matrix(1, 0, 0, 1, -14, 0)" filter="url(#Trazado_1048354)">
              <path id="Trazado_1048354-2" data-name="Trazado 1048354" d="M122.873,97.636c-19.977,0-36.228-14.488-36.228-32.3S120.139,2.519,121.567.588a1.745,1.745,0,0,1,2.613,0C125.607,2.519,159.1,48.053,159.1,65.34s-16.252,32.3-36.228,32.3Z" transform="translate(-72.64 1.13)" fill="#2cfefa" opacity="0.9"/>
            </g>
          </g>
        </g>
      </g>
    </g>
    <g id="icon5" transform="translate(-6572.373 -10151.481)">
      <g id="Grupo_1181776" data-name="Grupo 1181776" transform="translate(48.828 0.688)">
        <g id="Grupo_1181774" data-name="Grupo 1181774" transform="translate(0)">
          <g id="Grupo_1181773" data-name="Grupo 1181773">
            <path id="Trazado_1048938" data-name="Trazado 1048938" d="M113.859,93.647h-21.7a1.971,1.971,0,0,1-1.4-.579l-4.78-4.787a1.972,1.972,0,0,1-.576-1.393V55.555a.394.394,0,0,1,.394-.394h28.059a.394.394,0,0,1,.394.394v37.7A.394.394,0,0,1,113.859,93.647Z" transform="translate(-82.676 -50.789)" fill="#aee0f4"/>
            <path id="Trazado_1048939" data-name="Trazado 1048939" d="M194.777,9.536A2.035,2.035,0,0,0,192.668,7.5a2.067,2.067,0,0,0-1.961,2.083v1.309h4.07V9.536Z" transform="translate(-178.318 -7.501)" fill="#fbc96d"/>
            <path id="Trazado_1048940" data-name="Trazado 1048940" d="M83.5,86.081l.632,36.569a.394.394,0,0,1-.394.394l-2.94.362H63.762a1.826,1.826,0,0,1-.76-.165l-.395-6.2a.367.367,0,0,0-.367-.367l-6.433-.635a1.822,1.822,0,0,1-.165-.759V85.314a.4.4,0,0,1,.394-.394H82.38l.73.767A.394.394,0,0,1,83.5,86.081Z" transform="translate(-55.642 -77.819)" fill="#dff8ff"/>
            <path id="Trazado_1048941" data-name="Trazado 1048941" d="M64.638,424.527v6.837a1.82,1.82,0,0,1-.537-.373L57.814,424.7a1.832,1.832,0,0,1-.371-.538h6.828A.367.367,0,0,1,64.638,424.527Z" transform="translate(-57.278 -385.942)" fill="#aee0f4"/>
            <path id="Trazado_1048942" data-name="Trazado 1048942" d="M152.516,43.115H139.767a.367.367,0,0,1-.367-.367V38.585a1.376,1.376,0,0,1,1.376-1.376h10.731a1.376,1.376,0,0,1,1.376,1.376v4.163A.367.367,0,0,1,152.516,43.115Z" transform="translate(-131.717 -34.484)" fill="#ffda8f"/>
            <path id="Trazado_1048943" data-name="Trazado 1048943" d="M328.822,84.92h-1.715V95.741l1.756,7.77-1.756,3.192v14.681a2.024,2.024,0,0,1-2.023,2.023h3.739a.394.394,0,0,0,.394-.394v-37.7A.394.394,0,0,0,328.822,84.92Z" transform="translate(-300.369 -77.819)" fill="#c0ecfc"/>
          </g>
        </g>
        <circle id="Elipse_12067" data-name="Elipse 12067" cx="5.063" cy="5.063" r="5.063" transform="translate(3.647 21.711)" fill="#52d8a4"/>
        <path id="Trazado_1048944" data-name="Trazado 1048944" d="M137.1,145.858H120.681a.275.275,0,0,1-.275-.275v-3.71a.275.275,0,0,1,.275-.275H137.1a.275.275,0,0,1,.275.275v3.71A.275.275,0,0,1,137.1,145.858Z" transform="translate(-114.466 -129.297)" fill="#aee0f4"/>
        <g id="Grupo_1181775" data-name="Grupo 1181775" transform="translate(22.907 12.441)">
          <path id="Trazado_1048945" data-name="Trazado 1048945" d="M327.56,338.1l.012,3.152a.49.49,0,0,1-.49.49l-2.5.313h-8.1a.49.49,0,0,1-.49-.49v-3.54Z" transform="translate(-315.021 -320.151)" fill="#ffda8f"/>
          <path id="Trazado_1048946" data-name="Trazado 1048946" d="M412.945,338.636V342.1a.49.49,0,0,1-.49.49h-2.822v-3.976Z" transform="translate(-400.07 -320.684)" fill="#fbc96d"/>
          <path id="Trazado_1048947" data-name="Trazado 1048947" d="M344.976,160.334l.289-4.374a8.093,8.093,0,0,1,.7-3.293h0a8.144,8.144,0,0,0,.844-3.269v-.514a3.107,3.107,0,0,0-3.273-3.45h0c-.428,0-1.331-.1-1.331-.1a3.783,3.783,0,0,0-2.556,3.579v.514a8.092,8.092,0,0,0,.7,3.293h0l.038.086a1.15,1.15,0,0,1,.546,1.837,8.092,8.092,0,0,1,.117,1.37v4.322Z" transform="translate(-336.506 -145.13)" fill="#d37f66"/>
          <path id="Trazado_1048948" data-name="Trazado 1048948" d="M372.525,146.911v.514a8.119,8.119,0,0,1-.7,3.294l-.037.085c-.949.5-1.1,1.007-.545,1.833a8.091,8.091,0,0,0-.117,1.374v4.323h-2.449v-4.323a8.087,8.087,0,0,1,.7-3.292,8.117,8.117,0,0,0,.7-3.294v-.514a3.784,3.784,0,0,0-2.556-3.579,3.785,3.785,0,0,1,5.005,3.579Z" transform="translate(-361.82 -143.13)" fill="#c17467"/>
          <path id="Trazado_1048949" data-name="Trazado 1048949" d="M318.494,303.424l-3.552.186h-9.073a.49.49,0,0,1-.49-.49v-1.17a2.559,2.559,0,0,1,2.559-2.559h4.875l3.711.168a2.422,2.422,0,0,1,2.454,2.5l.006.876A.49.49,0,0,1,318.494,303.424Z" transform="translate(-305.379 -285.057)" fill="#dd8d6b"/>
          <path id="Trazado_1048950" data-name="Trazado 1048950" d="M388.579,301.945v1.171a.49.49,0,0,1-.49.49h-3.8v-1.66a2.559,2.559,0,0,0-2.559-2.56h4.285A2.559,2.559,0,0,1,388.579,301.945Z" transform="translate(-374.731 -285.053)" fill="#d37f66"/>
        </g>
      </g>
      <g id="Grupo_1181777" data-name="Grupo 1181777" transform="translate(48.14 0)">
        <path id="Línea_563" data-name="Línea 563" d="M3.9-6.124H-6.812A.688.688,0,0,1-7.5-6.812.688.688,0,0,1-6.812-7.5H3.9a.688.688,0,0,1,.688.688A.688.688,0,0,1,3.9-6.124Z" transform="translate(24.066 31.655)"/>
        <path id="Línea_564" data-name="Línea 564" d="M-.524-6.124H-6.812A.688.688,0,0,1-7.5-6.812.688.688,0,0,1-6.812-7.5H-.524a.688.688,0,0,1,.688.688A.688.688,0,0,1-.524-6.124Z" transform="translate(24.066 35.524)"/>
        <path id="Trazado_1048951" data-name="Trazado 1048951" d="M320.714,344.376H309.547a1.056,1.056,0,0,1-1.055-1.055v-2.757a.688.688,0,0,1,1.376,0V343h10.525v-2.489a.688.688,0,0,1,1.376,0v2.81A1.056,1.056,0,0,1,320.714,344.376Z" transform="translate(-284.611 -308.653)"/>
        <path id="Trazado_1048952" data-name="Trazado 1048952" d="M312.05,297.485h-2.883a.688.688,0,0,1,0-1.376h2.562v-1.614a1.231,1.231,0,0,0-1.23-1.229H300.485a1.231,1.231,0,0,0-1.229,1.229v1.614h6.7a.688.688,0,0,1,0,1.376h-7.022a1.056,1.056,0,0,1-1.055-1.055v-1.935a2.608,2.608,0,0,1,2.6-2.6H310.5a2.608,2.608,0,0,1,2.606,2.6v1.935A1.056,1.056,0,0,1,312.05,297.485Z" transform="translate(-274.973 -265.117)"/>
        <path id="Trazado_1048953" data-name="Trazado 1048953" d="M339,151.138a.688.688,0,0,1-.688-.688V147.2a8.725,8.725,0,0,1,.76-3.573,7.358,7.358,0,0,0,.641-3.013V140.1a3.093,3.093,0,1,0-6.186,0v.514a7.358,7.358,0,0,0,.641,3.013,8.726,8.726,0,0,1,.76,3.573v3.25a.688.688,0,1,1-1.376,0V147.2a7.359,7.359,0,0,0-.641-3.013,8.725,8.725,0,0,1-.76-3.573V140.1a4.469,4.469,0,1,1,8.937,0v.514a8.726,8.726,0,0,1-.76,3.573,7.358,7.358,0,0,0-.641,3.013v3.25A.688.688,0,0,1,339,151.138Z" transform="translate(-306.097 -123.19)"/>
        <path id="Línea_565" data-name="Línea 565" d="M-1.64-6.124H-6.812A.688.688,0,0,1-7.5-6.812.688.688,0,0,1-6.812-7.5H-1.64a.688.688,0,0,1,.688.688A.688.688,0,0,1-1.64-6.124Z" transform="translate(34.869 28.533)"/>
        <path id="Trazado_1048954" data-name="Trazado 1048954" d="M118.8,283.314H118.8a.688.688,0,0,1-.489-.21l-1.774-1.84a.688.688,0,1,1,.99-.955l1.288,1.336L121.451,279a.688.688,0,1,1,.973.973l-3.135,3.135A.688.688,0,0,1,118.8,283.314Z" transform="translate(-110.085 -253.23)"/>
        <path id="Elipse_12068" data-name="Elipse 12068" d="M-1.749-7.5A5.757,5.757,0,0,1,4-1.749,5.757,5.757,0,0,1-1.749,4,5.757,5.757,0,0,1-7.5-1.749,5.757,5.757,0,0,1-1.749-7.5Zm0,10.126A4.38,4.38,0,0,0,2.626-1.749,4.38,4.38,0,0,0-1.749-6.124,4.38,4.38,0,0,0-6.124-1.749,4.38,4.38,0,0,0-1.749,2.626Z" transform="translate(11.147 29.211)"/>
        <path id="Rectángulo_407541" data-name="Rectángulo 407541" d="M-6.812-7.5H10.154a.688.688,0,0,1,.688.688v4.261a.688.688,0,0,1-.688.688H-6.812A.688.688,0,0,1-7.5-2.551V-6.812A.688.688,0,0,1-6.812-7.5ZM9.466-6.124H-6.124v2.885H9.466Z" transform="translate(13.441 19.8)"/>
        <path id="Trazado_1048955" data-name="Trazado 1048955" d="M180.22,406.406a1.942,1.942,0,0,1-.731-.143,1.756,1.756,0,0,1-.8-2.6,4.806,4.806,0,0,1,2.453-1.88q-.018-.069-.038-.137a.866.866,0,0,0-1.394-.407l-.159.137a.688.688,0,1,1-.9-1.042l.159-.137a2.242,2.242,0,0,1,3.61,1.054q.027.09.051.18l1.1-.279a1.1,1.1,0,0,1,1.219.512l.443.76.908-1.527a.972.972,0,0,1,1.651-.03l.639.99a1.532,1.532,0,0,0,2.19.406l.308-.225a.688.688,0,1,1,.812,1.111l-.308.225a2.907,2.907,0,0,1-4.158-.77l-.286-.442-.716,1.2a1.214,1.214,0,0,1-2.092-.009l-.477-.818-1.07.271a5.22,5.22,0,0,1-.777,2.682A1.932,1.932,0,0,1,180.22,406.406Zm1.017-3.186a3.432,3.432,0,0,0-1.4,1.2.38.38,0,0,0,.173.564.56.56,0,0,0,.689-.225A3.841,3.841,0,0,0,181.237,403.221Z" transform="translate(-166.445 -362.99)"/>
        <path id="Trazado_1048956" data-name="Trazado 1048956" d="M78.591,51.614a.688.688,0,0,1-.688-.688V48.743a1.083,1.083,0,0,1,1.082-1.082h4.456a.688.688,0,0,1,0,1.376H79.279v1.889A.688.688,0,0,1,78.591,51.614Z" transform="translate(-75.173 -43.289)"/>
        <path id="Trazado_1048957" data-name="Trazado 1048957" d="M367.318,385.584H365.15a.688.688,0,1,1,0-1.376h1.875v-7.7a.688.688,0,1,1,1.376,0V384.5A1.083,1.083,0,0,1,367.318,385.584Z" transform="translate(-335.448 -341.351)"/>
        <path id="Trazado_1048958" data-name="Trazado 1048958" d="M357.856,57.424a.688.688,0,0,1-.688-.688v-7.7H354.3a.688.688,0,0,1,0-1.376h3.164a1.084,1.084,0,0,1,1.082,1.082v7.994A.688.688,0,0,1,357.856,57.424Z" transform="translate(-325.591 -43.288)"/>
        <path id="Línea_566" data-name="Línea 566" d="M-3.254-6.124H-6.812A.688.688,0,0,1-7.5-6.812.688.688,0,0,1-6.812-7.5h3.558a.688.688,0,0,1,.688.688A.688.688,0,0,1-3.254-6.124Z" transform="translate(28.751 11.872)"/>
        <path id="Trazado_1048959" data-name="Trazado 1048959" d="M187.962,3.969a.688.688,0,0,1-.688-.688V2.723a1.347,1.347,0,1,0-2.694,0V3.27a.688.688,0,0,1-1.376,0V2.723a2.723,2.723,0,0,1,5.446,0v.558A.688.688,0,0,1,187.962,3.969Z" transform="translate(-170.815 0)"/>
        <path id="Trazado_1048960" data-name="Trazado 1048960" d="M48.828,81.888a.688.688,0,0,1-.688-.688V78.5a1.084,1.084,0,0,1,1.082-1.082h7.187a.688.688,0,0,1,0,1.376H49.516v2.4A.688.688,0,0,1,48.828,81.888Z" transform="translate(-48.14 -70.319)"/>
        <path id="Trazado_1048961" data-name="Trazado 1048961" d="M215.847,388.311H201.388a.688.688,0,1,1,0-1.376h14.166V376.508a.688.688,0,1,1,1.376,0v10.721A1.084,1.084,0,0,1,215.847,388.311Z" transform="translate(-186.707 -341.348)"/>
        <path id="Trazado_1048962" data-name="Trazado 1048962" d="M59.611,179.689H56.948a2.5,2.5,0,0,1-1.785-.741l-6.286-6.293a2.543,2.543,0,0,1-.738-1.783V146.818a.688.688,0,1,1,1.376,0v24.055a1.157,1.157,0,0,0,.336.811l6.286,6.293a1.138,1.138,0,0,0,.811.337h2.663a.688.688,0,0,1,0,1.376Z" transform="translate(-48.14 -132.726)"/>
        <path id="Trazado_1048963" data-name="Trazado 1048963" d="M288.572,84.137a.688.688,0,0,1-.688-.688V78.8h-6.862a.688.688,0,0,1,0-1.376h7.155a1.083,1.083,0,0,1,1.082,1.082v4.945A.688.688,0,0,1,288.572,84.137Z" transform="translate(-259.036 -70.32)"/>
        <path id="Trazado_1048964" data-name="Trazado 1048964" d="M145.7,36.991H132.953a1.056,1.056,0,0,1-1.055-1.055V31.773a2.066,2.066,0,0,1,2.064-2.064h10.731a2.066,2.066,0,0,1,2.064,2.064v4.163A1.056,1.056,0,0,1,145.7,36.991Zm-12.427-1.376H145.38V31.773a.689.689,0,0,0-.688-.688H133.962a.689.689,0,0,0-.688.688Z" transform="translate(-124.215 -26.984)"/>
        <path id="Trazado_1048965" data-name="Trazado 1048965" d="M59.119,425.1a.688.688,0,0,1-.688-.688v-6.376H52.055a.688.688,0,1,1,0-1.376h7.064a.688.688,0,0,1,.688.688v7.064A.688.688,0,0,1,59.119,425.1Z" transform="translate(-51.071 -378.443)"/>
      </g>
    </g>
  </g>
</svg>
