<svg xmlns="http://www.w3.org/2000/svg" xmlns:xlink="http://www.w3.org/1999/xlink" width="110" height="110" viewBox="0 0 110 110">
  <defs>
    <clipPath id="clip-path">
      <rect id="Rectángulo_407321" data-name="Rectángulo 407321" width="110" height="110" transform="translate(800.781 1960)" fill="#37a2e4" opacity="0.47"/>
    </clipPath>
    <filter id="Trazado_1047750" x="5" y="-4.866" width="90.453" height="115.636" filterUnits="userSpaceOnUse">
      <feOffset dy="3" input="SourceAlpha"/>
      <feGaussianBlur stdDeviation="3" result="blur"/>
      <feFlood flood-opacity="0.161"/>
      <feComposite operator="in" in2="blur"/>
      <feComposite in="SourceGraphic"/>
    </filter>
  </defs>
  <g id="Grupo_1181871" data-name="Grupo 1181871" transform="translate(-430 -666)">
    <g id="Enmascarar_grupo_1098924" data-name="Enmascarar grupo 1098924" transform="translate(-370.781 -1294)" clip-path="url(#clip-path)">
      <g id="Grupo_1181490" data-name="Grupo 1181490" transform="translate(-1 -1)">
        <g id="Grupo_1181468" data-name="Grupo 1181468" transform="translate(815.781 1961)">
          <g id="Grupo_1181464" data-name="Grupo 1181464" transform="translate(0 0)">
            <path id="Trazado_1047748" data-name="Trazado 1047748" d="M127.429,109.916c-22.489,0-40.784-16.31-40.784-36.359S124.352,2.836,125.959.662a1.964,1.964,0,0,1,2.941,0c1.607,2.173,39.31,53.434,39.31,72.895s-18.3,36.359-40.784,36.359Z" transform="translate(-86.645 0)" fill="#54eabd"/>
            <g transform="matrix(1, 0, 0, 1, -14, 0)" filter="url(#Trazado_1047750)">
              <path id="Trazado_1047750-2" data-name="Trazado 1047750" d="M122.873,97.636c-19.977,0-36.228-14.488-36.228-32.3S120.139,2.519,121.567.588a1.745,1.745,0,0,1,2.613,0C125.607,2.519,159.1,48.053,159.1,65.34s-16.252,32.3-36.228,32.3Z" transform="translate(-72.64 1.13)" fill="#54eabd" opacity="0.9"/>
            </g>
          </g>
        </g>
      </g>
    </g>
    <g id="calidad-del-agua" transform="translate(452.021 695)">
      <path id="Trazado_1049340" data-name="Trazado 1049340" d="M28.635,56.567A14.634,14.634,0,0,1,18.711,52.8c-3.839-3.531-4.334-7.811-3.13-12.316,2.01-7.5,8.74-14.415,12.635-20.65a.492.492,0,0,1,.839,0c3.894,6.235,10.621,13.15,12.631,20.65,1.208,4.5.709,8.785-3.13,12.316A14.632,14.632,0,0,1,28.635,56.567Z" transform="translate(-6.329 -10.46)" fill="#a4d4ff" fill-rule="evenodd"/>
      <path id="Trazado_1049341" data-name="Trazado 1049341" d="M271.543,384.085l-6.607-3.194-3.824,6.622a.492.492,0,0,0,.523.728l3.29-.665a.492.492,0,0,1,.564.325l1.07,3.181a.492.492,0,0,0,.892.089Zm1.426,0,6.608-3.194,3.822,6.622a.492.492,0,0,1-.523.728l-3.29-.665a.492.492,0,0,0-.564.325l-1.069,3.181a.492.492,0,0,1-.892.089Z" transform="translate(-228.174 -336.212)" fill="#f76c82" fill-rule="evenodd"/>
      <path id="Trazado_1049342" data-name="Trazado 1049342" d="M266.8,188.543a11.8,11.8,0,1,1-11.8,11.8A11.8,11.8,0,0,1,266.8,188.543Z" transform="translate(-222.722 -162.784)" fill="#f5b945" fill-rule="evenodd"/>
      <path id="Trazado_1049343" data-name="Trazado 1049343" d="M303.766,245.085a7.771,7.771,0,1,0-7.771-7.771A7.786,7.786,0,0,0,303.766,245.085Z" transform="translate(-259.684 -199.751)" fill="#fdcd56" fill-rule="evenodd"/>
      <path id="Trazado_1049344" data-name="Trazado 1049344" d="M32.742,42.805l-.048.044A15.322,15.322,0,0,1,22.307,46.8a15.324,15.324,0,0,1-10.39-3.946c-4.054-3.729-4.6-8.243-3.329-13h0c2.1-7.835,9.288-15.051,13.127-21.512a.689.689,0,0,1,1.184,0C26.5,14.4,33.056,21.129,35.581,28.412A12.492,12.492,0,0,1,53.089,46.22L56.368,51.9a.688.688,0,0,1-.733,1.019l-4.188-.846-1.361,4.049a.689.689,0,0,1-1.249.125L45.232,50q-.567.052-1.147.052T42.936,50l-3.6,6.245a.689.689,0,0,1-1.249-.125L36.72,52.074l-4.188.846A.689.689,0,0,1,31.8,51.9l3.28-5.68a12.517,12.517,0,0,1-2.337-3.416ZM34.5,29.546C32.335,22.467,26.081,15.932,22.307,10c-3.891,6.114-10.424,12.87-12.389,20.2-1.137,4.252-.693,8.3,2.931,11.631h0a13.944,13.944,0,0,0,9.458,3.582,13.942,13.942,0,0,0,9.454-3.582h0q.226-.208.436-.419A12.512,12.512,0,0,1,34.5,29.546ZM52.054,47.182a12.447,12.447,0,0,1-5.36,2.6l2.573,4.456,1.068-3.179a.689.689,0,0,1,.789-.456l3.288.664Zm-10.581,2.6a12.447,12.447,0,0,1-5.36-2.6l-2.359,4.086,3.288-.664a.689.689,0,0,1,.789.455l1.07,3.179Zm2.611-23.334A11.115,11.115,0,1,0,55.2,37.562,11.116,11.116,0,0,0,44.085,26.448Zm0,19.575a8.459,8.459,0,1,1,8.46-8.46A8.476,8.476,0,0,1,44.084,46.022Zm0-1.377A7.082,7.082,0,1,0,37,37.563,7.1,7.1,0,0,0,44.084,44.645ZM47.83,34.52a.689.689,0,0,1,.868,1.069l-6.178,5.017a.689.689,0,0,1-1.006-.151L39.331,37.2a.689.689,0,1,1,1.143-.768l1.763,2.626Z" transform="translate(0 0)" fill-rule="evenodd"/>
    </g>
  </g>
</svg>
