<svg xmlns="http://www.w3.org/2000/svg" xmlns:xlink="http://www.w3.org/1999/xlink" width="110" height="110" viewBox="0 0 110 110">
  <defs>
    <clipPath id="clip-path">
      <rect id="Rectángulo_407644" data-name="Rectángulo 407644" width="110" height="110" transform="translate(800.781 1960)" fill="#37a2e4" opacity="0.47"/>
    </clipPath>
    <filter id="Trazado_1049248" x="5" y="-4.866" width="90.454" height="115.637" filterUnits="userSpaceOnUse">
      <feOffset dy="3" input="SourceAlpha"/>
      <feGaussianBlur stdDeviation="3" result="blur"/>
      <feFlood flood-opacity="0.161"/>
      <feComposite operator="in" in2="blur"/>
      <feComposite in="SourceGraphic"/>
    </filter>
    <clipPath id="clip-path-2">
      <path id="path5094" d="M0-682.665H47.224v47.224H0Z" transform="translate(0 682.665)"/>
    </clipPath>
  </defs>
  <g id="Grupo_1181893" data-name="Grupo 1181893" transform="translate(-12768.721 10581)">
    <g id="Enmascarar_grupo_1098983" data-name="Enmascarar grupo 1098983" transform="translate(11967.939 -12541)" clip-path="url(#clip-path)">
      <g id="Grupo_1181862" data-name="Grupo 1181862" transform="translate(-1 -1)">
        <g id="Grupo_1181860" data-name="Grupo 1181860" transform="translate(815.781 1961)">
          <g id="Grupo_1181859" data-name="Grupo 1181859" transform="translate(0 0)">
            <path id="Trazado_1049247" data-name="Trazado 1049247" d="M127.429,109.916c-22.489,0-40.784-16.31-40.784-36.359S124.352,2.836,125.959.662a1.964,1.964,0,0,1,2.941,0c1.607,2.173,39.31,53.434,39.31,72.895s-18.3,36.359-40.784,36.359Z" transform="translate(-86.645 0)" fill="#54eabd"/>
            <g transform="matrix(1, 0, 0, 1, -14, 0)" filter="url(#Trazado_1049248)">
              <path id="Trazado_1049248-2" data-name="Trazado 1049248" d="M122.873,97.636c-19.977,0-36.228-14.488-36.228-32.3S120.139,2.519,121.567.588a1.745,1.745,0,0,1,2.613,0C125.607,2.519,159.1,48.053,159.1,65.34s-16.252,32.3-36.228,32.3Z" transform="translate(-72.64 1.13)" fill="#54eabd" opacity="0.9"/>
            </g>
          </g>
        </g>
      </g>
    </g>
    <g id="g5088" transform="translate(12800.359 -9861.614)">
      <g id="g5090" transform="translate(0 -682.665)">
        <g id="g5092" clip-path="url(#clip-path-2)">
          <g id="g5098" transform="translate(4.123 0.692)">
            <path id="path5100" d="M-483.53-375.271A17.959,17.959,0,0,1-501.5-357.319a17.959,17.959,0,0,1-17.967-17.952c0-8.764,14.039-24.147,17.3-27.6a.92.92,0,0,1,1.339,0c3.258,3.452,17.3,18.836,17.3,27.6" transform="translate(519.464 403.16)" fill="#b3dafe"/>
          </g>
          <g id="g5102" transform="translate(20.707 0.692)">
            <path id="path5104" d="M-27.628-3.889a.92.92,0,0,0-1.339,0c-.2.211-.439.468-.714.764C-25.471,1.421-13.1,15.483-13.1,23.711a17.959,17.959,0,0,1-16.583,17.9q.685.052,1.384.052A17.959,17.959,0,0,0-10.331,23.711c0-8.764-14.039-24.147-17.3-27.6" transform="translate(29.681 4.178)" fill="#8ac9fe"/>
          </g>
          <g id="g5106" transform="translate(4.805 28.549)">
            <path id="path5108" d="M-473.717-17.932c-5.007-2.121-10.434-1.707-24.443,1.222-3.154.66-6.764,1.451-10.761,2.393A17.973,17.973,0,0,0-491.636-1.282a17.961,17.961,0,0,0,17.92-16.651" transform="translate(508.921 19.265)" fill="#60b7ff"/>
          </g>
          <g id="g5110" transform="translate(20.712 28.998)">
            <path id="path5112" d="M-26.706-235.788c.1,0,.2-.006.3-.011l.18-.011c.089-.005.179-.01.268-.017l.191-.016.254-.023.2-.021.246-.028.2-.027.239-.033.2-.032.234-.039.2-.037.23-.044.2-.042.226-.049.2-.047.222-.054.2-.052.219-.059.2-.057.215-.064.2-.062.212-.069.2-.067.209-.073.2-.071.2-.078.2-.076.2-.082.2-.082.2-.086.2-.087.191-.089.2-.093.184-.091.2-.1.173-.091c.068-.036.136-.071.2-.108l.151-.084q.426-.237.837-.5l.094-.059c.076-.049.152-.1.227-.149l.126-.083c.072-.049.144-.1.215-.148l.132-.091c.07-.05.139-.1.209-.151l.132-.1c.068-.051.136-.1.2-.154l.131-.1c.067-.052.133-.105.2-.158l.129-.1.2-.163.125-.106.194-.169.121-.107.191-.175.117-.109.189-.181.112-.109.187-.187.107-.109.185-.194.1-.108q.093-.1.184-.2l.094-.106q.092-.1.183-.21l.087-.1c.062-.073.123-.146.183-.22l.079-.1q.093-.116.184-.232l.068-.089q.094-.123.187-.247l.056-.076c.065-.088.129-.176.192-.266l.038-.054c.068-.1.136-.2.2-.294l.01-.015a17.916,17.916,0,0,0,1.566-2.876l.013-.03q.073-.17.142-.342l.021-.051q.066-.165.129-.333l.025-.064q.061-.163.118-.327l.026-.075c.037-.108.073-.216.109-.324l.026-.081q.052-.161.1-.324l.025-.085q.048-.162.092-.325l.024-.087q.044-.163.084-.328l.021-.088q.04-.165.077-.332l.019-.086q.036-.169.07-.338l.016-.082q.033-.173.063-.346l.013-.076q.03-.177.056-.356l.009-.067c.017-.123.034-.245.049-.369,0-.017,0-.035.006-.052.015-.129.029-.258.042-.387l0-.029q.02-.205.035-.412a16.052,16.052,0,0,0-2.725-.884A17.96,17.96,0,0,1-28.691-235.83l.128.009.154.01.218.011.146.007.243.008.122,0q.183,0,.367,0,.227,0,.454-.006l.153-.006" transform="translate(28.691 253.311)" fill="#26a6fe"/>
          </g>
          <g id="g5114" transform="translate(24.165 3.782)">
            <path id="path5116" d="M-254.426-127.212a9.454,9.454,0,0,1-9.454,9.454,9.454,9.454,0,0,1-9.454-9.454,9.454,9.454,0,0,1,9.454-9.454,9.454,9.454,0,0,1,9.454,9.454" transform="translate(273.334 136.666)" fill="#97d729"/>
          </g>
          <g id="g5118" transform="translate(32.273 3.769)">
            <path id="path5120" d="M-18.616,0A9.517,9.517,0,0,0-20,.1a9.446,9.446,0,0,1,8.06,9.343A9.446,9.446,0,0,1-20,18.787a9.53,9.53,0,0,0,1.384.1A9.444,9.444,0,0,0-9.173,9.444,9.444,9.444,0,0,0-18.616,0" transform="translate(20)" fill="#8bc727"/>
          </g>
          <g id="g5122" transform="translate(27.844 9.126)">
            <path id="path5124" d="M-63.834-110a1.989,1.989,0,0,1-1.416-.587l-2.888-2.888a1.5,1.5,0,0,1,0-2.124,1.5,1.5,0,0,1,2.124,0l2.18,2.18,4.317-4.317a1.5,1.5,0,0,1,2.124,0,1.5,1.5,0,0,1,0,2.124l-5.025,5.025a1.989,1.989,0,0,1-1.416.587" transform="translate(68.577 118.173)" fill="#f9f7f8"/>
          </g>
          <g id="g5126" transform="translate(4.123 25.541)">
            <path id="path5128" d="M-332.031-93.59c-9.394-1.547-14.291-7.556-24.23-6.906a11.55,11.55,0,0,0-.446,2.99,17.959,17.959,0,0,0,17.967,17.952,17.968,17.968,0,0,0,17.622-14.436,28.316,28.316,0,0,1-10.913.4" transform="translate(356.706 100.545)" fill="#0593fc"/>
          </g>
          <g id="g5130" transform="translate(20.7 32.096)">
            <path id="path5132" d="M-217.111-6.842A17.972,17.972,0,0,1-233.246,7.032q.688.053,1.39.053A17.968,17.968,0,0,0-214.234-7.351c-1,.223-1.959.39-2.877.508" transform="translate(233.246 7.351)" fill="#0182fc"/>
          </g>
          <g id="g5134" transform="translate(3.431 0)">
            <path id="path5136" d="M-42.414-505.967a.691.691,0,0,1-.6-.342,18.617,18.617,0,0,1-2.556-9.423c0-8.861,13.384-23.729,17.486-28.075a1.62,1.62,0,0,1,1.173-.505,1.62,1.62,0,0,1,1.172.505c.861.912,2.608,2.8,4.647,5.2a.692.692,0,0,1-.08.975.692.692,0,0,1-.975-.08c-2.018-2.378-3.747-4.246-4.6-5.148a.228.228,0,0,0-.167-.072.228.228,0,0,0-.167.072c-2.857,3.027-17.109,18.559-17.109,27.125a17.233,17.233,0,0,0,2.365,8.722.692.692,0,0,1-.246.947A.689.689,0,0,1-42.414-505.967Z" transform="translate(45.567 544.311)"/>
          </g>
          <g id="g5138" transform="translate(7.787 20.875)">
            <path id="path5140" d="M-423.372,16.346a18.659,18.659,0,0,1-14.135-6.473.692.692,0,0,1,.072-.976.692.692,0,0,1,.976.072,17.277,17.277,0,0,0,13.088,5.994A17.287,17.287,0,0,0-406.1-2.3a16.321,16.321,0,0,0-1.926-6.714.692.692,0,0,1,.323-.923.692.692,0,0,1,.923.323A17.626,17.626,0,0,1-404.713-2.3,18.672,18.672,0,0,1-423.372,16.346Z" transform="translate(437.675 10.002)"/>
          </g>
          <g id="g5142" transform="translate(20.218 27.86)">
            <path id="path5144" d="M-9.311-28.517a.692.692,0,0,1-.679-.563.692.692,0,0,1,.551-.808C.9-31.845,5.635-31.871,10.061-30a.692.692,0,0,1,.367.907.692.692,0,0,1-.907.367c-4.133-1.751-8.678-1.7-18.7.193A.7.7,0,0,1-9.311-28.517Z" transform="translate(10.002 31.379)"/>
          </g>
          <g id="g5146" transform="translate(23.52 3.044)">
            <path id="path5148" d="M-238.86-35.794a10.157,10.157,0,0,1-10.146-10.146A10.157,10.157,0,0,1-238.86-56.085a10.155,10.155,0,0,1,4.909,1.265.692.692,0,0,1,.27.94.692.692,0,0,1-.94.27A8.768,8.768,0,0,0-238.86-54.7a8.772,8.772,0,0,0-8.762,8.762,8.772,8.772,0,0,0,8.762,8.762,8.772,8.772,0,0,0,8.762-8.762,8.751,8.751,0,0,0-2.2-5.807.692.692,0,0,1,.059-.976.692.692,0,0,1,.976.059,10.133,10.133,0,0,1,2.549,6.725A10.157,10.157,0,0,1-238.86-35.794Z" transform="translate(249.006 56.085)"/>
          </g>
          <g id="g5150" transform="translate(27.153 8.434)">
            <path id="path5152" d="M-73.142-118.615a2.676,2.676,0,0,1-1.905-.79l-2.888-2.888a2.179,2.179,0,0,1-.643-1.551,2.179,2.179,0,0,1,.642-1.551,2.179,2.179,0,0,1,1.551-.642,2.179,2.179,0,0,1,1.551.643l1.691,1.691,3.828-3.828a2.179,2.179,0,0,1,1.551-.642,2.179,2.179,0,0,1,1.551.642,2.179,2.179,0,0,1,.643,1.551,2.179,2.179,0,0,1-.643,1.551l-5.025,5.025A2.676,2.676,0,0,1-73.142-118.615Zm-3.242-6.038a.8.8,0,0,0-.573.237.8.8,0,0,0-.237.573.8.8,0,0,0,.237.573l2.888,2.888a1.3,1.3,0,0,0,.927.384,1.3,1.3,0,0,0,.927-.384l5.025-5.025a.8.8,0,0,0,.237-.573.8.8,0,0,0-.237-.573.8.8,0,0,0-.573-.237.8.8,0,0,0-.573.237l-4.317,4.317a.692.692,0,0,1-.978,0l-2.18-2.18A.8.8,0,0,0-76.384-124.653Z" transform="translate(78.577 128.173)"/>
          </g>
          <g id="g5154" transform="translate(3.877 24.848)">
            <path id="path5156" d="M-488.786-96.081a27.26,27.26,0,0,1-4.434-.358,39.463,39.463,0,0,1-10.36-3.55c-4.182-1.91-8.132-3.714-13.712-3.349a.692.692,0,0,1-.735-.645.692.692,0,0,1,.645-.735c5.928-.387,10.032,1.487,14.377,3.471A38.355,38.355,0,0,0-493-97.8a27.917,27.917,0,0,0,10.65-.393.692.692,0,0,1,.826.524.692.692,0,0,1-.524.826A30.925,30.925,0,0,1-488.786-96.081Z" transform="translate(518.03 104.77)"/>
          </g>
        </g>
      </g>
    </g>
  </g>
</svg>
