<svg xmlns="http://www.w3.org/2000/svg" width="400" height="321" viewBox="0 0 400 321">
  <g id="Grupo_1181899" data-name="Grupo 1181899" transform="translate(-285 -5888)">
    <rect id="Rect치ngulo_407463" data-name="Rect치ngulo 407463" width="400" height="321" transform="translate(285 5888)" fill="#2c82b7"/>
    <g id="Grupo_1181787" data-name="Grupo 1181787">
      <g id="Grupo_1181785" data-name="Grupo 1181785" transform="translate(359.809 5946.406)">
        <g id="Grupo_1181786" data-name="Grupo 1181786" transform="translate(0 0)">
          <path id="Trazado_1049030" data-name="Trazado 1049030" d="M24.936,0H199.572a24.936,24.936,0,0,1,24.936,24.936V138.481a24.936,24.936,0,0,1-24.936,24.936H24.938a25.04,25.04,0,0,1-20.5-10.732A24.6,24.6,0,0,1,0,138.479V24.936A24.936,24.936,0,0,1,24.936,0Z" transform="translate(7.842 8.338)" fill="#cfe7ff"/>
          <path id="Trazado_1048992" data-name="Trazado 1048992" d="M225.837,43.248a20.139,20.139,0,0,0-10.488-4.067c-4.66-.323-9.04.407-12.939,3.125-1.112.773-2.282,1.475-3.419,2.2a8.933,8.933,0,0,1-5.13,1.375,11.6,11.6,0,0,1-6.406-2.528,20.6,20.6,0,0,0-7.675-3.711c-4.374-.882-8.693-.867-12.8.987a52.27,52.27,0,0,0-5.432,3.224,11.307,11.307,0,0,1-6.234,2.043,11.14,11.14,0,0,1-6.4-2.532,20.106,20.106,0,0,0-10.551-4.17c-4.653-.338-9.052.32-12.959,3.033-1.14.791-2.336,1.522-3.515,2.262a8.7,8.7,0,0,1-4.9,1.37v0c-2.666.16-4.786-1.191-6.773-2.615a20.128,20.128,0,0,0-10.483-4.067c-4.66-.323-9.042.407-12.944,3.125-1.109.773-2.274,1.475-3.422,2.2a8.916,8.916,0,0,1-5.127,1.375,11.581,11.581,0,0,1-6.4-2.528,20.609,20.609,0,0,0-7.677-3.711c-4.372-.882-8.7-.867-12.8.987a51.785,51.785,0,0,0-5.434,3.224A11.313,11.313,0,0,1,39.686,45.9a11.136,11.136,0,0,1-6.4-2.532A20.085,20.085,0,0,0,22.739,39.2c-4.657-.338-9.05.32-12.959,3.033-1.143.791-2.339,1.522-3.518,2.262a8.7,8.7,0,0,1-4.9,1.37v61.671a41.974,41.974,0,0,0,41.975,41.976H190.76a41.979,41.979,0,0,0,41.98-41.976V45.861c-2.728.214-4.885-1.165-6.9-2.613" transform="translate(0.861 24.747)" fill="#6e99c4"/>
          <path id="Trazado_1048993" data-name="Trazado 1048993" d="M232.771,79.7c-2.728.212-4.88-1.165-6.9-2.617a20.18,20.18,0,0,0-10.486-4.067c-4.66-.322-9.042.408-12.942,3.126-1.107.776-2.278,1.475-3.423,2.2a8.925,8.925,0,0,1-5.127,1.375,11.579,11.579,0,0,1-6.4-2.527,20.641,20.641,0,0,0-7.677-3.714c-4.372-.88-8.694-.867-12.8.988a51.361,51.361,0,0,0-5.431,3.226,11.377,11.377,0,0,1-6.239,2.045,11.191,11.191,0,0,1-6.4-2.532A20.081,20.081,0,0,0,138.4,73.036c-4.663-.34-9.055.317-12.965,3.031-1.147.792-2.332,1.524-3.513,2.264a8.76,8.76,0,0,1-4.907,1.37c-2.667.162-4.786-1.191-6.772-2.617A20.153,20.153,0,0,0,99.76,73.018c-4.66-.322-9.042.408-12.939,3.126-1.111.776-2.282,1.475-3.422,2.2a8.938,8.938,0,0,1-5.127,1.375,11.579,11.579,0,0,1-6.406-2.527,20.682,20.682,0,0,0-7.675-3.714c-4.374-.88-8.694-.867-12.8.988a51.361,51.361,0,0,0-5.431,3.226,11.392,11.392,0,0,1-6.236,2.045,11.187,11.187,0,0,1-6.4-2.532,20.07,20.07,0,0,0-10.55-4.172c-4.655-.34-9.052.317-12.957,3.031-1.145.792-2.341,1.524-3.517,2.264a8.751,8.751,0,0,1-4.9,1.37V89.88c.029,0,.06-.007.09-.011a41.965,41.965,0,0,0,41.787,38.21H190.7A41.965,41.965,0,0,0,232.484,89.87c.1,0,.189.01.287.01Z" transform="translate(0.883 46.177)" fill="#6382a8" fill-rule="evenodd"/>
          <path id="Trazado_1048994" data-name="Trazado 1048994" d="M94.372,93.1a2.36,2.36,0,1,1-3.856-2.723l6.354-9a2.362,2.362,0,0,1,3.86,2.724Z" transform="translate(57.052 50.902)" fill="#4f6984"/>
          <path id="Trazado_1048995" data-name="Trazado 1048995" d="M29.965,95.51a2.361,2.361,0,1,1-3.858-2.724l6.355-9a2.361,2.361,0,0,1,3.858,2.723Z" transform="translate(16.26 52.429)" fill="#4f6984"/>
          <path id="Trazado_1048996" data-name="Trazado 1048996" d="M80.731,91.125a2.054,2.054,0,0,1-3.252-2.3l4.165-5.9a2.055,2.055,0,0,1,3.254,2.3Z" transform="translate(48.924 52.163)" fill="#4f6984"/>
          <path id="Trazado_1048997" data-name="Trazado 1048997" d="M42.811,103.054a2.36,2.36,0,1,1-3.855-2.723l6.349-9a2.363,2.363,0,0,1,3.861,2.724Z" transform="translate(24.398 57.209)" fill="#4f6984"/>
          <path id="Trazado_1048998" data-name="Trazado 1048998" d="M37.173,98.482A1.892,1.892,0,1,1,34.082,96.3l5.1-7.227a1.894,1.894,0,1,1,3.094,2.185Z" transform="translate(21.363 55.903)" fill="#4f6984"/>
          <path id="Trazado_1048999" data-name="Trazado 1048999" d="M57.861,90.735c-.5.7-1.82.617-2.96-.186s-1.661-2.025-1.161-2.726l4.181-5.931c.5-.7,1.823-.617,2.961.185S62.543,84.1,62.048,84.8Z" transform="translate(33.915 51.562)" fill="#4f6984"/>
          <path id="Trazado_1049000" data-name="Trazado 1049000" d="M67.064,96.471a2.359,2.359,0,1,1-3.853-2.724l6.354-9a2.361,2.361,0,0,1,3.858,2.723Z" transform="translate(39.758 53.038)" fill="#4f6984"/>
          <path id="Trazado_1049001" data-name="Trazado 1049001" d="M42.474,88.867a1.491,1.491,0,1,1-2.437-1.718l4.047-5.731a1.491,1.491,0,1,1,2.435,1.722Z" transform="translate(25.181 51.159)" fill="#4f6984"/>
          <path id="Trazado_1049002" data-name="Trazado 1049002" d="M124.733,103.218a2.363,2.363,0,1,1-3.861-2.724l6.355-9a2.361,2.361,0,1,1,3.858,2.724Z" transform="translate(76.277 57.311)" fill="#4f6984"/>
          <path id="Trazado_1049003" data-name="Trazado 1049003" d="M85.859,97.757A2.36,2.36,0,1,1,82,95.033l6.35-9a2.363,2.363,0,0,1,3.863,2.723Z" transform="translate(51.66 53.853)" fill="#4f6984"/>
          <path id="Trazado_1049004" data-name="Trazado 1049004" d="M26.411,86.7A3.412,3.412,0,1,1,23,83.29,3.414,3.414,0,0,1,26.411,86.7" transform="translate(12.405 52.749)" fill="#4f6984"/>
          <path id="Trazado_1049005" data-name="Trazado 1049005" d="M67.118,83.984A2.886,2.886,0,1,1,64.23,81.1a2.886,2.886,0,0,1,2.888,2.886" transform="translate(38.852 51.361)" fill="#4f6984"/>
          <path id="Trazado_1049006" data-name="Trazado 1049006" d="M78.561,86.874a2.884,2.884,0,1,1-2.883-2.886,2.883,2.883,0,0,1,2.883,2.886" transform="translate(46.102 53.191)" fill="#4f6984"/>
          <path id="Trazado_1049007" data-name="Trazado 1049007" d="M53.186,88.8A2.886,2.886,0,1,1,50.3,85.915,2.887,2.887,0,0,1,53.186,88.8" transform="translate(30.028 54.412)" fill="#4f6984"/>
          <path id="Trazado_1049008" data-name="Trazado 1049008" d="M80.214,95.858a3.409,3.409,0,1,1-3.409-3.412,3.411,3.411,0,0,1,3.409,3.412" transform="translate(46.484 58.548)" fill="#4f6984"/>
          <path id="Trazado_1049009" data-name="Trazado 1049009" d="M33.025,96.352A2.622,2.622,0,1,1,30.4,93.731a2.622,2.622,0,0,1,2.621,2.621" transform="translate(17.594 59.362)" fill="#4f6984"/>
          <path id="Trazado_1049010" data-name="Trazado 1049010" d="M24.556,94.368a2.885,2.885,0,1,1-2.886-2.888,2.886,2.886,0,0,1,2.886,2.888" transform="translate(11.897 57.936)" fill="#4f6984"/>
          <path id="Trazado_1049011" data-name="Trazado 1049011" d="M58.234,102.094a2.363,2.363,0,0,1-3.86-2.726l6.354-9a2.362,2.362,0,0,1,3.86,2.723Z" transform="translate(34.163 56.6)" fill="#4f6984"/>
          <path id="Trazado_1049012" data-name="Trazado 1049012" d="M95.82,99.362a2.361,2.361,0,1,1-3.858-2.723l6.35-9a2.362,2.362,0,1,1,3.86,2.724Z" transform="translate(57.967 54.869)" fill="#4f6984"/>
          <path id="Trazado_1049013" data-name="Trazado 1049013" d="M133.3,94.588a1.689,1.689,0,0,1-2.759-1.95l4.547-6.445a1.69,1.69,0,0,1,2.76,1.952Z" transform="translate(82.481 54.136)" fill="#4f6984"/>
          <path id="Trazado_1049014" data-name="Trazado 1049014" d="M126.58,90.462a1.385,1.385,0,0,1-1.031-2.571l6-2.39a1.383,1.383,0,0,1,1.022,2.571Z" transform="translate(78.964 54.088)" fill="#4f6984"/>
          <path id="Trazado_1049015" data-name="Trazado 1049015" d="M108.549,92.35a2.361,2.361,0,1,1-3.858-2.723l6.352-9a2.361,2.361,0,0,1,3.858,2.723Z" transform="translate(66.029 50.429)" fill="#4f6984"/>
          <path id="Trazado_1049016" data-name="Trazado 1049016" d="M120.555,96.793A2.36,2.36,0,1,1,116.7,94.07l6.35-9a2.361,2.361,0,0,1,3.86,2.721Z" transform="translate(73.633 53.242)" fill="#4f6984"/>
          <path id="Trazado_1049017" data-name="Trazado 1049017" d="M107.432,95.765a2.623,2.623,0,1,1-2.621-2.621,2.623,2.623,0,0,1,2.621,2.621" transform="translate(64.717 58.99)" fill="#4f6984"/>
          <path id="Trazado_1049018" data-name="Trazado 1049018" d="M114.69,90.8a1.834,1.834,0,1,1-1.836-1.837A1.835,1.835,0,0,1,114.69,90.8" transform="translate(70.313 56.344)" fill="#4f6984"/>
          <rect id="Rect치ngulo_407559" data-name="Rect치ngulo 407559" width="228.768" height="6.296" transform="translate(3.582 110.161)" fill="#fff"/>
          <path id="Trazado_1049019" data-name="Trazado 1049019" d="M64.865,100.361a10.308,10.308,0,0,0-.472-3.314c-.281-.861-.554-1.712-.857-2.541a23.154,23.154,0,0,1-1.083-8.773,21.683,21.683,0,0,1,1.45-7.144,13.04,13.04,0,0,0,.965-4.14,11.641,11.641,0,0,0-.759-4.784,22,22,0,0,1-1.452-5.349,24.916,24.916,0,0,1,.808-10.929q.385-1.147.776-2.288a11.337,11.337,0,0,0,0-7.5q-.417-1.2-.822-2.411a23.865,23.865,0,0,1-.973-8.472A22.093,22.093,0,0,1,63.916,25.5a11.346,11.346,0,0,0,.949-4.733h3.686a23.509,23.509,0,0,1-1.6,8.861,11.609,11.609,0,0,0-.776,5.829,12.258,12.258,0,0,0,.408,1.9c.232.794.493,1.555.769,2.3a23.374,23.374,0,0,1,1.156,9.026,21.81,21.81,0,0,1-1.428,7.089,17.873,17.873,0,0,0-.885,3.257,11.141,11.141,0,0,0,.519,5.367c.333,1.018.732,1.971,1.014,3.043a24.655,24.655,0,0,1-.1,13.138c-.229.8-.495,1.548-.768,2.295a11.623,11.623,0,0,0-.069,8.191,23.5,23.5,0,0,1,1.539,5.839c.1,1.14.145,2.3.217,3.456Z" transform="translate(39.526 13.155)" fill="#fff" fill-rule="evenodd"/>
          <path id="Trazado_1049020" data-name="Trazado 1049020" d="M72.654,100.361a10.4,10.4,0,0,0-.472-3.314c-.281-.861-.56-1.712-.861-2.541a23.22,23.22,0,0,1-1.08-8.773A21.558,21.558,0,0,1,71.7,78.589a13.13,13.13,0,0,0,.962-4.14,11.7,11.7,0,0,0-.759-4.784,22.074,22.074,0,0,1-1.454-5.349,25.014,25.014,0,0,1,.81-10.929c.26-.764.513-1.527.779-2.288a11.378,11.378,0,0,0,0-7.5q-.416-1.2-.823-2.411a23.978,23.978,0,0,1-.972-8.472A22.093,22.093,0,0,1,71.7,25.5a11.294,11.294,0,0,0,.952-4.733h3.683a23.479,23.479,0,0,1-1.594,8.861,11.591,11.591,0,0,0-.779,5.829,12.258,12.258,0,0,0,.408,1.9c.232.794.493,1.555.771,2.3A23.4,23.4,0,0,1,76.3,48.686a22.071,22.071,0,0,1-1.424,7.089,17.873,17.873,0,0,0-.89,3.257A11.1,11.1,0,0,0,74.5,64.4c.333,1.018.735,1.971,1.013,3.043a24.639,24.639,0,0,1-.1,13.138c-.225.8-.495,1.548-.768,2.295a11.623,11.623,0,0,0-.072,8.191,23.147,23.147,0,0,1,1.542,5.839c.1,1.14.145,2.3.214,3.456Z" transform="translate(44.46 13.155)" fill="#fff" fill-rule="evenodd"/>
          <path id="Trazado_1049021" data-name="Trazado 1049021" d="M80.445,100.361a10.308,10.308,0,0,0-.472-3.314c-.276-.861-.56-1.712-.859-2.541a23.417,23.417,0,0,1-1.083-8.773,21.682,21.682,0,0,1,1.455-7.144,13.13,13.13,0,0,0,.962-4.14,11.7,11.7,0,0,0-.756-4.784,22.074,22.074,0,0,1-1.459-5.349,25.014,25.014,0,0,1,.812-10.929c.256-.764.513-1.527.776-2.288a11.357,11.357,0,0,0,0-7.5c-.276-.8-.554-1.6-.823-2.411a23.977,23.977,0,0,1-.972-8.472A22.093,22.093,0,0,1,79.494,25.5a11.32,11.32,0,0,0,.951-4.733h3.686a23.509,23.509,0,0,1-1.6,8.861,11.627,11.627,0,0,0-.776,5.829,12.257,12.257,0,0,0,.413,1.9c.224.794.488,1.555.764,2.3a23.436,23.436,0,0,1,1.158,9.026,22.158,22.158,0,0,1-1.424,7.089,18.006,18.006,0,0,0-.892,3.257A11.121,11.121,0,0,0,82.3,64.4c.333,1.018.732,1.971,1.013,3.043a24.623,24.623,0,0,1-.1,13.138c-.224.8-.495,1.548-.768,2.295a11.623,11.623,0,0,0-.067,8.191,23.782,23.782,0,0,1,1.539,5.839c.1,1.14.145,2.3.216,3.456Z" transform="translate(49.393 13.155)" fill="#fff" fill-rule="evenodd"/>
          <path id="Trazado_1049022" data-name="Trazado 1049022" d="M102.884,101.129a10.307,10.307,0,0,0-.472-3.314c-.281-.861-.554-1.712-.857-2.541A23.187,23.187,0,0,1,100.47,86.5a21.724,21.724,0,0,1,1.452-7.144,13.04,13.04,0,0,0,.965-4.14,11.668,11.668,0,0,0-.759-4.784,22,22,0,0,1-1.452-5.349,24.916,24.916,0,0,1,.808-10.929q.385-1.147.776-2.288a11.337,11.337,0,0,0,0-7.5q-.416-1.2-.822-2.411a23.907,23.907,0,0,1-.975-8.472,22.135,22.135,0,0,1,1.468-7.211,11.348,11.348,0,0,0,.949-4.735h3.686a23.512,23.512,0,0,1-1.6,8.862,11.609,11.609,0,0,0-.776,5.829,12.254,12.254,0,0,0,.408,1.9c.232.794.493,1.555.769,2.3a23.374,23.374,0,0,1,1.156,9.026,21.81,21.81,0,0,1-1.428,7.089,18.006,18.006,0,0,0-.887,3.257,11.16,11.16,0,0,0,.521,5.367c.333,1.018.732,1.971,1.014,3.043a24.655,24.655,0,0,1-.1,13.138c-.229.8-.495,1.548-.768,2.295a11.623,11.623,0,0,0-.069,8.191,23.566,23.566,0,0,1,1.539,5.839c.1,1.14.145,2.3.217,3.456Z" transform="translate(63.604 13.64)" fill="#fff" fill-rule="evenodd"/>
          <path id="Trazado_1049023" data-name="Trazado 1049023" d="M110.673,101.129a10.4,10.4,0,0,0-.472-3.314c-.281-.861-.56-1.712-.861-2.541a23.22,23.22,0,0,1-1.08-8.773,21.558,21.558,0,0,1,1.454-7.144,13.13,13.13,0,0,0,.962-4.14,11.7,11.7,0,0,0-.759-4.784,22.148,22.148,0,0,1-1.455-5.349,25.039,25.039,0,0,1,.812-10.929c.26-.764.513-1.527.779-2.288a11.378,11.378,0,0,0,0-7.5q-.416-1.2-.823-2.411a23.982,23.982,0,0,1-.972-8.472,22.093,22.093,0,0,1,1.463-7.211,11.3,11.3,0,0,0,.952-4.735h3.683a23.513,23.513,0,0,1-1.594,8.862,11.591,11.591,0,0,0-.779,5.829,12.257,12.257,0,0,0,.408,1.9c.232.794.493,1.555.769,2.3a23.343,23.343,0,0,1,1.156,9.026,22.027,22.027,0,0,1-1.423,7.089A18,18,0,0,0,112,59.8a11.121,11.121,0,0,0,.521,5.367c.333,1.018.735,1.971,1.013,3.043a24.639,24.639,0,0,1-.1,13.138c-.225.8-.495,1.548-.768,2.295a11.623,11.623,0,0,0-.072,8.191,23.216,23.216,0,0,1,1.542,5.839c.1,1.14.145,2.3.214,3.456Z" transform="translate(68.538 13.64)" fill="#fff" fill-rule="evenodd"/>
          <path id="Trazado_1049024" data-name="Trazado 1049024" d="M118.464,101.129a10.308,10.308,0,0,0-.472-3.314c-.276-.861-.56-1.712-.859-2.541A23.417,23.417,0,0,1,116.05,86.5a21.682,21.682,0,0,1,1.455-7.144,13.13,13.13,0,0,0,.962-4.14,11.7,11.7,0,0,0-.756-4.784,22.074,22.074,0,0,1-1.459-5.349,25.014,25.014,0,0,1,.812-10.929c.256-.764.513-1.527.776-2.288a11.357,11.357,0,0,0,0-7.5c-.276-.8-.554-1.6-.823-2.411a24.02,24.02,0,0,1-.973-8.472,22.135,22.135,0,0,1,1.467-7.211,11.322,11.322,0,0,0,.951-4.735h3.686a23.512,23.512,0,0,1-1.6,8.862,11.627,11.627,0,0,0-.776,5.829,12.254,12.254,0,0,0,.413,1.9c.224.794.488,1.555.764,2.3a23.436,23.436,0,0,1,1.158,9.026,22.159,22.159,0,0,1-1.424,7.089,18.006,18.006,0,0,0-.892,3.257,11.121,11.121,0,0,0,.521,5.367c.333,1.018.732,1.971,1.013,3.043a24.623,24.623,0,0,1-.1,13.138c-.224.8-.495,1.548-.768,2.295a11.623,11.623,0,0,0-.067,8.191,23.783,23.783,0,0,1,1.539,5.839c.1,1.14.145,2.3.216,3.456Z" transform="translate(73.471 13.64)" fill="#fff" fill-rule="evenodd"/>
          <path id="Trazado_1049025" data-name="Trazado 1049025" d="M27.121,100.361a10.4,10.4,0,0,0-.48-3.314c-.273-.861-.554-1.712-.853-2.541A23.317,23.317,0,0,1,24.7,85.733a21.765,21.765,0,0,1,1.459-7.144,13.22,13.22,0,0,0,.962-4.14,11.751,11.751,0,0,0-.756-4.784,21.781,21.781,0,0,1-1.455-5.349,24.965,24.965,0,0,1,.808-10.929c.258-.764.514-1.527.777-2.288a11.378,11.378,0,0,0,0-7.5c-.279-.8-.557-1.6-.823-2.411a23.9,23.9,0,0,1-.975-8.472A22.135,22.135,0,0,1,26.169,25.5a11.5,11.5,0,0,0,.952-4.733H30.8a23.287,23.287,0,0,1-1.6,8.861,11.646,11.646,0,0,0-.771,5.829,12.647,12.647,0,0,0,.408,1.9c.232.794.493,1.555.768,2.3a23.281,23.281,0,0,1,1.158,9.026,22.07,22.07,0,0,1-1.424,7.089,17.613,17.613,0,0,0-.887,3.257,11.081,11.081,0,0,0,.516,5.367c.335,1.018.732,1.971,1.016,3.043a24.688,24.688,0,0,1-.1,13.138c-.225.8-.495,1.548-.766,2.295a11.605,11.605,0,0,0-.07,8.191,23.782,23.782,0,0,1,1.539,5.839c.1,1.14.145,2.3.216,3.456Z" transform="translate(15.621 13.155)" fill="#fff" fill-rule="evenodd"/>
          <path id="Trazado_1049026" data-name="Trazado 1049026" d="M34.908,100.361a10.218,10.218,0,0,0-.472-3.314c-.278-.861-.562-1.712-.857-2.541A23.155,23.155,0,0,1,32.5,85.733a21.683,21.683,0,0,1,1.45-7.144,13.04,13.04,0,0,0,.965-4.14,11.7,11.7,0,0,0-.759-4.784A22,22,0,0,1,32.7,64.315a24.916,24.916,0,0,1,.812-10.929q.38-1.147.771-2.288a11.347,11.347,0,0,0,0-7.5c-.274-.8-.554-1.6-.822-2.411a23.792,23.792,0,0,1-.97-8.472A22.009,22.009,0,0,1,33.959,25.5a11.372,11.372,0,0,0,.949-4.733h3.682a23.351,23.351,0,0,1-1.6,8.861,11.556,11.556,0,0,0-.773,5.829,11.888,11.888,0,0,0,.405,1.9c.229.794.493,1.555.773,2.3a23.468,23.468,0,0,1,1.155,9.026,21.939,21.939,0,0,1-1.429,7.089,18.14,18.14,0,0,0-.887,3.257,11.221,11.221,0,0,0,.519,5.367c.335,1.018.733,1.971,1.016,3.043a24.655,24.655,0,0,1-.1,13.138c-.225.8-.495,1.548-.768,2.295a11.614,11.614,0,0,0-.069,8.191,23.566,23.566,0,0,1,1.539,5.839c.1,1.14.145,2.3.212,3.456Z" transform="translate(20.555 13.155)" fill="#fff" fill-rule="evenodd"/>
          <path id="Trazado_1049027" data-name="Trazado 1049027" d="M42.7,100.361a10.4,10.4,0,0,0-.475-3.314c-.278-.861-.557-1.712-.857-2.541a23.252,23.252,0,0,1-1.085-8.773,21.724,21.724,0,0,1,1.452-7.144,13.04,13.04,0,0,0,.965-4.14,11.7,11.7,0,0,0-.759-4.784,22.073,22.073,0,0,1-1.454-5.349,24.941,24.941,0,0,1,.81-10.929q.385-1.147.776-2.288a11.357,11.357,0,0,0,0-7.5q-.416-1.2-.825-2.411a24.016,24.016,0,0,1-.969-8.472A22.136,22.136,0,0,1,41.747,25.5a11.422,11.422,0,0,0,.955-4.733h3.68a23.414,23.414,0,0,1-1.6,8.861,11.645,11.645,0,0,0-.779,5.829,12.256,12.256,0,0,0,.412,1.9c.229.794.5,1.555.769,2.3a23.5,23.5,0,0,1,1.16,9.026,22.158,22.158,0,0,1-1.428,7.089,18.006,18.006,0,0,0-.89,3.257,11.121,11.121,0,0,0,.521,5.367c.333,1.018.735,1.971,1.014,3.043a24.655,24.655,0,0,1-.1,13.138c-.229.8-.5,1.548-.768,2.295a11.605,11.605,0,0,0-.069,8.191,23.566,23.566,0,0,1,1.539,5.839c.1,1.14.149,2.3.214,3.456Z" transform="translate(25.488 13.155)" fill="#fff" fill-rule="evenodd"/>
          <path id="Trazado_1049028" data-name="Trazado 1049028" d="M192.213,178.594H47.979A48.033,48.033,0,0,1,0,130.617V47.979A48.034,48.034,0,0,1,47.979,0H192.213a48.034,48.034,0,0,1,47.979,47.979v82.638a48.033,48.033,0,0,1-47.979,47.977M47.979,13.824A34.193,34.193,0,0,0,13.823,47.979v82.638a34.194,34.194,0,0,0,34.156,34.154H192.213a34.194,34.194,0,0,0,34.154-34.154V47.979a34.193,34.193,0,0,0-34.154-34.154Z" transform="translate(0 0)" fill="#cad2db"/>
          <path id="Trazado_1049029" data-name="Trazado 1049029" d="M167.879,159.9H47.979A34.194,34.194,0,0,1,13.823,125.75V43.112A34.043,34.043,0,0,1,25.467,17.493L15.66,7.685A47.853,47.853,0,0,0,0,43.112V125.75a48.033,48.033,0,0,0,47.979,47.977H181.7Z" transform="translate(0 4.867)" fill="#afbcc9"/>
        </g>
      </g>
      <path id="Trazado_1049433" data-name="Trazado 1049433" d="M12.035-6.8H5.4V0H1.289V-17.062H12.7v3.176H5.4v3.926h6.633ZM18.4,0H14.438V-12.68H18.4ZM14.2-15.949a1.763,1.763,0,0,1,.609-1.383,2.3,2.3,0,0,1,1.582-.539,2.3,2.3,0,0,1,1.582.539,1.763,1.763,0,0,1,.609,1.383,1.763,1.763,0,0,1-.609,1.383,2.3,2.3,0,0,1-1.582.539,2.3,2.3,0,0,1-1.582-.539A1.763,1.763,0,0,1,14.2-15.949ZM25,0H21.035V-18H25Zm7.031-15.832v3.152h2.086v2.742H32.027v5.8a1.481,1.481,0,0,0,.258,1,1.383,1.383,0,0,0,1.02.281,5.793,5.793,0,0,0,.984-.07V-.105a7.288,7.288,0,0,1-2.227.34,4.137,4.137,0,0,1-3.012-.961,3.939,3.939,0,0,1-.973-2.918V-9.937H26.461V-12.68h1.617v-3.152ZM43.336-9.105l-1.3-.094a2.336,2.336,0,0,0-2.391,1.172V0H35.7V-12.68h3.7l.129,1.629A3.058,3.058,0,0,1,42.3-12.914a3.851,3.851,0,0,1,1.1.141ZM51.551,0a4.459,4.459,0,0,1-.375-1.137A3.672,3.672,0,0,1,48.129.234,4.5,4.5,0,0,1,45.082-.85a3.45,3.45,0,0,1-1.254-2.725,3.546,3.546,0,0,1,1.523-3.117,7.761,7.761,0,0,1,4.43-1.055H51v-.671q0-1.755-1.512-1.755a1.236,1.236,0,0,0-1.406,1.39H44.133A3.54,3.54,0,0,1,45.7-11.767a6.575,6.575,0,0,1,3.99-1.147A5.764,5.764,0,0,1,53.52-11.73a4.115,4.115,0,0,1,1.441,3.246v5.613A5.748,5.748,0,0,0,55.5-.2V0ZM49.078-2.578A2.2,2.2,0,0,0,50.3-2.895a1.983,1.983,0,0,0,.7-.715V-5.637H49.852q-2.062,0-2.062,1.852a1.131,1.131,0,0,0,.363.873A1.315,1.315,0,0,0,49.078-2.578Zm13.43-.234A1.756,1.756,0,0,0,63.8-3.264a1.654,1.654,0,0,0,.445-1.26h3.7A4.384,4.384,0,0,1,66.451-1.1,5.558,5.558,0,0,1,62.6.234,5.627,5.627,0,0,1,58.242-1.5a6.834,6.834,0,0,1-1.594-4.8v-.164a7.723,7.723,0,0,1,.709-3.393A5.162,5.162,0,0,1,59.4-12.123a6.1,6.1,0,0,1,3.164-.791,5.488,5.488,0,0,1,3.926,1.371,4.863,4.863,0,0,1,1.453,3.715h-3.7a2.168,2.168,0,0,0-.48-1.512,1.658,1.658,0,0,0-1.289-.527q-1.535,0-1.793,1.957A13.809,13.809,0,0,0,60.6-6.2a5.424,5.424,0,0,0,.457,2.648A1.582,1.582,0,0,0,62.508-2.812ZM73.781,0H69.82V-12.68h3.961Zm-4.2-15.949a1.763,1.763,0,0,1,.609-1.383,2.3,2.3,0,0,1,1.582-.539,2.3,2.3,0,0,1,1.582.539,1.763,1.763,0,0,1,.609,1.383,1.763,1.763,0,0,1-.609,1.383,2.3,2.3,0,0,1-1.582.539,2.3,2.3,0,0,1-1.582-.539A1.763,1.763,0,0,1,69.586-15.949Zm6.129,9.492a7.484,7.484,0,0,1,.738-3.381,5.28,5.28,0,0,1,2.121-2.279,6.388,6.388,0,0,1,3.246-.8,5.83,5.83,0,0,1,4.488,1.764,6.768,6.768,0,0,1,1.641,4.8v.141A6.566,6.566,0,0,1,86.3-1.506,5.846,5.846,0,0,1,81.844.234,5.912,5.912,0,0,1,77.5-1.389a6.348,6.348,0,0,1-1.77-4.4Zm3.949.246a4.718,4.718,0,0,0,.551,2.578,1.835,1.835,0,0,0,1.629.82q2.109,0,2.156-3.246v-.4q0-3.41-2.18-3.41-1.98,0-2.145,2.941ZM82.359-18h4.172l-3.258,3.68-3.223-.006Zm10.957,5.32.129,1.488a4.3,4.3,0,0,1,3.621-1.723,3.618,3.618,0,0,1,2.959,1.184,5.635,5.635,0,0,1,1.014,3.563V0H97.078V-8a2.14,2.14,0,0,0-.387-1.412,1.789,1.789,0,0,0-1.406-.451,1.883,1.883,0,0,0-1.723.914V0H89.613V-12.68Z" transform="translate(421.5 6152.599)" fill="#fff"/>
    </g>
  </g>
</svg>
