<svg xmlns="http://www.w3.org/2000/svg" xmlns:xlink="http://www.w3.org/1999/xlink" width="110" height="110" viewBox="0 0 110 110">
  <defs>
    <clipPath id="clip-path">
      <rect id="Rectángulo_407648" data-name="Rectángulo 407648" width="110" height="110" transform="translate(800.781 1960)" fill="#37a2e4" opacity="0.47"/>
    </clipPath>
    <filter id="Trazado_1049310" x="5" y="-4.866" width="90.454" height="115.637" filterUnits="userSpaceOnUse">
      <feOffset dy="3" input="SourceAlpha"/>
      <feGaussianBlur stdDeviation="3" result="blur"/>
      <feFlood flood-opacity="0.161"/>
      <feComposite operator="in" in2="blur"/>
      <feComposite in="SourceGraphic"/>
    </filter>
  </defs>
  <g id="Grupo_1181897" data-name="Grupo 1181897" transform="translate(-13440 10575)">
    <g id="Enmascarar_grupo_1098985" data-name="Enmascarar grupo 1098985" transform="translate(12639.219 -12535)" clip-path="url(#clip-path)">
      <g id="Grupo_1181870" data-name="Grupo 1181870" transform="translate(-1 -1)">
        <g id="Grupo_1181868" data-name="Grupo 1181868" transform="translate(815.781 1961)">
          <g id="Grupo_1181867" data-name="Grupo 1181867" transform="translate(0 0)">
            <path id="Trazado_1049309" data-name="Trazado 1049309" d="M127.429,109.916c-22.489,0-40.784-16.31-40.784-36.359S124.352,2.836,125.959.662a1.964,1.964,0,0,1,2.941,0c1.607,2.173,39.31,53.434,39.31,72.895s-18.3,36.359-40.784,36.359Z" transform="translate(-86.645 0)" fill="#54eabd"/>
            <g transform="matrix(1, 0, 0, 1, -14, 0)" filter="url(#Trazado_1049310)">
              <path id="Trazado_1049310-2" data-name="Trazado 1049310" d="M122.873,97.636c-19.977,0-36.228-14.488-36.228-32.3S120.139,2.519,121.567.588a1.745,1.745,0,0,1,2.613,0C125.607,2.519,159.1,48.053,159.1,65.34s-16.252,32.3-36.228,32.3Z" transform="translate(-72.64 1.13)" fill="#54eabd" opacity="0.9"/>
            </g>
          </g>
        </g>
      </g>
    </g>
    <g id="analisis-ambiental" transform="translate(13456 -10567.912)">
      <path id="Trazado_1049396" data-name="Trazado 1049396" d="M40.864,29.1h4.453a4.758,4.758,0,0,1,4.745,4.745v6.444a8.718,8.718,0,0,1,4.523,13.237,1.3,1.3,0,0,1,.278,1.025l1.785,2.107a1.325,1.325,0,0,1,1.344.433L61.537,61.3h0a1.675,1.675,0,0,1-.206,2.361v0L59.859,64.9A1.679,1.679,0,0,1,57.5,64.7l-3.543-4.209h0a1.33,1.33,0,0,1-.185-1.421l-1.785-2.106a1.3,1.3,0,0,1-.946-.451,8.668,8.668,0,0,1-.973.377V65.2a4.758,4.758,0,0,1-4.745,4.745H20.745A4.758,4.758,0,0,1,16,65.2V33.848A4.758,4.758,0,0,1,20.745,29.1H25.2v-.55a.611.611,0,0,1,.611-.611h3.466a4.022,4.022,0,0,1,3.756-2.029,4.022,4.022,0,0,1,3.756,2.029h3.466a.611.611,0,0,1,.611.611v.55Z" transform="translate(0)" fill-rule="evenodd"/>
      <path id="Trazado_1049397" data-name="Trazado 1049397" d="M61.314,99.19H56.861a.928.928,0,0,0-.924.924v31.354a.928.928,0,0,0,.924.924H81.432a.928.928,0,0,0,.924-.924v-7.979q-.256-.034-.51-.084a8.672,8.672,0,0,1-4.951-2.9l-.006-.006h0l-.034-.04a8.7,8.7,0,0,1,1.017-12.23l.007-.007h0a8.678,8.678,0,0,1,4.476-2v-6.108a.928.928,0,0,0-.924-.924H76.979v.538a.611.611,0,0,1-.611.611H61.925a.611.611,0,0,1-.611-.611V99.19Zm7.34,3.194a.61.61,0,0,1,.985,0q9.71,10.874.119,17.1v1.8a.611.611,0,1,1-1.223,0v-1.8q-9.591-6.229.119-17.1ZM59.223,125.1a.611.611,0,0,1,0-1.223h.186a.611.611,0,0,1,0,1.223Zm2.385,0a.611.611,0,0,1,0-1.223H79.071a.611.611,0,0,1,0,1.223Zm-2.385,4.076a.611.611,0,1,1,0-1.223h.186a.611.611,0,1,1,0,1.223Zm2.385,0a.611.611,0,1,1,0-1.223H79.071a.611.611,0,1,1,0,1.223Z" transform="translate(-36.115 -66.266)" fill="#e6e6e6" fill-rule="evenodd"/>
      <path id="Trazado_1049398" data-name="Trazado 1049398" d="M63.74,99.191H59.287a.922.922,0,0,0-.667.287,21.859,21.859,0,0,0,7.617,13.451q-.49-4.571,4.843-10.544a.61.61,0,0,1,.985,0q8.118,9.092,2.743,14.936a21.826,21.826,0,0,0,2.964.542A8.708,8.708,0,0,1,80.3,108.23l.007-.007h0a8.678,8.678,0,0,1,4.476-2v-6.108a.928.928,0,0,0-.924-.924H79.406v.538a.611.611,0,0,1-.611.611H64.351a.611.611,0,0,1-.611-.611v-.538Z" transform="translate(-38.542 -66.267)" fill="#fff" fill-rule="evenodd"/>
      <path id="Trazado_1049399" data-name="Trazado 1049399" d="M272.9,199.618l.051,0a7.475,7.475,0,0,0,3.989-.85.61.61,0,0,1,.778.181l.267.318a.1.1,0,0,0,.12.011l1.516-1.274h0c.082-.082.1-.085.013-.2l-.257-.306a.609.609,0,0,1-.015-.765l0,0a7.489,7.489,0,1,0-11.692.191.592.592,0,0,1,.07.084,7.489,7.489,0,0,0,5.161,2.607Zm-3.832-11.9a6.266,6.266,0,1,1,0,8.862A6.266,6.266,0,0,1,269.066,187.722Z" transform="translate(-226.028 -143.557)" fill="#f2aa24" fill-rule="evenodd"/>
      <path id="Trazado_1049400" data-name="Trazado 1049400" d="M280.831,190.947a7.492,7.492,0,1,0-14.208,4.32q.553.028,1.114.028c.112,0,.223,0,.334,0a6.267,6.267,0,1,1,11.677-3.585q.554-.364,1.084-.759Z" transform="translate(-226.028 -143.558)" fill="#ffc447" fill-rule="evenodd"/>
      <path id="Trazado_1049401" data-name="Trazado 1049401" d="M59.017,99.008v7.9a2.151,2.151,0,0,1-2.146,2.146H32.3a2.151,2.151,0,0,1-2.146-2.146V75.555A2.151,2.151,0,0,1,32.3,73.409h4.453V72.032H32.3a3.535,3.535,0,0,0-3.523,3.523v31.354a3.535,3.535,0,0,0,3.523,3.523H56.871a3.535,3.535,0,0,0,3.523-3.523V98.89A8.719,8.719,0,0,1,59.017,99.008Z" transform="translate(-11.553 -41.707)" fill="#6db2e3" fill-rule="evenodd"/>
      <path id="Trazado_1049402" data-name="Trazado 1049402" d="M56.108,73.576a2.13,2.13,0,0,1,.83-.168h4.453V72.032H56.938a3.5,3.5,0,0,0-.915.122q.02.717.085,1.422Z" transform="translate(-36.193 -41.707)" fill="#8cccfe" fill-rule="evenodd"/>
      <path id="Trazado_1049403" data-name="Trazado 1049403" d="M275.834,73.409h4.453a2.151,2.151,0,0,1,2.146,2.146v6.031a8.7,8.7,0,0,1,1.376.118V75.556a3.535,3.535,0,0,0-3.523-3.523h-4.453V73.41Z" transform="translate(-234.97 -41.708)" fill="#8cccfe" fill-rule="evenodd"/>
      <path id="Trazado_1049404" data-name="Trazado 1049404" d="M128.2,40.718h-3.3V44.4h13.221V40.718h-3.3v0a.609.609,0,0,1-.6-.5c-.243-1.347-2.916-2.066-4.594-1.037a1.671,1.671,0,0,0-.816,1A.611.611,0,0,1,128.2,40.718Z" transform="translate(-98.48 -11.554)" fill="#5aa1d8" fill-rule="evenodd"/>
      <circle id="Elipse_12111" data-name="Elipse 12111" cx="5.044" cy="5.044" r="5.044" transform="translate(42.424 43.552)" fill="#96c9f2"/>
      <g id="Grupo_1181896" data-name="Grupo 1181896" transform="translate(28.981 38.139)">
        <path id="Trazado_1049405" data-name="Trazado 1049405" d="M297.182,210.258a5.044,5.044,0,0,0-4,8.114,21.752,21.752,0,0,0,9.037-2.774c.006-.1.009-.2.009-.3A5.044,5.044,0,0,0,297.182,210.258Z" transform="translate(-278.695 -204.845)" fill="#b9e0ff" fill-rule="evenodd"/>
        <path id="Trazado_1049406" data-name="Trazado 1049406" d="M202.843,193.631l-2.474,2.474v2.825l3.221-3.221a10.744,10.744,0,0,0-.747-2.078Z" transform="translate(-195.708 -189.809)" fill="#5cab45" fill-rule="evenodd"/>
        <path id="Trazado_1049407" data-name="Trazado 1049407" d="M157.157,196.1l-2.474-2.474a10.745,10.745,0,0,0-.747,2.078l3.221,3.221Z" transform="translate(-153.718 -189.808)" fill="#5cab45" fill-rule="evenodd"/>
        <path id="Trazado_1049408" data-name="Trazado 1049408" d="M167.983,156.38l1.877,1.877V153.69a21.786,21.786,0,0,0-1.877,2.69Z" transform="translate(-166.421 -153.69)" fill="#5cab45" fill-rule="evenodd"/>
        <path id="Trazado_1049409" data-name="Trazado 1049409" d="M200.368,158.255l1.876-1.877a21.785,21.785,0,0,0-1.876-2.69v4.567Z" transform="translate(-195.707 -153.688)" fill="#5cab45" fill-rule="evenodd"/>
        <path id="Trazado_1049410" data-name="Trazado 1049410" d="M203.8,231.182l-3.434,3.434v2.748Q203.934,234.741,203.8,231.182Z" transform="translate(-195.707 -223.766)" fill="#4c9137" fill-rule="evenodd"/>
        <path id="Trazado_1049411" data-name="Trazado 1049411" d="M203.8,231.182l-3.434,3.434v1.214q.625.248,1.269.457A6.642,6.642,0,0,0,203.8,231.182Z" transform="translate(-195.707 -223.766)" fill="#5cab45" fill-rule="evenodd"/>
        <path id="Trazado_1049412" data-name="Trazado 1049412" d="M155.1,234.616l-3.434-3.434q-.132,3.559,3.434,6.182Z" transform="translate(-151.658 -223.766)" fill="#4c9137" fill-rule="evenodd"/>
        <path id="Trazado_1049413" data-name="Trazado 1049413" d="M155.1,234.616l-3.434-3.434a6.275,6.275,0,0,0,.352,2.353A21.877,21.877,0,0,0,155.1,235.3Z" transform="translate(-151.658 -223.766)" fill="#5cab45" fill-rule="evenodd"/>
        <path id="Trazado_1049414" data-name="Trazado 1049414" d="M424.15,359.612l-2.013,1.689h0a.113.113,0,0,0-.011.15h0l3.544,4.211a.469.469,0,0,0,.649.054l1.475-1.237h0a.465.465,0,0,0,.052-.645h0l-3.543-4.21A.115.115,0,0,0,424.15,359.612Z" transform="translate(-396.223 -339.885)" fill="#f2aa24" fill-rule="evenodd"/>
        <path id="Trazado_1049415" data-name="Trazado 1049415" d="M405.488,338.574l1.008-.846L405,335.964l-1.008.847Z" transform="translate(-379.847 -318.522)" fill="#f2aa24" fill-rule="evenodd"/>
      </g>
    </g>
  </g>
</svg>
