<svg xmlns="http://www.w3.org/2000/svg" xmlns:xlink="http://www.w3.org/1999/xlink" width="400" height="388" viewBox="0 0 400 388">
  <defs>
    <clipPath id="clip-path">
      <rect id="Rectángulo_407555" data-name="Rectángulo 407555" width="278.041" height="227.588" fill="none"/>
    </clipPath>
  </defs>
  <g id="Grupo_1181900" data-name="Grupo 1181900" transform="translate(-285 -4458)">
    <rect id="Rectángulo_407453" data-name="Rectángulo 407453" width="400" height="388" transform="translate(285 4458)" fill="#2c82b7"/>
    <g id="Grupo_1181783" data-name="Grupo 1181783" transform="translate(0 -12.497)">
      <g id="Grupo_1181782" data-name="Grupo 1181782" transform="translate(337.943 4533.898)">
        <g id="Grupo_1181781" data-name="Grupo 1181781" transform="translate(0 0)" clip-path="url(#clip-path)">
          <rect id="Rectángulo_407548" data-name="Rectángulo 407548" width="266.209" height="193.769" rx="45" transform="translate(10.07 27.517)" fill="#cfe7ff"/>
          <path id="Trazado_1048951" data-name="Trazado 1048951" d="M263.6,54.64a23.152,23.152,0,0,0-12.065-4.679c-5.36-.371-10.4.469-14.889,3.6-1.278.889-2.619,1.692-3.935,2.532a10.29,10.29,0,0,1-5.9,1.583c-2.829-.068-5.13-1.352-7.364-2.91a23.806,23.806,0,0,0-8.833-4.271c-5.031-1.013-10.006-1-14.725,1.136a59.388,59.388,0,0,0-6.251,3.71,13.036,13.036,0,0,1-7.177,2.35,12.828,12.828,0,0,1-7.362-2.912,23.146,23.146,0,0,0-12.133-4.8c-5.362-.388-10.416.367-14.918,3.488-1.312.911-2.685,1.753-4.04,2.6a10.026,10.026,0,0,1-5.644,1.577v0c-3.067.185-5.506-1.367-7.792-3.008A23.153,23.153,0,0,0,118.5,49.96c-5.36-.371-10.4.469-14.889,3.6-1.272.889-2.621,1.692-3.933,2.532a10.29,10.29,0,0,1-5.9,1.583c-2.83-.068-5.131-1.352-7.37-2.91a23.792,23.792,0,0,0-8.833-4.271c-5.029-1.013-10.006-1-14.725,1.136a59.006,59.006,0,0,0-6.251,3.71,13.051,13.051,0,0,1-7.177,2.35,12.833,12.833,0,0,1-7.362-2.912,23.134,23.134,0,0,0-12.138-4.8c-5.356-.388-10.412.367-14.908,3.488-1.316.911-2.687,1.753-4.042,2.6a10.035,10.035,0,0,1-5.648,1.577V128.6a48.3,48.3,0,0,0,48.3,48.294H223.241A48.293,48.293,0,0,0,271.535,128.6V57.646c-3.139.248-5.613-1.339-7.939-3.006" transform="translate(4.744 44.392)" fill="#6e99c4"/>
          <path id="Trazado_1048952" data-name="Trazado 1048952" d="M271.591,91.278c-3.137.248-5.615-1.339-7.935-3.006a23.165,23.165,0,0,0-12.068-4.679c-5.36-.371-10.4.469-14.889,3.6-1.274.887-2.617,1.692-3.935,2.53a10.288,10.288,0,0,1-5.9,1.584c-2.829-.068-5.129-1.352-7.368-2.91a23.743,23.743,0,0,0-8.835-4.271c-5.027-1.015-10.006-1-14.725,1.136a59.157,59.157,0,0,0-6.249,3.708,13.059,13.059,0,0,1-7.177,2.354,12.836,12.836,0,0,1-7.359-2.914,23.186,23.186,0,0,0-12.138-4.8c-5.356-.386-10.416.369-14.91,3.492-1.32.909-2.685,1.751-4.044,2.6a10.024,10.024,0,0,1-5.646,1.577v0c-3.069.187-5.508-1.369-7.788-3.008a23.159,23.159,0,0,0-12.065-4.679c-5.358-.371-10.4.469-14.891,3.6-1.274.887-2.619,1.692-3.936,2.53a10.28,10.28,0,0,1-5.9,1.584c-2.828-.068-5.131-1.352-7.368-2.91a23.69,23.69,0,0,0-8.83-4.271c-5.031-1.015-10.006-1-14.729,1.136a59.54,59.54,0,0,0-6.249,3.708,13.064,13.064,0,0,1-7.177,2.354,12.821,12.821,0,0,1-7.359-2.914,23.186,23.186,0,0,0-12.138-4.8c-5.356-.386-10.418.369-14.914,3.492-1.312.909-2.685,1.751-4.044,2.6a10.014,10.014,0,0,1-5.64,1.577v11.713c.034-.006.07-.008.106-.011A48.277,48.277,0,0,0,53.57,146.939H223.187a48.279,48.279,0,0,0,48.075-43.957c.11,0,.219.009.329.009Z" transform="translate(4.798 74.348)" fill="#6382a8" fill-rule="evenodd"/>
          <path id="Trazado_1048953" data-name="Trazado 1048953" d="M31.238,90.041A2.717,2.717,0,1,1,26.8,86.908L34.11,76.55a2.716,2.716,0,1,1,4.437,3.133Z" transform="translate(23.426 67.16)" fill="#4f6984"/>
          <path id="Trazado_1048954" data-name="Trazado 1048954" d="M34.43,107.919a2.715,2.715,0,1,1-4.437-3.131L37.3,94.431a2.716,2.716,0,0,1,4.437,3.133Z" transform="translate(26.27 83.086)" fill="#4f6984"/>
          <path id="Trazado_1048955" data-name="Trazado 1048955" d="M41.5,88.893a2.365,2.365,0,0,1-3.745-2.643l4.793-6.791A2.365,2.365,0,0,1,46.289,82.1Z" transform="translate(33.393 70.202)" fill="#4f6984"/>
          <path id="Trazado_1048956" data-name="Trazado 1048956" d="M58.056,98.98a2.717,2.717,0,0,1-4.439-3.133l7.311-10.357a2.717,2.717,0,0,1,4.437,3.135Z" transform="translate(47.314 75.122)" fill="#4f6984"/>
          <path id="Trazado_1048957" data-name="Trazado 1048957" d="M41.458,110.484a2.175,2.175,0,1,1-3.555-2.509l5.869-8.317a2.178,2.178,0,1,1,3.56,2.511Z" transform="translate(33.404 87.943)" fill="#4f6984"/>
          <path id="Trazado_1048958" data-name="Trazado 1048958" d="M76.851,88.754c-.571.809-2.1.711-3.407-.214s-1.912-2.329-1.341-3.135l4.814-6.824c.575-.809,2.1-.713,3.407.214s1.912,2.329,1.341,3.137Z" transform="translate(64.031 69.504)" fill="#4f6984"/>
          <path id="Trazado_1048959" data-name="Trazado 1048959" d="M68.91,107.281a2.715,2.715,0,1,1-4.436-3.131l7.311-10.357a2.716,2.716,0,1,1,4.437,3.133Z" transform="translate(56.984 82.518)" fill="#4f6984"/>
          <path id="Trazado_1048960" data-name="Trazado 1048960" d="M51.988,94.511a2.716,2.716,0,1,1-4.437-3.133L54.862,81.02A2.717,2.717,0,0,1,59.3,84.153Z" transform="translate(41.912 71.142)" fill="#4f6984"/>
          <path id="Trazado_1048961" data-name="Trazado 1048961" d="M84.237,98.342A2.717,2.717,0,0,1,79.8,95.209l7.311-10.357a2.718,2.718,0,0,1,4.441,3.135Z" transform="translate(70.635 74.554)" fill="#4f6984"/>
          <path id="Trazado_1048962" data-name="Trazado 1048962" d="M89.988,110.154a2.718,2.718,0,1,1-4.443-3.131l7.311-10.357A2.718,2.718,0,0,1,97.3,99.8Z" transform="translate(75.753 85.076)" fill="#4f6984"/>
          <path id="Trazado_1048963" data-name="Trazado 1048963" d="M30.5,93.4a3.924,3.924,0,1,1-3.925-3.923A3.926,3.926,0,0,1,30.5,93.4" transform="translate(20.172 79.695)" fill="#4f6984"/>
          <path id="Trazado_1048964" data-name="Trazado 1048964" d="M71.861,107.411a2.717,2.717,0,1,1-2.717-2.715,2.718,2.718,0,0,1,2.717,2.715" transform="translate(59.167 93.253)" fill="#4f6984"/>
          <path id="Trazado_1048965" data-name="Trazado 1048965" d="M68.56,89.282a3.321,3.321,0,1,1-3.32-3.32,3.321,3.321,0,0,1,3.32,3.32" transform="translate(55.151 76.567)" fill="#4f6984"/>
          <path id="Trazado_1048966" data-name="Trazado 1048966" d="M82.968,97.8a3.322,3.322,0,1,1-3.322-3.32,3.32,3.32,0,0,1,3.322,3.32" transform="translate(67.982 84.152)" fill="#4f6984"/>
          <path id="Trazado_1048967" data-name="Trazado 1048967" d="M57.74,99.715a3.319,3.319,0,1,1-3.32-3.322,3.318,3.318,0,0,1,3.32,3.322" transform="translate(45.517 85.858)" fill="#4f6984"/>
          <path id="Trazado_1048968" data-name="Trazado 1048968" d="M95.093,91.215A3.018,3.018,0,1,1,92.077,88.2a3.017,3.017,0,0,1,3.016,3.019" transform="translate(79.324 78.557)" fill="#4f6984"/>
          <path id="Trazado_1048969" data-name="Trazado 1048969" d="M84.772,106.808a3.924,3.924,0,1,1-3.921-3.925,3.927,3.927,0,0,1,3.921,3.925" transform="translate(68.517 91.638)" fill="#4f6984"/>
          <path id="Trazado_1048970" data-name="Trazado 1048970" d="M55.855,109.434a2.715,2.715,0,1,1-2.715-2.719,2.715,2.715,0,0,1,2.715,2.719" transform="translate(44.914 95.052)" fill="#4f6984"/>
          <path id="Trazado_1048971" data-name="Trazado 1048971" d="M37.625,107.18a3.019,3.019,0,1,1-3.021-3.019,3.017,3.017,0,0,1,3.021,3.019" transform="translate(28.134 92.777)" fill="#4f6984"/>
          <path id="Trazado_1048972" data-name="Trazado 1048972" d="M27.373,81.938a3.321,3.321,0,1,1-3.322-3.32,3.321,3.321,0,0,1,3.322,3.32" transform="translate(18.465 70.025)" fill="#4f6984"/>
          <path id="Trazado_1048973" data-name="Trazado 1048973" d="M108.5,89.084a2.717,2.717,0,1,1-4.439-3.135l7.311-10.357a2.718,2.718,0,0,1,4.441,3.135Z" transform="translate(92.248 66.307)" fill="#4f6984"/>
          <path id="Trazado_1048974" data-name="Trazado 1048974" d="M99.885,111.752a2.719,2.719,0,0,1-4.443-3.135l7.311-10.355a2.718,2.718,0,0,1,4.441,3.135Z" transform="translate(84.57 86.498)" fill="#4f6984"/>
          <path id="Trazado_1048975" data-name="Trazado 1048975" d="M119.039,92.595a2.717,2.717,0,0,1-4.439-3.133L121.914,79.1a2.717,2.717,0,0,1,4.437,3.135Z" transform="translate(101.633 69.435)" fill="#4f6984"/>
          <path id="Trazado_1048976" data-name="Trazado 1048976" d="M127.981,93.871a2.717,2.717,0,0,1-4.439-3.133l7.309-10.357a2.717,2.717,0,0,1,4.439,3.135Z" transform="translate(109.595 70.573)" fill="#4f6984"/>
          <path id="Trazado_1048977" data-name="Trazado 1048977" d="M112.531,104.786a2.716,2.716,0,0,1-4.436-3.135l7.311-10.359a2.717,2.717,0,0,1,4.437,3.135Z" transform="translate(95.838 80.291)" fill="#4f6984"/>
          <path id="Trazado_1048978" data-name="Trazado 1048978" d="M124.469,109.2a2.717,2.717,0,0,1-4.439-3.133l7.309-10.357a2.717,2.717,0,0,1,4.439,3.135Z" transform="translate(106.468 84.223)" fill="#4f6984"/>
          <path id="Trazado_1048979" data-name="Trazado 1048979" d="M109.037,88.927A3.922,3.922,0,1,1,105.113,85a3.924,3.924,0,0,1,3.923,3.923" transform="translate(90.132 75.713)" fill="#4f6984"/>
          <path id="Trazado_1048980" data-name="Trazado 1048980" d="M111.578,106.595a3.019,3.019,0,1,1-3.019-3.016,3.022,3.022,0,0,1,3.019,3.016" transform="translate(94.004 92.258)" fill="#4f6984"/>
          <path id="Trazado_1048981" data-name="Trazado 1048981" d="M101.006,81.2a3.321,3.321,0,1,1-3.322-3.32,3.322,3.322,0,0,1,3.322,3.32" transform="translate(84.05 69.365)" fill="#4f6984"/>
          <path id="Trazado_1048982" data-name="Trazado 1048982" d="M118.546,101.541a2.113,2.113,0,1,1-2.114-2.114,2.112,2.112,0,0,1,2.114,2.114" transform="translate(101.825 88.56)" fill="#4f6984"/>
          <rect id="Rectángulo_407549" data-name="Rectángulo 407549" width="5.43" height="138.22" transform="translate(139.177 27.408)" fill="#fff"/>
          <path id="Trazado_1048983" data-name="Trazado 1048983" d="M222.5,217.765H55.539A55.6,55.6,0,0,1,0,162.228V66.567A55.6,55.6,0,0,1,55.539,11.028H222.5a55.6,55.6,0,0,1,55.539,55.539v95.66A55.6,55.6,0,0,1,222.5,217.765M55.539,27.031A39.581,39.581,0,0,0,16,66.567v95.66a39.582,39.582,0,0,0,39.537,39.537H222.5a39.582,39.582,0,0,0,39.537-39.537V66.567A39.581,39.581,0,0,0,222.5,27.031Z" transform="translate(0 9.823)" fill="#cad2db"/>
          <path id="Trazado_1048984" data-name="Trazado 1048984" d="M194.334,194.918H55.539A39.581,39.581,0,0,1,16,155.382V59.721A39.415,39.415,0,0,1,29.48,30.066L18.128,18.712A55.4,55.4,0,0,0,0,59.721v95.66a55.6,55.6,0,0,0,55.539,55.539h154.8Z" transform="translate(0 16.667)" fill="#afbcc9"/>
          <rect id="Rectángulo_407550" data-name="Rectángulo 407550" width="8.722" height="50.752" transform="translate(53.065 75.241)" fill="#fff"/>
          <path id="Trazado_1048985" data-name="Trazado 1048985" d="M22.821,65.8h28.55L37.1,78.487Z" transform="translate(20.327 58.607)" fill="#fff"/>
          <rect id="Rectángulo_407551" data-name="Rectángulo 407551" width="8.722" height="50.752" transform="translate(98.441 75.241)" fill="#fff"/>
          <path id="Trazado_1048986" data-name="Trazado 1048986" d="M46.821,65.8h28.55L61.1,78.487Z" transform="translate(41.704 58.607)" fill="#fff"/>
          <rect id="Rectángulo_407552" data-name="Rectángulo 407552" width="8.722" height="50.752" transform="translate(175.329 75.241)" fill="#fff"/>
          <path id="Trazado_1048987" data-name="Trazado 1048987" d="M87.487,65.8h28.55L101.764,78.487Z" transform="translate(77.925 58.607)" fill="#fff"/>
          <rect id="Rectángulo_407553" data-name="Rectángulo 407553" width="19.669" height="76.22" transform="translate(202.943 45.107)" fill="#cad2db"/>
          <rect id="Rectángulo_407554" data-name="Rectángulo 407554" width="8.726" height="50.754" transform="translate(208.416 76.504)" fill="#99a239"/>
          <path id="Trazado_1048988" data-name="Trazado 1048988" d="M104.989,66.468h28.55L119.262,79.156Z" transform="translate(93.514 59.203)" fill="#99a239"/>
          <path id="Trazado_1048989" data-name="Trazado 1048989" d="M88.219,0l16.631,53.331h58.686L179.288,0Z" transform="translate(78.577 0)" fill="#b4bf3a"/>
          <path id="Trazado_1048990" data-name="Trazado 1048990" d="M127.449,37.867,115.642,0H88.219l16.631,53.331h58.686L168.1,37.867Z" transform="translate(78.577 0)" fill="#99a239"/>
          <path id="Trazado_1048991" data-name="Trazado 1048991" d="M136.734,0,120.983,53.331h13.369L150.105,0Z" transform="translate(107.76 0)" fill="#d8de3f"/>
        </g>
      </g>
      <path id="Trazado_1049434" data-name="Trazado 1049434" d="M10.09-4.535a1.69,1.69,0,0,0-.639-1.406A7.938,7.938,0,0,0,7.207-6.984,21.53,21.53,0,0,1,4.582-8.027Q1.266-9.656,1.266-12.5a4.014,4.014,0,0,1,.826-2.5A5.344,5.344,0,0,1,4.43-16.693a9.1,9.1,0,0,1,3.4-.6,7.958,7.958,0,0,1,3.3.656,5.223,5.223,0,0,1,2.268,1.869A4.881,4.881,0,0,1,14.2-12H10.1a2.063,2.063,0,0,0-.639-1.617,2.489,2.489,0,0,0-1.729-.574,2.807,2.807,0,0,0-1.74.486,1.492,1.492,0,0,0-.639,1.236,1.5,1.5,0,0,0,.7,1.189,8.867,8.867,0,0,0,2.473,1.1,15.147,15.147,0,0,1,2.906,1.225A4.884,4.884,0,0,1,14.2-4.559a4.166,4.166,0,0,1-1.687,3.516A7.506,7.506,0,0,1,7.887.234,9.184,9.184,0,0,1,4.131-.51,5.663,5.663,0,0,1,1.6-2.549,5.313,5.313,0,0,1,.75-5.531H4.875A2.617,2.617,0,0,0,5.584-3.51a3.351,3.351,0,0,0,2.3.65A2.647,2.647,0,0,0,9.5-3.3,1.45,1.45,0,0,0,10.09-4.535ZM22.266.234a6.518,6.518,0,0,1-4.723-1.74,6.009,6.009,0,0,1-1.8-4.529v-.328A7.787,7.787,0,0,1,16.459-9.8a5.274,5.274,0,0,1,2.1-2.3,6.35,6.35,0,0,1,3.281-.814,5.489,5.489,0,0,1,4.219,1.658,6.516,6.516,0,0,1,1.547,4.623V-5.1H19.758a2.846,2.846,0,0,0,.926,1.676,2.755,2.755,0,0,0,1.852.609,3.549,3.549,0,0,0,2.93-1.312l1.8,2.133A5.045,5.045,0,0,1,25.178-.369,7.069,7.069,0,0,1,22.266.234Zm-.445-10.1q-1.734,0-2.062,2.3h3.984v-.3a1.956,1.956,0,0,0-.48-1.471A1.912,1.912,0,0,0,21.82-9.867ZM28.7-6.434A7.746,7.746,0,0,1,30-11.18a4.282,4.282,0,0,1,3.633-1.734,3.641,3.641,0,0,1,2.859,1.336V-18h3.961V0H36.9l-.2-1.359A3.739,3.739,0,0,1,33.609.234,4.274,4.274,0,0,1,30.023-1.5,7.991,7.991,0,0,1,28.7-6.434Zm3.949.246q0,3.375,1.969,3.375a1.944,1.944,0,0,0,1.875-1.1V-8.742a1.892,1.892,0,0,0-1.852-1.125q-1.828,0-1.98,2.953ZM46.863,0H42.9V-12.68h3.961Zm-4.2-15.949a1.763,1.763,0,0,1,.609-1.383,2.3,2.3,0,0,1,1.582-.539,2.3,2.3,0,0,1,1.582.539,1.763,1.763,0,0,1,.609,1.383,1.763,1.763,0,0,1-.609,1.383,2.3,2.3,0,0,1-1.582.539,2.3,2.3,0,0,1-1.582-.539A1.763,1.763,0,0,1,42.668-15.949Zm10.359,3.27.129,1.488a4.36,4.36,0,0,1,3.621-1.723A3.21,3.21,0,0,1,60.023-11a4.22,4.22,0,0,1,3.727-1.91q3.855,0,3.961,4.664V0H63.75V-8a2.417,2.417,0,0,0-.328-1.418,1.4,1.4,0,0,0-1.2-.445A1.871,1.871,0,0,0,60.48-8.824l.012.164V0H56.531V-7.98a2.541,2.541,0,0,0-.316-1.441,1.393,1.393,0,0,0-1.207-.445,1.894,1.894,0,0,0-1.734,1.043V0H49.324V-12.68ZM76.1.234a6.518,6.518,0,0,1-4.723-1.74,6.009,6.009,0,0,1-1.8-4.529v-.328A7.787,7.787,0,0,1,70.295-9.8a5.274,5.274,0,0,1,2.1-2.3,6.35,6.35,0,0,1,3.281-.814A5.489,5.489,0,0,1,79.9-11.256a6.516,6.516,0,0,1,1.547,4.623V-5.1H73.594a2.846,2.846,0,0,0,.926,1.676,2.755,2.755,0,0,0,1.852.609A3.549,3.549,0,0,0,79.3-4.125l1.8,2.133A5.045,5.045,0,0,1,79.014-.369,7.069,7.069,0,0,1,76.1.234Zm-.445-10.1q-1.734,0-2.062,2.3h3.984v-.3a1.956,1.956,0,0,0-.48-1.471A1.912,1.912,0,0,0,75.656-9.867Zm11-2.812.129,1.488a4.3,4.3,0,0,1,3.621-1.723,3.618,3.618,0,0,1,2.959,1.184,5.635,5.635,0,0,1,1.014,3.563V0H90.422V-8a2.14,2.14,0,0,0-.387-1.412,1.789,1.789,0,0,0-1.406-.451,1.883,1.883,0,0,0-1.723.914V0H82.957V-12.68Zm14.508-3.152v3.152h2.086v2.742h-2.086v5.8a1.481,1.481,0,0,0,.258,1,1.383,1.383,0,0,0,1.02.281,5.793,5.793,0,0,0,.984-.07V-.105a7.288,7.288,0,0,1-2.227.34,4.137,4.137,0,0,1-3.012-.961,3.939,3.939,0,0,1-.973-2.918V-9.937H95.6V-12.68h1.617v-3.152ZM111.949,0a4.459,4.459,0,0,1-.375-1.137A3.672,3.672,0,0,1,108.527.234,4.5,4.5,0,0,1,105.48-.85a3.45,3.45,0,0,1-1.254-2.725,3.546,3.546,0,0,1,1.523-3.117,7.761,7.761,0,0,1,4.43-1.055H111.4v-.671q0-1.755-1.512-1.755a1.236,1.236,0,0,0-1.406,1.39h-3.949a3.54,3.54,0,0,1,1.564-2.985,6.575,6.575,0,0,1,3.99-1.147,5.764,5.764,0,0,1,3.832,1.184,4.115,4.115,0,0,1,1.441,3.246v5.613A5.748,5.748,0,0,0,115.9-.2V0Zm-2.473-2.578a2.2,2.2,0,0,0,1.225-.316,1.983,1.983,0,0,0,.7-.715V-5.637H110.25q-2.062,0-2.062,1.852a1.131,1.131,0,0,0,.363.873A1.315,1.315,0,0,0,109.477-2.578Zm13.43-.234a1.756,1.756,0,0,0,1.289-.451,1.654,1.654,0,0,0,.445-1.26h3.7A4.384,4.384,0,0,1,126.85-1.1,5.558,5.558,0,0,1,123,.234,5.627,5.627,0,0,1,118.641-1.5a6.834,6.834,0,0,1-1.594-4.8v-.164a7.723,7.723,0,0,1,.709-3.393,5.162,5.162,0,0,1,2.045-2.262,6.1,6.1,0,0,1,3.164-.791,5.488,5.488,0,0,1,3.926,1.371,4.863,4.863,0,0,1,1.453,3.715h-3.7a2.168,2.168,0,0,0-.48-1.512,1.658,1.658,0,0,0-1.289-.527q-1.535,0-1.793,1.957A13.809,13.809,0,0,0,121-6.2a5.424,5.424,0,0,0,.457,2.648A1.582,1.582,0,0,0,122.906-2.812ZM134.18,0h-3.961V-12.68h3.961Zm-4.2-15.949a1.763,1.763,0,0,1,.609-1.383,2.3,2.3,0,0,1,1.582-.539,2.3,2.3,0,0,1,1.582.539,1.763,1.763,0,0,1,.609,1.383,1.763,1.763,0,0,1-.609,1.383,2.3,2.3,0,0,1-1.582.539,2.3,2.3,0,0,1-1.582-.539A1.763,1.763,0,0,1,129.984-15.949Zm6.129,9.492a7.484,7.484,0,0,1,.738-3.381,5.28,5.28,0,0,1,2.121-2.279,6.388,6.388,0,0,1,3.246-.8,5.83,5.83,0,0,1,4.488,1.764,6.768,6.768,0,0,1,1.641,4.8v.141A6.566,6.566,0,0,1,146.7-1.506a5.846,5.846,0,0,1-4.459,1.74,5.912,5.912,0,0,1-4.348-1.623,6.348,6.348,0,0,1-1.77-4.4Zm3.949.246a4.718,4.718,0,0,0,.551,2.578,1.835,1.835,0,0,0,1.629.82q2.109,0,2.156-3.246v-.4q0-3.41-2.18-3.41-1.98,0-2.145,2.941ZM142.758-18h4.172l-3.258,3.68-3.223-.006Zm10.957,5.32.129,1.488a4.3,4.3,0,0,1,3.621-1.723,3.618,3.618,0,0,1,2.959,1.184,5.635,5.635,0,0,1,1.014,3.563V0h-3.961V-8a2.14,2.14,0,0,0-.387-1.412,1.789,1.789,0,0,0-1.406-.451,1.883,1.883,0,0,0-1.723.914V0h-3.949V-12.68Z" transform="translate(399 4789.096)" fill="#fff"/>
    </g>
  </g>
</svg>
