<svg xmlns="http://www.w3.org/2000/svg" width="54" height="54" viewBox="0 0 54 54">
  <g id="Grupo_1181901" data-name="Grupo 1181901" transform="translate(-773 -3166)">
    <path id="Trazado_1049436" data-name="Trazado 1049436" d="M27,0A27,27,0,1,1,0,27,27,27,0,0,1,27,0Z" transform="translate(773 3166)" fill="#37a2e4"/>
    <path id="Trazado_1049435" data-name="Trazado 1049435" d="M5,0H-4.922V-2.148l4.57-4.8Q1.338-8.877,1.338-10.01a2.126,2.126,0,0,0-.4-1.4,1.43,1.43,0,0,0-1.162-.479,1.447,1.447,0,0,0-1.221.64,2.629,2.629,0,0,0-.469,1.6h-3.3a4.67,4.67,0,0,1,.654-2.417A4.588,4.588,0,0,1-2.744-13.8a5.4,5.4,0,0,1,2.6-.625A5.308,5.308,0,0,1,3.4-13.359,3.8,3.8,0,0,1,4.648-10.3a4.439,4.439,0,0,1-.312,1.636A7.173,7.173,0,0,1,3.364-7,24.477,24.477,0,0,1,1.24-4.658L-.6-2.539H5Z" transform="translate(800 3200)" fill="#fff"/>
  </g>
</svg>
