<svg xmlns="http://www.w3.org/2000/svg" width="54" height="54" viewBox="0 0 54 54">
  <g id="Grupo_1181902" data-name="Grupo 1181902" transform="translate(-983 -3166)">
    <path id="Trazado_1049438" data-name="Trazado 1049438" d="M27,0A27,27,0,1,1,0,27,27,27,0,0,1,27,0Z" transform="translate(983 3166)" fill="#37a2e4"/>
    <path id="Trazado_1049437" data-name="Trazado 1049437" d="M-1.914-8.486H-.361a1.614,1.614,0,0,0,1.846-1.807,1.562,1.562,0,0,0-.439-1.147A1.666,1.666,0,0,0-.2-11.885a1.784,1.784,0,0,0-1.138.381,1.162,1.162,0,0,0-.483.947H-5.107a3.369,3.369,0,0,1,.625-2,4.127,4.127,0,0,1,1.733-1.372,5.926,5.926,0,0,1,2.437-.493,5.823,5.823,0,0,1,3.73,1.084,3.6,3.6,0,0,1,1.357,2.979,3,3,0,0,1-.562,1.733A4,4,0,0,1,2.578-7.3,3.823,3.823,0,0,1,4.355-6.06,3.279,3.279,0,0,1,5-3.994,3.669,3.669,0,0,1,3.535-.947,6.08,6.08,0,0,1-.312.2,6.306,6.306,0,0,1-2.905-.337,4.062,4.062,0,0,1-4.717-1.812a3.834,3.834,0,0,1-.615-2.144h3.311a1.482,1.482,0,0,0,.527,1.133,1.862,1.862,0,0,0,1.3.479,1.95,1.95,0,0,0,1.387-.483,1.616,1.616,0,0,0,.518-1.235,1.889,1.889,0,0,0-.537-1.523A2.245,2.245,0,0,0-.312-6.035h-1.6Z" transform="translate(1010 3200)" fill="#fff"/>
  </g>
</svg>
