<svg xmlns="http://www.w3.org/2000/svg" xmlns:xlink="http://www.w3.org/1999/xlink" width="110" height="110" viewBox="0 0 110 110">
  <defs>
    <clipPath id="clip-path">
      <rect id="Rectángulo_407322" data-name="Rectángulo 407322" width="110" height="110" transform="translate(800.781 1960)" fill="#37a2e4" opacity="0.47"/>
    </clipPath>
    <filter id="Trazado_1047969" x="5" y="-4.866" width="90.453" height="115.636" filterUnits="userSpaceOnUse">
      <feOffset dy="3" input="SourceAlpha"/>
      <feGaussianBlur stdDeviation="3" result="blur"/>
      <feFlood flood-opacity="0.161"/>
      <feComposite operator="in" in2="blur"/>
      <feComposite in="SourceGraphic"/>
    </filter>
  </defs>
  <g id="Grupo_1181872" data-name="Grupo 1181872" transform="translate(-742 -666)">
    <g id="Enmascarar_grupo_1098925" data-name="Enmascarar grupo 1098925" transform="translate(-58.781 -1294)" clip-path="url(#clip-path)">
      <g id="Grupo_1181494" data-name="Grupo 1181494" transform="translate(-1 -1)">
        <g id="Grupo_1181492" data-name="Grupo 1181492" transform="translate(815.781 1961)">
          <g id="Grupo_1181491" data-name="Grupo 1181491" transform="translate(0 0)">
            <path id="Trazado_1047968" data-name="Trazado 1047968" d="M127.429,109.916c-22.489,0-40.784-16.31-40.784-36.359S124.352,2.836,125.959.662a1.964,1.964,0,0,1,2.941,0c1.607,2.173,39.31,53.434,39.31,72.895s-18.3,36.359-40.784,36.359Z" transform="translate(-86.645 0)" fill="#54eabd"/>
            <g transform="matrix(1, 0, 0, 1, -14, 0)" filter="url(#Trazado_1047969)">
              <path id="Trazado_1047969-2" data-name="Trazado 1047969" d="M122.873,97.636c-19.977,0-36.228-14.488-36.228-32.3S120.139,2.519,121.567.588a1.745,1.745,0,0,1,2.613,0C125.607,2.519,159.1,48.053,159.1,65.34s-16.252,32.3-36.228,32.3Z" transform="translate(-72.64 1.13)" fill="#54eabd" opacity="0.9"/>
            </g>
          </g>
        </g>
      </g>
    </g>
    <g id="biochemist_2317919" transform="translate(771 696)">
      <path id="Trazado_1049094" data-name="Trazado 1049094" d="M40.656,43.557V42.3A5.1,5.1,0,0,0,37.247,41h-1.7s-.852,5.115-2.557,7.672l-5.115-3.41-5.115,3.41C21.05,46.115,20.2,41,20.2,41H17.64a4.263,4.263,0,0,0-4.262,4.262v6.82L11.672,41H4L6.557,58.05H37.246a1.7,1.7,0,0,1-1.574-2.361Z" transform="translate(-2.295 -8.054)" fill="#fff"/>
      <path id="Trazado_1049095" data-name="Trazado 1049095" d="M9,26h5.115V37.082H9Z" transform="translate(-3.033 -5.841)" fill="#71caf0"/>
      <g id="Grupo_1181841" data-name="Grupo 1181841" transform="translate(12.787 6.519)">
        <path id="Trazado_1049096" data-name="Trazado 1049096" d="M44.279,24.262a2.131,2.131,0,0,0,0-4.262H43v4.262Z" transform="translate(-20.835 -11.475)" fill="#fce0b9"/>
        <path id="Trazado_1049097" data-name="Trazado 1049097" d="M19.131,20a2.131,2.131,0,1,0,0,4.262H20.41V20Z" transform="translate(-17 -11.475)" fill="#fce0b9"/>
        <path id="Trazado_1049098" data-name="Trazado 1049098" d="M38.131,12.374a3.775,3.775,0,0,0-5.7-1.67,3.775,3.775,0,0,1-4.2.13l-.373-.233a3.775,3.775,0,0,0-5.643,2.208L21,18.525v5.967h.043a9.373,9.373,0,0,0,18.67,0h.043V18.525Z" transform="translate(-17.59 -10)" fill="#fce0b9"/>
      </g>
      <path id="Trazado_1049099" data-name="Trazado 1049099" d="M9,39v3.41a2.557,2.557,0,1,0,5.115,0V39Z" transform="translate(-3.033 -7.759)" fill="#78af4f"/>
      <path id="Trazado_1049100" data-name="Trazado 1049100" d="M57.916,53.919l-1.959-4.771-3.021-7.36V31.557h.426a1.279,1.279,0,0,0,0-2.557H45.686a1.279,1.279,0,0,0,0,2.557h.426v10.23L41.129,53.919A1.7,1.7,0,0,0,42.7,56.28h13.64A1.7,1.7,0,0,0,57.916,53.919Z" transform="translate(-7.752 -6.284)" fill="#71caf0"/>
      <path id="Trazado_1049101" data-name="Trazado 1049101" d="M8.115,39.94V34.41h.852a1.7,1.7,0,0,0,0-3.41H3.852A.853.853,0,0,0,3,31.852L4.116,39.94Z" transform="translate(-2.148 -6.579)" fill="#fce0b9"/>
      <path id="Trazado_1049102" data-name="Trazado 1049102" d="M27.717,9.621l.373.233a3.775,3.775,0,0,0,4.2-.13,3.775,3.775,0,0,1,5.7,1.67l1.624,6.151-.355-8.5a6.731,6.731,0,0,0-9.3-5.137L25.967,5.61A5.967,5.967,0,0,0,20,11.577l.852,5.967,1.222-5.716A3.775,3.775,0,0,1,27.717,9.621Z" transform="translate(-4.655 -2.501)" fill="#665642"/>
      <path id="Trazado_1049103" data-name="Trazado 1049103" d="M32,22.557a3.41,3.41,0,0,0,3.41,3.41h4.262a1.7,1.7,0,0,0,1.7-1.7V20H32Zm4.262-.852a.852.852,0,1,1-.852.852A.853.853,0,0,1,36.262,21.7Z" transform="translate(-6.425 -4.956)" fill="#71caf0"/>
      <circle id="Elipse_12071" data-name="Elipse 12071" cx="0.852" cy="0.852" r="0.852" transform="translate(28.985 16.749)" fill="#fff"/>
      <path id="Trazado_1049104" data-name="Trazado 1049104" d="M22.7,25.967h4.262a3.41,3.41,0,0,0,3.41-3.41V20H21v4.262A1.7,1.7,0,0,0,22.7,25.967Zm3.41-4.262a.852.852,0,1,1-.852.852A.853.853,0,0,1,26.115,21.7Z" transform="translate(-4.803 -4.956)" fill="#71caf0"/>
      <circle id="Elipse_12072" data-name="Elipse 12072" cx="0.852" cy="0.852" r="0.852" transform="translate(20.46 16.749)" fill="#fff"/>
      <path id="Trazado_1049105" data-name="Trazado 1049105" d="M51,37.7v3.41a1.7,1.7,0,0,0,1.7,1.7h3.412a.853.853,0,0,0,.852-.852V36.852A.853.853,0,0,0,56.115,36H52.7A1.7,1.7,0,0,0,51,37.7Z" transform="translate(-9.227 -7.316)" fill="#fce0b9"/>
      <path id="Trazado_1049106" data-name="Trazado 1049106" d="M12,32.7a1.7,1.7,0,0,0,1.7,1.7h2.557a.853.853,0,0,0,.852-.852v-1.7A.853.853,0,0,0,16.262,31H13.7A1.7,1.7,0,0,0,12,32.7Z" transform="translate(-3.475 -6.579)" fill="#fce0b9"/>
      <path id="Trazado_1049107" data-name="Trazado 1049107" d="M49.115,36.7a1.7,1.7,0,0,0-1.7-1.7H44.852a.853.853,0,0,0-.852.852v1.7a.853.853,0,0,0,.852.852H47.41A1.7,1.7,0,0,0,49.115,36.7Z" transform="translate(-8.195 -7.169)" fill="#fce0b9"/>
      <circle id="Elipse_12073" data-name="Elipse 12073" cx="1.705" cy="1.705" r="1.705" transform="translate(43.477 13.339)" fill="#fca947"/>
      <circle id="Elipse_12074" data-name="Elipse 12074" cx="1.705" cy="1.705" r="1.705" transform="translate(40.92 3.961)" fill="#fca947"/>
      <path id="Trazado_1049108" data-name="Trazado 1049108" d="M49.894,52.464a5.481,5.481,0,0,0-4.482-.727l-2.277.621-2.008,4.887A1.706,1.706,0,0,0,42.7,59.605h13.64a1.7,1.7,0,0,0,1.574-2.361l-1.959-4.771A5.48,5.48,0,0,1,49.894,52.464Z" transform="translate(-7.752 -9.609)" fill="#fca947"/>
      <path id="Trazado_1049109" data-name="Trazado 1049109" d="M42.7,59.737H52.9l-.474-.187a20.322,20.322,0,0,1-9.1-7.114l-.192.052-2.008,4.887A1.705,1.705,0,0,0,42.7,59.737Z" transform="translate(-7.752 -9.741)" fill="#e68f29"/>
      <path id="Trazado_1049110" data-name="Trazado 1049110" d="M31.262,36.823A9.325,9.325,0,0,1,27,35.8V39.38L31.262,44.5l4.262-5.115V35.8A9.325,9.325,0,0,1,31.262,36.823Z" transform="translate(-5.688 -7.286)" fill="#fce0b9"/>
      <path id="Trazado_1049111" data-name="Trazado 1049111" d="M25.967,7.013l3.984-1.708a6.731,6.731,0,0,1,9.3,5.137l.286,6.837.069.265-.355-8.5a6.731,6.731,0,0,0-9.3-5.137L25.967,5.61A5.967,5.967,0,0,0,20,11.577l.073.514A5.964,5.964,0,0,1,25.967,7.013Z" transform="translate(-4.655 -2.501)" fill="#735f47"/>
      <path id="Trazado_1049112" data-name="Trazado 1049112" d="M28.842,36.414l5.3,4.949L35.8,39.38V35.8a9.255,9.255,0,0,1-6.955.616Z" transform="translate(-5.959 -7.286)" fill="#f5cba1"/>
      <path id="Trazado_1049113" data-name="Trazado 1049113" d="M38.11,41s-.852,5.115-2.557,7.672l-.062-.042c-.009.013-.016.029-.025.042l-5.071-3.381,0,0s-5.086,3.351-5.095,3.338l-.061.041-.1-.3a26.032,26.032,0,0,1-2.365-7.324c0-.028-.008-.046-.008-.046h-1.36c.494,2.512,1.313,6.936,2.708,9.436a.856.856,0,0,0,1.224.3l5.013-3.342,5.013,3.342a.857.857,0,0,0,1.224-.3c1.4-2.5,2.489-6.924,3.043-9.436H38.11Z" transform="translate(-4.862 -8.054)" fill="#ccc"/>
      <path id="Trazado_1049114" data-name="Trazado 1049114" d="M39.672,40.557,36.262,38v1.7L32,44.82l5.115,3.41C38.82,45.672,39.672,40.557,39.672,40.557Z" transform="translate(-6.425 -7.611)" fill="#fff"/>
      <path id="Trazado_1049115" data-name="Trazado 1049115" d="M26.41,38,23,40.557s.852,5.115,2.557,7.672l5.115-3.41L26.41,39.7Z" transform="translate(-5.098 -7.611)" fill="#fff"/>
      <path id="Trazado_1049116" data-name="Trazado 1049116" d="M11.557,43.557A2.557,2.557,0,0,1,9,41v1.7a2.557,2.557,0,1,0,5.115,0V41A2.557,2.557,0,0,1,11.557,43.557Z" transform="translate(-3.033 -8.054)" fill="#619c35"/>
      <path id="Trazado_1049117" data-name="Trazado 1049117" d="M26.742,24.234a1.492,1.492,0,1,1,1.492-1.492A1.494,1.494,0,0,1,26.742,24.234Zm0-1.7a.213.213,0,0,0-.213.213c0,.234.426.234.426,0A.213.213,0,0,0,26.742,22.529Z" transform="translate(-5.429 -5.14)"/>
      <path id="Trazado_1049118" data-name="Trazado 1049118" d="M36.742,24.234a1.492,1.492,0,1,1,1.492-1.492A1.494,1.494,0,0,1,36.742,24.234Zm0-1.7a.213.213,0,0,0-.213.213c0,.234.426.234.426,0A.213.213,0,0,0,36.742,22.529Z" transform="translate(-6.905 -5.14)"/>
      <path id="Trazado_1049119" data-name="Trazado 1049119" d="M31.447,33.2a3.2,3.2,0,0,1-3.2-3.2h1.279a1.918,1.918,0,1,0,3.836,0h1.279A3.2,3.2,0,0,1,31.447,33.2Z" transform="translate(-5.872 -6.431)"/>
      <path id="Trazado_1049120" data-name="Trazado 1049120" d="M5.419,52.466a.851.851,0,0,0,.844.736H50.591a2.557,2.557,0,0,0,2.361-3.537l-4.5-10.955h.432a1.707,1.707,0,0,0,1.7-1.7V31.889a1.707,1.707,0,0,0-1.7-1.7h-.851V28.437a2.131,2.131,0,0,0-.426-4.22H39.934a2.131,2.131,0,0,0-.426,4.22v.9h-.851a1.707,1.707,0,0,0-1.7,1.7v1.7a1.707,1.707,0,0,0,1.7,1.7h.851v.578a5.958,5.958,0,0,0-2.556-.578H35.531L32.69,32.316v-.958A10.227,10.227,0,0,0,37.8,22.511h.426a2.983,2.983,0,1,0,0-5.967H37.77l-.321-7.689a.752.752,0,0,0-.01-.1A7.584,7.584,0,0,0,26.96,2.971L23.132,4.612a6.827,6.827,0,0,0-6.639,6.817.826.826,0,0,0,.009.121l.714,4.994h-.3a2.984,2.984,0,1,0,0,5.967h.426a10.228,10.228,0,0,0,5.115,8.846v.957l-2.841,2.131H18.2a5.945,5.945,0,0,0-4.262,1.8v-5.21h.852a1.707,1.707,0,0,0,1.7-1.7v-1.7a1.707,1.707,0,0,0-1.7-1.7h-.852v-3.41a.852.852,0,0,0-.852-.852H7.967a.852.852,0,0,0-.852.852v3.41H3.7a1.707,1.707,0,0,0-1.7,1.7.761.761,0,0,0,.009.117ZM51.3,51.117a.837.837,0,0,1-.708.379H36.951a.853.853,0,0,1-.786-1.184l1.848-4.5,1.873-.511a4.628,4.628,0,0,1,3.783.615,6.291,6.291,0,0,0,6.107.5l1.6,3.9A.834.834,0,0,1,51.3,51.117ZM48.889,37H45.476a.853.853,0,0,1-.852-.852v-3.41a.853.853,0,0,1,.852-.852h3.412Zm-8.528-10.23h-.426a.426.426,0,1,1,0-.852H47.61a.426.426,0,0,1,0,.852H43.772v1.7h2.559v1.7h-.856a2.545,2.545,0,0,0-1.87.824,2.552,2.552,0,0,0-2.391-1.677h0v-1.7a.852.852,0,0,0-.852-.852Zm-1.7,4.262h2.557a.852.852,0,1,1,0,1.7H38.657Zm2.557,3.41a2.538,2.538,0,0,0,1.7-.664v2.369a2.561,2.561,0,0,0,2.557,2.557h1.137l2.518,6.135a4.62,4.62,0,0,1-4.516-.345,6.343,6.343,0,0,0-5.178-.841l-.607.165,2.318-5.643a.844.844,0,0,0,.064-.324v-3.41Zm-1.707,2.579v.663L34.589,49.661a2.553,2.553,0,0,0-.051,1.836H28.427V41.154l3.789,2.527a.854.854,0,0,0,1.182-.236c1.414-2.122,2.251-5.76,2.556-7.293h1A4.24,4.24,0,0,1,39.508,37.026Zm-5.2-1.361a25.962,25.962,0,0,1-1.9,6.1l-3.574-2.382,3.655-4.386a.854.854,0,0,0,.2-.546ZM19.05,18.249h7.672v1.7a2.561,2.561,0,0,1-2.557,2.557H19.9a.853.853,0,0,1-.852-.852Zm.2-1.7.991-4.638A2.923,2.923,0,0,1,24.61,10.2l.373.233a4.614,4.614,0,0,0,5.142-.159,2.922,2.922,0,0,1,4.393,1.248l1.327,5.027H19.251Zm9.176,1.7H36.1v3.41a.853.853,0,0,1-.852.852H30.985a2.561,2.561,0,0,1-2.557-2.557ZM39.51,19.528a1.28,1.28,0,0,1-1.279,1.279H37.8V18.249h.426A1.28,1.28,0,0,1,39.51,19.528ZM23.312,6.315a.84.84,0,0,0,.336-.069l3.984-1.708a5.88,5.88,0,0,1,8.116,4.441l.055,1.3a4.63,4.63,0,0,0-6.668-1.4,2.915,2.915,0,0,1-3.248.1l-.373-.233A4.625,4.625,0,0,0,18.585,11.5l-.222,1.034L18.2,11.372A5.121,5.121,0,0,1,23.312,6.315ZM16.919,20.807a1.279,1.279,0,1,1,0-2.557h.426v2.557Zm2.286,3.3a2.521,2.521,0,0,0,.7.109h4.262a4.247,4.247,0,0,0,3.41-1.731,4.247,4.247,0,0,0,3.41,1.731h4.262a2.521,2.521,0,0,0,.7-.109,8.52,8.52,0,0,1-16.74,0Zm8.37,8.634a10.163,10.163,0,0,0,3.41-.6v1.993l-3.41,4.092-3.41-4.092V32.145A10.163,10.163,0,0,0,27.575,32.742Zm-5.115,1.7a.856.856,0,0,0,.2.546l3.655,4.386-3.574,2.382a25.933,25.933,0,0,1-1.9-6.1ZM13.082,47.234a.852.852,0,0,0,.852-.852V40.414A4.267,4.267,0,0,1,18.2,36.152h1c.305,1.533,1.141,5.171,2.556,7.293a.853.853,0,0,0,1.182.236l3.789-2.527V51.5H19.9v-3.41H18.2V51.5H7L4.946,36.567H7.115V37a3.413,3.413,0,0,0,3.41,3.41,3.37,3.37,0,0,0,1.73-.488c-.013.161-.025.323-.025.488v5.115h-1.7v1.7ZM8.82,34.447h3.41V37a1.7,1.7,0,1,1-3.41,0Zm3.41-1.7H8.82v-1.7a2.541,2.541,0,0,0,1.7-.665,2.537,2.537,0,0,0,1.7.665Zm2.559-3.41H12.23a.852.852,0,0,1,0-1.7h2.557ZM8.82,23.364h3.41v2.557a2.541,2.541,0,0,0-1.7.665,2.537,2.537,0,0,0-1.7-.665Zm0,4.262a.852.852,0,0,1,0,1.7H6.262v1.7h.852v3.825h-2.4l-1-7.235Z" transform="translate(-2 -2.353)"/>
      <path id="Trazado_1049121" data-name="Trazado 1049121" d="M54.557,22.115A2.557,2.557,0,1,0,52,19.557,2.561,2.561,0,0,0,54.557,22.115Zm0-3.41a.852.852,0,1,1-.852.852A.853.853,0,0,1,54.557,18.7Z" transform="translate(-9.375 -4.514)"/>
      <path id="Trazado_1049122" data-name="Trazado 1049122" d="M54.115,8.557a2.557,2.557,0,1,0-2.557,2.557A2.561,2.561,0,0,0,54.115,8.557Zm-2.557.852a.852.852,0,1,1,.852-.852A.853.853,0,0,1,51.557,9.41Z" transform="translate(-8.933 -2.891)"/>
    </g>
  </g>
</svg>
