<svg xmlns="http://www.w3.org/2000/svg" xmlns:xlink="http://www.w3.org/1999/xlink" width="110" height="110" viewBox="0 0 110 110">
  <defs>
    <clipPath id="clip-path">
      <rect id="Rectángulo_407634" data-name="Rectángulo 407634" width="110" height="110" transform="translate(800.781 1960)" fill="#37a2e4" opacity="0.47"/>
    </clipPath>
    <filter id="Trazado_1049093" x="5" y="-4.866" width="90.453" height="115.636" filterUnits="userSpaceOnUse">
      <feOffset dy="3" input="SourceAlpha"/>
      <feGaussianBlur stdDeviation="3" result="blur"/>
      <feFlood flood-opacity="0.161"/>
      <feComposite operator="in" in2="blur"/>
      <feComposite in="SourceGraphic"/>
    </filter>
    <clipPath id="clip-path-2">
      <path id="path3390" d="M0-682.665H52.251v52.251H0Z" transform="translate(0 682.665)"/>
    </clipPath>
  </defs>
  <g id="Grupo_1181873" data-name="Grupo 1181873" transform="translate(-1065 -666)">
    <g id="Enmascarar_grupo_1098978" data-name="Enmascarar grupo 1098978" transform="translate(264.219 -1294)" clip-path="url(#clip-path)">
      <g id="Grupo_1181842" data-name="Grupo 1181842" transform="translate(-1 -1)">
        <g id="Grupo_1181840" data-name="Grupo 1181840" transform="translate(815.781 1961)">
          <g id="Grupo_1181839" data-name="Grupo 1181839" transform="translate(0 0)">
            <path id="Trazado_1049092" data-name="Trazado 1049092" d="M127.429,109.916c-22.489,0-40.784-16.31-40.784-36.359S124.352,2.836,125.959.662a1.964,1.964,0,0,1,2.941,0c1.607,2.173,39.31,53.434,39.31,72.895s-18.3,36.359-40.784,36.359Z" transform="translate(-86.645 0)" fill="#54eabd"/>
            <g transform="matrix(1, 0, 0, 1, -14, 0)" filter="url(#Trazado_1049093)">
              <path id="Trazado_1049093-2" data-name="Trazado 1049093" d="M122.873,97.636c-19.977,0-36.228-14.488-36.228-32.3S120.139,2.519,121.567.588a1.745,1.745,0,0,1,2.613,0C125.607,2.519,159.1,48.053,159.1,65.34s-16.252,32.3-36.228,32.3Z" transform="translate(-72.64 1.13)" fill="#54eabd" opacity="0.9"/>
            </g>
          </g>
        </g>
      </g>
    </g>
    <g id="g3384" transform="translate(1091 1377.666)">
      <g id="g3386" transform="translate(0 -682.665)">
        <g id="g3388" clip-path="url(#clip-path-2)">
          <g id="g3394" transform="translate(9.902 55.41)">
            <path id="path3396" d="M-9.235-144.439A.765.765,0,0,1-10-145.2a.765.765,0,0,1,.765-.765c4.47,0,10.963-4.092,10.963-10.5a.765.765,0,0,1,.765-.765.765.765,0,0,1,.765.765C3.259-149.018-4.018-144.439-9.235-144.439Z" transform="translate(10 157.24)"/>
          </g>
          <g id="g3398" transform="translate(24.452 54.493)">
            <path id="path3400" d="M-27.866,17.552a.769.769,0,0,1-.147-.014c-4.675-.911-4.842-6.07-4.99-10.621-.085-2.633-.174-5.356-1.219-6.4-.9-.9-2.4.359-4.6,2.379-1.737,1.6-3.778,3.477-5.742,3.477a3.163,3.163,0,0,1-2.29-1.034c-3.366-3.366-1.611-7.778-.062-11.67.44-1.1.855-2.148,1.134-3.116a.765.765,0,0,1,.948-.523.765.765,0,0,1,.523.948c-.3,1.04-.729,2.117-1.182,3.258-1.441,3.622-2.932,7.367-.278,10.021,1.432,1.432,3.271-.055,5.913-2.487,2.209-2.033,4.713-4.337,6.715-2.335C-31.666.905-31.572,3.8-31.473,6.867c.135,4.174.275,8.491,3.752,9.168a.765.765,0,0,1,.6.9A.766.766,0,0,1-27.866,17.552Z" transform="translate(48.776 10.003)"/>
          </g>
        </g>
      </g>
      <g id="g3402" transform="translate(0 -682.665)">
        <g id="g3404" clip-path="url(#clip-path-2)">
          <g id="g3410" transform="translate(20.92 11.326)">
            <path id="path3412" d="M-256.7-119.133v-9.874H-269v9.874a15.131,15.131,0,0,0-8.981,13.827,15.129,15.129,0,0,0,15.129,15.129,15.129,15.129,0,0,0,15.129-15.129,15.132,15.132,0,0,0-8.981-13.827" transform="translate(277.978 129.008)" fill="#86e0d5"/>
          </g>
          <g id="g3414" transform="translate(23.981 26.328)">
            <path id="path3416" d="M-291.185-104.966A12.08,12.08,0,0,1-303.253-92.9a11.986,11.986,0,0,1-6.015-1.609,12.071,12.071,0,0,1-6.052-10.457,12.081,12.081,0,0,1,3.708-8.7h16.719a12.081,12.081,0,0,1,3.708,8.7" transform="translate(315.319 113.666)" fill="#f7c421"/>
          </g>
          <g id="g3418" transform="translate(20.92 12.857)">
            <path id="path3420" d="M-141.708-100.669V-103.4a2.68,2.68,0,0,1,2.68-2.681h6.851v-2.93h-12.295v8.344a15.13,15.13,0,0,0-8.982,13.827,15.128,15.128,0,0,0,15.022,15.127c-4.55-.105-8.219-6.838-8.219-15.127,0-6.167,2.031-11.471,4.943-13.827" transform="translate(153.453 109.013)" fill="#72cec0"/>
          </g>
          <g id="g3422" transform="translate(23.981 26.328)">
            <path id="path3424" d="M-73.015-231.135a12.071,12.071,0,0,1-6.052-10.457,12.082,12.082,0,0,1,3.707-8.7h1.548a24.354,24.354,0,0,0-1.514,8.7,22.872,22.872,0,0,0,2.311,10.457" transform="translate(79.066 250.293)" fill="#e5ae13"/>
          </g>
          <g id="g3426" transform="translate(1.278 17.755)">
            <path id="path3428" d="M-356.9-311.545l-9.825-17.017v-8.8h-9.337v8.8l-9.825,17.017a4.386,4.386,0,0,0,3.8,6.579H-360.7a4.386,4.386,0,0,0,3.8-6.579" transform="translate(386.487 337.367)" fill="#e6e6e6"/>
          </g>
          <g id="g3430" transform="translate(1.277 17.755)">
            <path id="path3432" d="M-238.37,0h-9.338V8.8l-9.825,17.018a4.385,4.385,0,0,0,3.8,6.578h5.84c-1.533,0-2.491-3.655-1.725-6.578L-245.159,8.8V4.284A1.682,1.682,0,0,1-243.477,2.6h5.107Z" transform="translate(258.127)" fill="#ccc"/>
          </g>
          <g id="g3434" transform="translate(0.51 16.99)">
            <path id="path3436" d="M-252.108-399.387h-5.222a.765.765,0,0,1-.765-.765.765.765,0,0,1,.765-.765h5.222a3.584,3.584,0,0,0,3.135-1.81,3.584,3.584,0,0,0,0-3.62l-9.825-17.018a.766.766,0,0,1-.1-.383v-8.039h-7.807v8.039a.765.765,0,0,1-.1.383l-9.825,17.018a3.584,3.584,0,0,0,0,3.62,3.584,3.584,0,0,0,3.135,1.81h13.107a.765.765,0,0,1,.765.765.765.765,0,0,1-.765.765H-273.5a5.1,5.1,0,0,1-4.461-2.576,5.1,5.1,0,0,1,0-5.151l9.723-16.84v-8.6a.765.765,0,0,1,.765-.765h9.337a.765.765,0,0,1,.765.765v8.6l9.722,16.84a5.1,5.1,0,0,1,0,5.151A5.1,5.1,0,0,1-252.108-399.387Z" transform="translate(278.658 433.319)"/>
          </g>
          <g id="g3438" transform="translate(21.523 12.091)">
            <path id="path3440" d="M-269.33-35.26a.763.763,0,0,1-.318-.07.765.765,0,0,1-.377-1.015,15.912,15.912,0,0,1,7.544-7.7V-51.9a.765.765,0,0,1,.765-.765h12.294a.765.765,0,0,1,.765.765v3.266a.765.765,0,0,1-.765.765.765.765,0,0,1-.765-.765v-2.5h-10.764v7.578a.765.765,0,0,1-.454.7,14.383,14.383,0,0,0-7.229,7.151A.766.766,0,0,1-269.33-35.26Z" transform="translate(270.095 52.667)"/>
          </g>
          <g id="g3442" transform="translate(29.331 18.419)">
            <path id="path3444" d="M-3.285-366.254a15.786,15.786,0,0,1-6.253-1.278.765.765,0,0,1-.4-1,.765.765,0,0,1,1-.4,14.263,14.263,0,0,0,5.65,1.155,14.38,14.38,0,0,0,14.364-14.363,14.385,14.385,0,0,0-8.527-13.128.765.765,0,0,1-.454-.7v-2.016a.765.765,0,0,1,.765-.765.765.765,0,0,1,.765.765v1.528a15.919,15.919,0,0,1,8.982,14.316A15.912,15.912,0,0,1-3.285-366.254Z" transform="translate(10.003 398.756)"/>
          </g>
          <g id="g3446" transform="translate(8.311 13.775)">
            <path id="path3448" d="M-194.345-24.01a1.99,1.99,0,0,1-1.99,1.99h-12.128a1.985,1.985,0,0,1-1.407-.583,1.985,1.985,0,0,1-.583-1.407,1.99,1.99,0,0,1,1.99-1.99h12.128a1.985,1.985,0,0,1,1.407.583,1.985,1.985,0,0,1,.583,1.407" transform="translate(210.453 26)" fill="#ccc"/>
          </g>
          <g id="g3450" transform="translate(13.137 13.775)">
            <path id="path3452" d="M-136.118-24.01a1.99,1.99,0,0,1-1.99,1.99h-7.3a1.983,1.983,0,0,1-1.407-.583,1.985,1.985,0,0,1-.583-1.407A1.99,1.99,0,0,1-145.41-26h7.3a1.985,1.985,0,0,1,1.407.583,1.985,1.985,0,0,1,.583,1.407" transform="translate(147.4 26)" fill="#e6e6e6"/>
          </g>
          <g id="g3454" transform="translate(7.546 13.01)">
            <path id="path3456" d="M-191.694-10h12.128a2.758,2.758,0,0,1,2.755,2.755,2.758,2.758,0,0,1-2.755,2.755h-12.128a2.758,2.758,0,0,1-2.755-2.755A2.758,2.758,0,0,1-191.694-10Zm12.128,3.98a1.226,1.226,0,0,0,1.225-1.225,1.226,1.226,0,0,0-1.225-1.225h-12.128a1.226,1.226,0,0,0-1.225,1.225,1.226,1.226,0,0,0,1.225,1.225Z" transform="translate(194.449 10)"/>
          </g>
          <g id="g3458" transform="translate(26.641 8.877)">
            <path id="path3460" d="M-229.03-24.01a1.99,1.99,0,0,1-1.99,1.99h-15a1.983,1.983,0,0,1-1.407-.583,1.985,1.985,0,0,1-.583-1.407,1.99,1.99,0,0,1,1.99-1.99h15a1.985,1.985,0,0,1,1.407.583,1.985,1.985,0,0,1,.583,1.407" transform="translate(248.013 26)" fill="#72cec0"/>
          </g>
          <g id="g3462" transform="translate(31.291 8.877)">
            <path id="path3464" d="M-172.921-24.01a1.99,1.99,0,0,1-1.99,1.99h-10.352a1.985,1.985,0,0,1-1.407-.583,1.985,1.985,0,0,1-.583-1.407,1.99,1.99,0,0,1,1.99-1.99h10.352a1.985,1.985,0,0,1,1.407.583,1.985,1.985,0,0,1,.583,1.407" transform="translate(187.253 26)" fill="#86e0d5"/>
          </g>
          <g id="g3466" transform="translate(25.875 8.112)">
            <path id="path3468" d="M-133.487-4.489h-15a2.758,2.758,0,0,1-2.755-2.755A2.758,2.758,0,0,1-148.49-10h8.821a.765.765,0,0,1,.765.765.765.765,0,0,1-.765.765h-8.821a1.226,1.226,0,0,0-1.224,1.225A1.226,1.226,0,0,0-148.49-6.02h15a1.226,1.226,0,0,0,1.225-1.225,1.226,1.226,0,0,0-1.225-1.225h-3.12a.765.765,0,0,1-.765-.765.765.765,0,0,1,.765-.765h3.12a2.758,2.758,0,0,1,2.755,2.755A2.758,2.758,0,0,1-133.487-4.489Z" transform="translate(151.245 10)"/>
          </g>
          <g id="g3470" transform="translate(23.544 25.562)">
            <path id="path3472" d="M-90.565-247.022A12.712,12.712,0,0,1-95.474-248a.765.765,0,0,1-.413-1,.765.765,0,0,1,1-.413,11.189,11.189,0,0,0,4.321.86,11.315,11.315,0,0,0,11.3-11.3,11.373,11.373,0,0,0-3.257-7.935H-98.61a11.308,11.308,0,0,0-2.949,5.319.765.765,0,0,1-.922.567.765.765,0,0,1-.567-.922,12.839,12.839,0,0,1,3.593-6.281.765.765,0,0,1,.531-.214H-82.2a.765.765,0,0,1,.531.214,12.909,12.909,0,0,1,3.942,9.251A12.847,12.847,0,0,1-90.565-247.022Z" transform="translate(103.069 269.319)"/>
          </g>
          <g id="g3474" transform="translate(4.338 32.603)">
            <path id="path3476" d="M-287.986-166.85a1.28,1.28,0,0,1-1.146.662h-21.391a1.281,1.281,0,0,1-1.147-.662,1.281,1.281,0,0,1,0-1.324l7.22-12.506h9.245l7.219,12.506a1.28,1.28,0,0,1,0,1.324" transform="translate(311.856 180.68)" fill="#fc5f61"/>
          </g>
          <g id="g3478" transform="translate(4.338 32.603)">
            <path id="path3480" d="M-65.7-132.412a9.073,9.073,0,0,0-.175,3.517h-3.939a1.281,1.281,0,0,1-1.147-.662,1.281,1.281,0,0,1,0-1.324l7.22-12.506h.917Z" transform="translate(71.15 143.386)" fill="#e83842"/>
          </g>
          <g id="g3482" transform="translate(3.573 31.838)">
            <path id="path3484" d="M-219.363-10h9.245a.765.765,0,0,1,.663.383l7.22,12.5a2.042,2.042,0,0,1,0,2.09,2.042,2.042,0,0,1-1.81,1.045h-21.391a2.042,2.042,0,0,1-1.81-1.045,2.042,2.042,0,0,1,0-2.089l7.22-12.5A.765.765,0,0,1-219.363-10Zm8.8,1.531h-8.361l-7,12.122a.513.513,0,0,0,0,.559.513.513,0,0,0,.484.28h21.391a.513.513,0,0,0,.484-.279.513.513,0,0,0,0-.559Z" transform="translate(227.533 10)"/>
          </g>
          <g id="g3486" transform="translate(18.012 40.563)">
            <path id="path3488"/>
          </g>
          <g id="g3490" transform="translate(14.635 9.183)">
            <path id="path3492"/>
          </g>
          <g id="g3494" transform="translate(17.682 6.275)">
            <path id="path3496"/>
          </g>
          <g id="g3498" transform="translate(16.022 1.836)">
            <path id="path3500"/>
          </g>
          <g id="g3502" transform="translate(42.77 30.307)">
            <path id="path3504"/>
          </g>
          <g id="g3506" transform="translate(43.302 35.413)">
            <path id="path3508"/>
          </g>
          <g id="g3510" transform="translate(33.319 41.175)">
            <path id="path3512"/>
          </g>
          <g id="g3514" transform="translate(29.798 34.746)">
            <path id="path3516"/>
          </g>
          <g id="g3518" transform="translate(39.136 32.909)">
            <path id="path3520"/>
          </g>
          <g id="g3522" transform="translate(12.654 42.148)">
            <path id="path3524"/>
          </g>
          <g id="g3526" transform="translate(14.644 37.195)">
            <path id="path3528"/>
          </g>
        </g>
      </g>
    </g>
  </g>
</svg>
