<svg xmlns="http://www.w3.org/2000/svg" width="85" height="104" viewBox="0 0 85 104">
  <g id="Grupo_1181780" data-name="Grupo 1181780" transform="translate(-1230 -1374)">
    <rect id="Rectángulo_407404" data-name="Rectángulo 407404" width="85" height="104" rx="12" transform="translate(1230 1374)" fill="#fde8d1"/>
    <g id="icon1" transform="translate(1236.809 1388.433)">
      <g id="Grupo_1181768" data-name="Grupo 1181768" transform="translate(4.997 10.164)">
        <path id="Trazado_1048904" data-name="Trazado 1048904" d="M23.9,67.158H38.825v52.2a7.462,7.462,0,0,1-14.923,0Z" transform="translate(-22.166 -64.334)" fill="#cee7ff" fill-rule="evenodd"/>
        <path id="Trazado_1048905" data-name="Trazado 1048905" d="M38.824,302.482v19.89a7.462,7.462,0,0,1-14.923,0v-19.89H38.824Z" transform="translate(-22.165 -267.352)" fill="#fcdb35" fill-rule="evenodd"/>
        <path id="Trazado_1048906" data-name="Trazado 1048906" d="M64.977,67.158v52.2a7.491,7.491,0,0,1-5.381,7.164,7.491,7.491,0,0,1-5.381-7.164v-52.2H64.977Z" transform="translate(-48.317 -64.334)" fill="#e3f1ff" fill-rule="evenodd"/>
        <path id="Trazado_1048907" data-name="Trazado 1048907" d="M64.977,302.482v19.89a7.491,7.491,0,0,1-5.381,7.164,7.491,7.491,0,0,1-5.381-7.164v-19.89Z" transform="translate(-48.317 -267.352)" fill="#ffeb87" fill-rule="evenodd"/>
        <path id="Trazado_1048908" data-name="Trazado 1048908" d="M13.927,46.59H26.975a2.674,2.674,0,0,1,0,5.348H13.927a2.674,2.674,0,1,1,0-5.348Z" transform="translate(-11.253 -46.59)" fill="#a0cdfa" fill-rule="evenodd"/>
        <path id="Trazado_1048909" data-name="Trazado 1048909" d="M49.778,46.59a2.674,2.674,0,0,1,0,5.348H40.351a2.674,2.674,0,0,1,0-5.348Z" transform="translate(-34.052 -46.59)" fill="#b6dbff" fill-rule="evenodd"/>
        <path id="Trazado_1048910" data-name="Trazado 1048910" d="M93.183,221.133a15.505,15.505,0,0,1,2.434,8.349v26.076a4.061,4.061,0,0,0,4.053,4.053h14.895a4.061,4.061,0,0,0,4.053-4.053V229.482a15.5,15.5,0,0,1,2.434-8.349Z" transform="translate(-81.935 -197.171)" fill="#cad0d7" fill-rule="evenodd"/>
        <path id="Trazado_1048911" data-name="Trazado 1048911" d="M128.235,259.612h10.973a4.061,4.061,0,0,0,4.053-4.053V229.483a15.5,15.5,0,0,1,2.434-8.349H121.748a15.5,15.5,0,0,1,2.434,8.349v26.076a4.061,4.061,0,0,0,4.053,4.053Z" transform="translate(-106.579 -197.172)" fill="#e4e8eb" fill-rule="evenodd"/>
      </g>
      <ellipse id="Elipse_12064" data-name="Elipse 12064" cx="13.934" cy="2.151" rx="13.934" ry="2.151" transform="translate(16.244 31.974)" fill="#b7bfc9"/>
      <path id="Trazado_1048912" data-name="Trazado 1048912" d="M128.341,217.3a71.63,71.63,0,0,0,9.108.523c6.943,0,12.7-.784,13.759-1.81C147.363,214.317,128.341,214.115,128.341,217.3Z" transform="translate(-107.27 -181.547)" fill="#cad0d7" fill-rule="evenodd"/>
      <path id="Trazado_1048913" data-name="Trazado 1048913" d="M110.743,342.041V359.9a4.069,4.069,0,0,0,4.061,4.061h14.925a4.069,4.069,0,0,0,4.061-4.061v-17.86Z" transform="translate(-92.088 -291.317)" fill="#4eb1fc" fill-rule="evenodd"/>
      <path id="Trazado_1048914" data-name="Trazado 1048914" d="M143.539,363.962h10.98a4.069,4.069,0,0,0,4.061-4.061v-17.86h-19.1V359.9A4.069,4.069,0,0,0,143.539,363.962Z" transform="translate(-116.878 -291.317)" fill="#85caff" fill-rule="evenodd"/>
      <path id="Trazado_1048915" data-name="Trazado 1048915" d="M223.959,44.325a14.872,14.872,0,0,1,12.788,22.458,2.522,2.522,0,0,0,.388,3.1l2.655,2.655-2.482,2.482-2.655-2.655a2.522,2.522,0,0,0-3.1-.388,14.869,14.869,0,1,1-7.59-27.656Z" transform="translate(-176.935 -34.472)" fill="#fdb0a0" fill-rule="evenodd"/>
      <path id="Trazado_1048916" data-name="Trazado 1048916" d="M223.96,44.325a14.816,14.816,0,0,1,10.179,4.032,14.873,14.873,0,0,1,1.951,17.768,2.522,2.522,0,0,0,.388,3.1l.657.657h0l2.655,2.655-2.482,2.482-2.655-2.655L234,71.711a2.522,2.522,0,0,0-3.1-.388,14.873,14.873,0,0,1-17.769-1.951A14.867,14.867,0,0,1,223.96,44.325Z" transform="translate(-176.936 -34.472)" fill="#ffcec0" fill-rule="evenodd"/>
      <path id="Trazado_1048917" data-name="Trazado 1048917" d="M408.832,239.568l-8.659-8.659a1.538,1.538,0,0,0-2.17,0l-2.328,2.328a1.538,1.538,0,0,0,0,2.17l8.659,8.659a3.181,3.181,0,0,0,4.5-4.5Z" transform="translate(-337.517 -195.054)" fill="#a34f41" fill-rule="evenodd"/>
      <path id="Trazado_1048918" data-name="Trazado 1048918" d="M396.522,241.689l-.848.848a1.538,1.538,0,0,0,0,2.17l8.659,8.659a2.26,2.26,0,1,0,3.018-3.018l-8.659-8.659a1.538,1.538,0,0,0-2.17,0Z" transform="translate(-337.516 -204.354)" fill="#c86f5c" fill-rule="evenodd"/>
      <circle id="Elipse_12065" data-name="Elipse 12065" cx="11.347" cy="11.347" r="11.347" transform="translate(35.19 12.887)" fill="#fdb0a0"/>
      <circle id="Elipse_12066" data-name="Elipse 12066" cx="11.347" cy="11.347" r="11.347" transform="translate(35.668 13.365)" fill="#eceff1"/>
      <path id="Trazado_1048919" data-name="Trazado 1048919" d="M241.734,92.712a11.346,11.346,0,1,0-3.443-8.14A11.3,11.3,0,0,0,241.734,92.712Z" transform="translate(-202.126 -59.405)" fill="#fff" fill-rule="evenodd"/>
      <path id="Trazado_1048920" data-name="Trazado 1048920" d="M290.712,102.987c-.549,1-2.961,4.5-3.932,7.671-1.207,3.938,1.377,5.914,3.932,5.945,2.555-.031,5.139-2.008,3.932-5.945C293.673,107.487,291.261,103.986,290.712,102.987Z" transform="translate(-243.694 -85.081)" fill="#4eb1fc" fill-rule="evenodd"/>
      <path id="Trazado_1048921" data-name="Trazado 1048921" d="M289.939,112.284a30.364,30.364,0,0,0-3.16,6.395c-1.085,3.539.893,5.494,3.16,5.876,2.267-.382,4.245-2.337,3.16-5.876A30.36,30.36,0,0,0,289.939,112.284Z" transform="translate(-243.693 -93.102)" fill="#85caff" fill-rule="evenodd"/>
      <path id="Trazado_1048922" data-name="Trazado 1048922" d="M25.449,27.5a21.971,21.971,0,0,1,.883-9.728,21.546,21.546,0,0,1,5.294-8.6,21.907,21.907,0,0,1,3.418-2.791l-.714-.1a.961.961,0,0,1,.278-1.9l3.476.508a.96.96,0,0,1,.747,1.322L37.516,9.344A.961.961,0,0,1,35.743,8.6l.217-.518a20.007,20.007,0,0,0-2.976,2.452,19.708,19.708,0,0,0-5.631,16.713.962.962,0,0,1-.823,1.082.973.973,0,0,1-.13.009.961.961,0,0,1-.951-.832ZM58.841,7.419a.961.961,0,0,1,1.347-.183,21.97,21.97,0,0,1,6.255,7.5,21.538,21.538,0,0,1,2.339,9.826,21.888,21.888,0,0,1-.443,4.39l.579-.431a.961.961,0,1,1,1.148,1.541l-2.817,2.1a.96.96,0,0,1-.574.191.979.979,0,0,1-.257-.035.963.963,0,0,1-.632-.562L64.5,28.611a.961.961,0,1,1,1.779-.728l.213.519a19.96,19.96,0,0,0,.371-3.837,19.709,19.709,0,0,0-7.837-15.8.961.961,0,0,1-.182-1.347ZM49.746,29.133a3.551,3.551,0,0,1-5.459,0A3.794,3.794,0,0,1,44,25.71a29.364,29.364,0,0,1,3.013-6.1,29.361,29.361,0,0,1,3.014,6.1,3.793,3.793,0,0,1-.284,3.423ZM48.383,18.165c-.236-.383-.423-.686-.524-.871a.961.961,0,0,0-1.684,0c-.1.185-.288.488-.524.871a32.946,32.946,0,0,0-3.485,6.982,5.534,5.534,0,0,0,.569,5.12,5.338,5.338,0,0,0,4.27,2.068h.023a5.338,5.338,0,0,0,4.27-2.068,5.536,5.536,0,0,0,.569-5.12,32.978,32.978,0,0,0-3.485-6.982Zm22.236,30a2.235,2.235,0,0,1-3.158,0l-8.607-8.607a.582.582,0,0,1,0-.82L61.192,36.4a.581.581,0,0,1,.82,0l8.607,8.607A2.236,2.236,0,0,1,70.619,48.168ZM54.106,36.512a3.454,3.454,0,0,1,3.982.277l1.152-1.151a3.452,3.452,0,0,1-.276-3.982,13.885,13.885,0,1,0-4.857,4.857ZM40.759,41.552H38.312a.961.961,0,0,0,0,1.922H40.74v2.109H39.675a.961.961,0,0,0,0,1.922H40.74v2.109H19.614V42.3A16.533,16.533,0,0,0,18.4,36.086c.516.117,1.1.226,1.761.328a69.189,69.189,0,0,0,10.019.642c2.39,0,4.734-.094,6.816-.271A15.825,15.825,0,0,0,41.034,39.2a16.566,16.566,0,0,0-.276,2.352ZM37.639,71.534H22.715a3.1,3.1,0,0,1-3.1-3.1v-16.9H40.74v2.109H39.675a.961.961,0,0,0,0,1.922H40.74v2.109H38.312a.961.961,0,0,0,0,1.922H40.74v2.109H39.675a.961.961,0,1,0,0,1.922H40.74v2.109H38.312a.961.961,0,0,0,0,1.922H40.74v.774a3.1,3.1,0,0,1-3.1,3.1Zm-23.446,0a6.535,6.535,0,0,1-6.528-6.527V58.155h3.985a.961.961,0,1,0,0-1.922H7.666v-4.1H9.215a.961.961,0,0,0,0-1.922H7.666v-4.1H17.692V68.434a5,5,0,0,0,.349,1.835,6.492,6.492,0,0,1-3.848,1.265ZM7.646,10.976h13.1a1.723,1.723,0,1,1,0,3.446H7.646a1.723,1.723,0,0,1,0-3.446ZM20.158,31.466c.184-.028.372-.056.563-.083V16.343H7.666v3.741h3.985a.961.961,0,1,1,0,1.922H7.666v4.1H9.215a.961.961,0,0,1,0,1.922H7.666v4.1h3.985a.961.961,0,1,1,0,1.922H7.666v4.1H9.215a.961.961,0,1,1,0,1.922H7.666v4.1H17.692V42.3a14.615,14.615,0,0,0-1.979-7.338,1.366,1.366,0,0,1-.459-1.028c0-1.219,1.421-1.936,4.9-2.473ZM33.53,32.81a15.93,15.93,0,0,0,1.61,2.181c-1.574.093-3.255.143-4.962.143-6.585,0-10.737-.658-12.378-1.194,1.641-.536,5.794-1.194,12.378-1.194C31.314,32.745,32.438,32.768,33.53,32.81ZM71.978,43.651l-8.607-8.607a2.5,2.5,0,0,0-2.612-.584,1.56,1.56,0,0,1-.144-1.823,15.814,15.814,0,1,0-28.1-1.783c-.769-.019-1.548-.031-2.334-.031-2.7,0-5.294.118-7.534.337V15.806a3.644,3.644,0,0,0-1.9-6.752H7.646a3.644,3.644,0,0,0-1.9,6.752v49.2a8.437,8.437,0,0,0,13.333,6.884,5.006,5.006,0,0,0,3.638,1.566H37.64a5.028,5.028,0,0,0,5.022-5.022V42.3a14.666,14.666,0,0,1,.213-2.479,15.833,15.833,0,0,0,12.214-1.662,1.56,1.56,0,0,1,1.823.144,2.5,2.5,0,0,0,.583,2.612L66.1,49.527a4.155,4.155,0,0,0,5.876-5.877ZM47.016,35.378A10.813,10.813,0,1,0,36.2,24.565,10.825,10.825,0,0,0,47.016,35.378Zm0-23.548A12.735,12.735,0,1,0,59.751,24.565,12.749,12.749,0,0,0,47.016,11.831Z" transform="translate(0)" fill-rule="evenodd"/>
    </g>
  </g>
</svg>
