<svg xmlns="http://www.w3.org/2000/svg" xmlns:xlink="http://www.w3.org/1999/xlink" width="110" height="110" viewBox="0 0 110 110">
  <defs>
    <clipPath id="clip-path">
      <rect id="Rectángulo_407341" data-name="Rectángulo 407341" width="110" height="110" transform="translate(800.781 1960)" fill="#37a2e4" opacity="0.47"/>
    </clipPath>
    <filter id="Trazado_1048261" x="5" y="-4.866" width="90.453" height="115.636" filterUnits="userSpaceOnUse">
      <feOffset dy="3" input="SourceAlpha"/>
      <feGaussianBlur stdDeviation="3" result="blur"/>
      <feFlood flood-opacity="0.161"/>
      <feComposite operator="in" in2="blur"/>
      <feComposite in="SourceGraphic"/>
    </filter>
  </defs>
  <g id="Grupo_1181769" data-name="Grupo 1181769" transform="translate(-800.781 -1425)">
    <g id="Enmascarar_grupo_1098938" data-name="Enmascarar grupo 1098938" transform="translate(0 -535)" clip-path="url(#clip-path)">
      <g id="Grupo_1181559" data-name="Grupo 1181559" transform="translate(-1 -1)">
        <g id="Grupo_1181557" data-name="Grupo 1181557" transform="translate(815.781 1961)">
          <g id="Grupo_1181556" data-name="Grupo 1181556" transform="translate(0 0)">
            <path id="Trazado_1048260" data-name="Trazado 1048260" d="M127.429,109.916c-22.489,0-40.784-16.31-40.784-36.359S124.352,2.836,125.959.662a1.964,1.964,0,0,1,2.941,0c1.607,2.173,39.31,53.434,39.31,72.895s-18.3,36.359-40.784,36.359Z" transform="translate(-86.645 0)" fill="#2da8f9"/>
            <g transform="matrix(1, 0, 0, 1, -14, 0)" filter="url(#Trazado_1048261)">
              <path id="Trazado_1048261-2" data-name="Trazado 1048261" d="M122.873,97.636c-19.977,0-36.228-14.488-36.228-32.3S120.139,2.519,121.567.588a1.745,1.745,0,0,1,2.613,0C125.607,2.519,159.1,48.053,159.1,65.34s-16.252,32.3-36.228,32.3Z" transform="translate(-72.64 1.13)" fill="#2cfefa" opacity="0.9"/>
            </g>
          </g>
        </g>
      </g>
    </g>
    <g id="icon1" transform="translate(829.306 1458.733)">
      <g id="Grupo_1181768" data-name="Grupo 1181768" transform="translate(4.661 8.209)">
        <path id="Trazado_1048904" data-name="Trazado 1048904" d="M23.9,67.158h9.89V101.75a4.945,4.945,0,0,1-9.89,0Z" transform="translate(-22.751 -65.287)" fill="#cee7ff" fill-rule="evenodd"/>
        <path id="Trazado_1048905" data-name="Trazado 1048905" d="M33.791,302.482v13.182a4.945,4.945,0,0,1-9.89,0V302.482h9.89Z" transform="translate(-22.75 -279.2)" fill="#fcdb35" fill-rule="evenodd"/>
        <path id="Trazado_1048906" data-name="Trazado 1048906" d="M61.347,67.158v34.593a4.965,4.965,0,0,1-3.566,4.748,4.964,4.964,0,0,1-3.566-4.748V67.158h7.132Z" transform="translate(-50.306 -65.287)" fill="#e3f1ff" fill-rule="evenodd"/>
        <path id="Trazado_1048907" data-name="Trazado 1048907" d="M61.347,302.482v13.182a4.965,4.965,0,0,1-3.566,4.748,4.964,4.964,0,0,1-3.566-4.748V302.482Z" transform="translate(-50.306 -279.2)" fill="#ffeb87" fill-rule="evenodd"/>
        <path id="Trazado_1048908" data-name="Trazado 1048908" d="M13.025,46.59h8.648a1.772,1.772,0,1,1,0,3.544H13.025a1.772,1.772,0,0,1,0-3.544Z" transform="translate(-11.253 -46.59)" fill="#a0cdfa" fill-rule="evenodd"/>
        <path id="Trazado_1048909" data-name="Trazado 1048909" d="M45.7,46.59a1.772,1.772,0,0,1,0,3.544H39.45a1.772,1.772,0,0,1,0-3.544Z" transform="translate(-35.276 -46.59)" fill="#b6dbff" fill-rule="evenodd"/>
        <path id="Trazado_1048910" data-name="Trazado 1048910" d="M93.183,221.133a10.276,10.276,0,0,1,1.613,5.533v17.282a2.691,2.691,0,0,0,2.686,2.686h9.871a2.691,2.691,0,0,0,2.686-2.686V226.666a10.276,10.276,0,0,1,1.613-5.533Z" transform="translate(-85.729 -205.253)" fill="#cad0d7" fill-rule="evenodd"/>
        <path id="Trazado_1048911" data-name="Trazado 1048911" d="M126.047,246.635h7.272a2.691,2.691,0,0,0,2.686-2.686V226.667a10.276,10.276,0,0,1,1.613-5.533H121.748a10.276,10.276,0,0,1,1.613,5.533v17.282a2.691,2.691,0,0,0,2.686,2.686Z" transform="translate(-111.695 -205.253)" fill="#e4e8eb" fill-rule="evenodd"/>
      </g>
      <ellipse id="Elipse_12064" data-name="Elipse 12064" cx="9.235" cy="1.426" rx="9.235" ry="1.426" transform="translate(12.115 22.664)" fill="#b7bfc9"/>
      <path id="Trazado_1048912" data-name="Trazado 1048912" d="M128.341,216.458a47.473,47.473,0,0,0,6.036.347c4.6,0,8.416-.52,9.119-1.2C140.947,214.481,128.341,214.347,128.341,216.458Z" transform="translate(-113.027 -191.29)" fill="#cad0d7" fill-rule="evenodd"/>
      <path id="Trazado_1048913" data-name="Trazado 1048913" d="M110.743,342.041v11.836a2.7,2.7,0,0,0,2.691,2.692h9.891a2.7,2.7,0,0,0,2.691-2.692V342.041Z" transform="translate(-97.03 -306.951)" fill="#4eb1fc" fill-rule="evenodd"/>
      <path id="Trazado_1048914" data-name="Trazado 1048914" d="M142.169,356.569h7.277a2.7,2.7,0,0,0,2.691-2.692V342.041h-12.66v11.836A2.7,2.7,0,0,0,142.169,356.569Z" transform="translate(-123.151 -306.951)" fill="#85caff" fill-rule="evenodd"/>
      <path id="Trazado_1048915" data-name="Trazado 1048915" d="M218.945,44.325a9.856,9.856,0,0,1,8.475,14.884,1.671,1.671,0,0,0,.257,2.058l1.76,1.76-1.645,1.645-1.76-1.76a1.671,1.671,0,0,0-2.058-.257,9.855,9.855,0,1,1-5.03-18.329Z" transform="translate(-186.43 -36.322)" fill="#fdb0a0" fill-rule="evenodd"/>
      <path id="Trazado_1048916" data-name="Trazado 1048916" d="M218.946,44.325a9.514,9.514,0,0,1,8.039,14.448,1.671,1.671,0,0,0,.257,2.058l.435.435h0l1.76,1.76-1.645,1.645-1.76-1.76-.436-.436a1.671,1.671,0,0,0-2.057-.257,9.6,9.6,0,1,1-4.594-17.893Z" transform="translate(-186.431 -36.322)" fill="#ffcec0" fill-rule="evenodd"/>
      <path id="Trazado_1048917" data-name="Trazado 1048917" d="M404.243,236.5l-5.739-5.739a1.019,1.019,0,0,0-1.438,0l-1.543,1.543a1.019,1.019,0,0,0,0,1.438l5.739,5.739a2.108,2.108,0,1,0,2.981-2.981Z" transform="translate(-355.63 -205.522)" fill="#a34f41" fill-rule="evenodd"/>
      <path id="Trazado_1048918" data-name="Trazado 1048918" d="M396.084,241.537l-.562.562a1.019,1.019,0,0,0,0,1.438l5.739,5.739a1.5,1.5,0,1,0,2-2l-5.739-5.739a1.019,1.019,0,0,0-1.438,0Z" transform="translate(-355.629 -215.322)" fill="#c86f5c" fill-rule="evenodd"/>
      <circle id="Elipse_12065" data-name="Elipse 12065" cx="7.52" cy="7.52" r="7.52" transform="translate(24.671 10.014)" fill="#fdb0a0"/>
      <circle id="Elipse_12066" data-name="Elipse 12066" cx="7.52" cy="7.52" r="7.52" transform="translate(24.988 10.33)" fill="#eceff1"/>
      <path id="Trazado_1048919" data-name="Trazado 1048919" d="M240.573,86.14a7.52,7.52,0,1,0-2.282-5.395A7.49,7.49,0,0,0,240.573,86.14Z" transform="translate(-212.974 -62.593)" fill="#fff" fill-rule="evenodd"/>
      <path id="Trazado_1048920" data-name="Trazado 1048920" d="M289.283,102.987a25.876,25.876,0,0,0-2.606,5.084c-.8,2.61.913,3.92,2.606,3.94,1.693-.021,3.406-1.331,2.606-3.94A25.875,25.875,0,0,0,289.283,102.987Z" transform="translate(-256.773 -89.647)" fill="#4eb1fc" fill-rule="evenodd"/>
      <path id="Trazado_1048921" data-name="Trazado 1048921" d="M288.77,112.284a20.124,20.124,0,0,0-2.094,4.238c-.719,2.346.592,3.641,2.094,3.894,1.5-.253,2.813-1.549,2.094-3.894A20.12,20.12,0,0,0,288.77,112.284Z" transform="translate(-256.772 -98.098)" fill="#85caff" fill-rule="evenodd"/>
      <path id="Trazado_1048922" data-name="Trazado 1048922" d="M18.216,19.7a14.561,14.561,0,0,1,.585-6.447,14.28,14.28,0,0,1,3.508-5.7A14.519,14.519,0,0,1,24.575,5.7L24.1,5.634a.637.637,0,0,1,.184-1.26l2.3.337a.637.637,0,0,1,.5.876l-.871,2.078a.637.637,0,0,1-1.175-.493l.144-.343A13.26,13.26,0,0,0,23.21,8.454,13.061,13.061,0,0,0,19.478,19.53a.637.637,0,0,1-.546.717.645.645,0,0,1-.086.006.637.637,0,0,1-.63-.552ZM40.346,6.39a.637.637,0,0,1,.892-.121,14.56,14.56,0,0,1,4.145,4.973,14.274,14.274,0,0,1,1.55,6.512,14.506,14.506,0,0,1-.294,2.91l.384-.286a.637.637,0,1,1,.761,1.021l-1.867,1.391a.636.636,0,0,1-.38.126.649.649,0,0,1-.17-.023.638.638,0,0,1-.419-.372l-.853-2.085a.637.637,0,1,1,1.179-.482l.141.344a13.229,13.229,0,0,0,.246-2.543A13.062,13.062,0,0,0,40.467,7.282a.637.637,0,0,1-.121-.892ZM34.318,20.781a2.354,2.354,0,0,1-3.618,0,2.514,2.514,0,0,1-.188-2.269,19.461,19.461,0,0,1,2-4.041,19.459,19.459,0,0,1,2,4.041,2.514,2.514,0,0,1-.188,2.269Zm-.9-7.269c-.157-.254-.28-.454-.347-.577a.637.637,0,0,0-1.116,0c-.067.123-.191.323-.347.577a21.835,21.835,0,0,0-2.309,4.627,3.668,3.668,0,0,0,.377,3.393A3.538,3.538,0,0,0,32.5,22.9h.016a3.537,3.537,0,0,0,2.83-1.371,3.669,3.669,0,0,0,.377-3.393,21.856,21.856,0,0,0-2.31-4.627ZM48.152,33.4a1.482,1.482,0,0,1-2.093,0l-5.7-5.7a.386.386,0,0,1,0-.543L41.9,25.6a.385.385,0,0,1,.544,0l5.7,5.7A1.482,1.482,0,0,1,48.152,33.4ZM37.208,25.671a2.289,2.289,0,0,1,2.639.183l.763-.763a2.288,2.288,0,0,1-.183-2.639,9.2,9.2,0,1,0-3.219,3.219Zm-8.846,3.341H26.74a.637.637,0,0,0,0,1.274h1.609v1.4h-.706a.637.637,0,0,0,0,1.274h.706v1.4h-14V29.51a10.957,10.957,0,0,0-.807-4.121c.342.078.73.15,1.167.217a45.855,45.855,0,0,0,6.64.425c1.584,0,3.137-.062,4.517-.18a10.488,10.488,0,0,0,2.679,1.6,10.978,10.978,0,0,0-.183,1.559Zm-2.067,19.87H16.4a2.057,2.057,0,0,1-2.055-2.055v-11.2h14v1.4h-.706a.637.637,0,0,0,0,1.274h.706v1.4H26.74a.637.637,0,0,0,0,1.273h1.609v1.4h-.706a.637.637,0,1,0,0,1.274h.706v1.4H26.74a.637.637,0,0,0,0,1.273h1.609v.513a2.057,2.057,0,0,1-2.055,2.055Zm-15.539,0A4.331,4.331,0,0,1,6.43,44.556V40.015H9.071a.637.637,0,0,0,0-1.274H6.43V36.022H7.457a.637.637,0,0,0,0-1.274H6.43V32.029h6.645v14.8a3.312,3.312,0,0,0,.231,1.216,4.3,4.3,0,0,1-2.55.839ZM6.416,8.747H15.1a1.142,1.142,0,1,1,0,2.283H6.416a1.142,1.142,0,0,1,0-2.283Zm8.292,13.58.373-.055V12.3H6.43v2.479H9.071a.637.637,0,1,1,0,1.274H6.43v2.719H7.457a.637.637,0,0,1,0,1.274H6.43v2.719H9.071a.637.637,0,1,1,0,1.274H6.43v2.719H7.457a.637.637,0,1,1,0,1.273H6.43v2.719h6.645V29.51a9.686,9.686,0,0,0-1.312-4.863.905.905,0,0,1-.3-.681c0-.808.941-1.283,3.25-1.639Zm8.862.891a10.558,10.558,0,0,0,1.067,1.445c-1.043.062-2.157.095-3.289.095a31.112,31.112,0,0,1-8.2-.792,31.113,31.113,0,0,1,8.2-.792C22.1,23.175,22.847,23.19,23.571,23.217ZM49.053,30.4l-5.7-5.7a1.659,1.659,0,0,0-1.731-.387,1.034,1.034,0,0,1-.1-1.208A10.481,10.481,0,1,0,22.9,21.921c-.509-.013-1.026-.021-1.547-.021-1.792,0-3.509.078-4.993.223V11.948A2.415,2.415,0,0,0,15.1,7.473H6.416a2.415,2.415,0,0,0-1.26,4.475V44.556a5.592,5.592,0,0,0,8.836,4.562A3.318,3.318,0,0,0,16.4,50.156h9.891a3.332,3.332,0,0,0,3.329-3.329V29.51a9.719,9.719,0,0,1,.141-1.643,10.493,10.493,0,0,0,8.095-1.1,1.034,1.034,0,0,1,1.208.1,1.659,1.659,0,0,0,.386,1.731l5.7,5.7A2.754,2.754,0,0,0,49.053,30.4ZM32.509,24.92a7.166,7.166,0,1,0-7.166-7.166,7.174,7.174,0,0,0,7.166,7.166Zm0-15.606a8.44,8.44,0,1,0,8.44,8.44,8.449,8.449,0,0,0-8.44-8.44Z" fill-rule="evenodd"/>
    </g>
  </g>
</svg>
