<svg xmlns="http://www.w3.org/2000/svg" xmlns:xlink="http://www.w3.org/1999/xlink" width="110" height="110" viewBox="0 0 110 110">
  <defs>
    <clipPath id="clip-path">
      <rect id="Rectángulo_407636" data-name="Rectángulo 407636" width="110" height="110" transform="translate(800.781 1960)" fill="#37a2e4" opacity="0.47"/>
    </clipPath>
    <filter id="Trazado_1049124" x="5" y="-4.866" width="90.454" height="115.637" filterUnits="userSpaceOnUse">
      <feOffset dy="3" input="SourceAlpha"/>
      <feGaussianBlur stdDeviation="3" result="blur"/>
      <feFlood flood-opacity="0.161"/>
      <feComposite operator="in" in2="blur"/>
      <feComposite in="SourceGraphic"/>
    </filter>
  </defs>
  <g id="Grupo_1181877" data-name="Grupo 1181877" transform="translate(-12768.721 10902)">
    <g id="Enmascarar_grupo_1098979" data-name="Enmascarar grupo 1098979" transform="translate(11967.939 -12862)" clip-path="url(#clip-path)">
      <g id="Grupo_1181846" data-name="Grupo 1181846" transform="translate(-1 -1)">
        <g id="Grupo_1181844" data-name="Grupo 1181844" transform="translate(815.781 1961)">
          <g id="Grupo_1181843" data-name="Grupo 1181843" transform="translate(0 0)">
            <path id="Trazado_1049123" data-name="Trazado 1049123" d="M127.429,109.916c-22.489,0-40.784-16.31-40.784-36.359S124.352,2.836,125.959.662a1.964,1.964,0,0,1,2.941,0c1.607,2.173,39.31,53.434,39.31,72.895s-18.3,36.359-40.784,36.359Z" transform="translate(-86.645 0)" fill="#54eabd"/>
            <g transform="matrix(1, 0, 0, 1, -14, 0)" filter="url(#Trazado_1049124)">
              <path id="Trazado_1049124-2" data-name="Trazado 1049124" d="M122.873,97.636c-19.977,0-36.228-14.488-36.228-32.3S120.139,2.519,121.567.588a1.745,1.745,0,0,1,2.613,0C125.607,2.519,159.1,48.053,159.1,65.34s-16.252,32.3-36.228,32.3Z" transform="translate(-72.64 1.13)" fill="#54eabd" opacity="0.9"/>
            </g>
          </g>
        </g>
      </g>
    </g>
    <g id="hecho" transform="translate(12801.001 -10863.951)">
      <path id="Trazado_1049345" data-name="Trazado 1049345" d="M34.014,85.038H8.454a.954.954,0,0,1-.954-.954V44.647a.954.954,0,0,1,.954-.954h25.56a.954.954,0,0,1,.954.954V84.084A.954.954,0,0,1,34.014,85.038Z" transform="translate(-6.827 -39.759)" fill="#e7e2e6"/>
      <path id="Trazado_1049346" data-name="Trazado 1049346" d="M27.187,78.884H1.627A1.629,1.629,0,0,1,0,77.257V43.652a.673.673,0,1,1,1.346,0V77.257a.282.282,0,0,0,.281.281h25.56a.282.282,0,0,0,.281-.281V37.82a.281.281,0,0,0-.281-.281H1.627a.281.281,0,0,0-.281.281v3.23A.673.673,0,0,1,0,41.05V37.82a1.629,1.629,0,0,1,1.627-1.627h25.56a1.629,1.629,0,0,1,1.627,1.627V77.257A1.629,1.629,0,0,1,27.187,78.884Z" transform="translate(0 -32.932)"/>
      <path id="Trazado_1049347" data-name="Trazado 1049347" d="M80.2,48.86H54.644a.954.954,0,0,1-.954-.954V8.469a.954.954,0,0,1,.954-.954H80.2a.954.954,0,0,1,.954.954V47.906A.954.954,0,0,1,80.2,48.86Z" transform="translate(-48.873 -6.827)" fill="#faf7f8"/>
      <path id="Trazado_1049348" data-name="Trazado 1049348" d="M329.092,7.516h-1.983a.954.954,0,0,1,.954.954V47.907a.954.954,0,0,1-.954.954h1.983a.954.954,0,0,0,.954-.954V8.47A.954.954,0,0,0,329.092,7.516Z" transform="translate(-297.761 -6.828)" fill="#f0eef0"/>
      <path id="Trazado_1049349" data-name="Trazado 1049349" d="M73.377,42.706H59.713a.673.673,0,0,1,0-1.346H73.377a.282.282,0,0,0,.281-.281V1.642a.282.282,0,0,0-.281-.281H47.817a.282.282,0,0,0-.281.281V41.079a.282.282,0,0,0,.281.281h9.294a.673.673,0,1,1,0,1.346H47.817a1.629,1.629,0,0,1-1.627-1.627V1.642A1.629,1.629,0,0,1,47.817.015h25.56A1.629,1.629,0,0,1,75,1.642V41.079A1.629,1.629,0,0,1,73.377,42.706Z" transform="translate(-42.046)"/>
      <path id="Trazado_1049350" data-name="Trazado 1049350" d="M132.505,44.49H118.3a.917.917,0,0,1-.917-.917V41.344a.917.917,0,0,1,.917-.917h14.206a.917.917,0,0,1,.917.917v2.229A.917.917,0,0,1,132.505,44.49Z" transform="translate(-106.851 -36.786)" fill="#6ce79a"/>
      <path id="Trazado_1049351" data-name="Trazado 1049351" d="M268.188,40.426h-1.749a.917.917,0,0,1,.917.917v2.229a.917.917,0,0,1-.917.917h1.749a.917.917,0,0,0,.917-.917V41.343A.916.916,0,0,0,268.188,40.426Z" transform="translate(-242.534 -36.785)" fill="#00d8a2"/>
      <path id="Trazado_1049352" data-name="Trazado 1049352" d="M125.678,38.335H111.472a1.591,1.591,0,0,1-1.589-1.589V34.516a1.591,1.591,0,0,1,1.589-1.589h14.206a1.591,1.591,0,0,1,1.589,1.589v2.229A1.591,1.591,0,0,1,125.678,38.335Zm-14.206-4.063a.244.244,0,0,0-.244.244v2.229a.244.244,0,0,0,.244.244h14.206a.244.244,0,0,0,.244-.244V34.516a.244.244,0,0,0-.244-.244Z" transform="translate(-100.024 -29.959)"/>
      <g id="Grupo_1181874" data-name="Grupo 1181874" transform="translate(7.966 10.409)">
        <path id="Línea_563" data-name="Línea 563" d="M13-6.154H-6.827A.673.673,0,0,1-7.5-6.827.673.673,0,0,1-6.827-7.5H13a.673.673,0,0,1,.673.673A.673.673,0,0,1,13-6.154Z" transform="translate(7.5 33.23)"/>
        <path id="Línea_564" data-name="Línea 564" d="M13-6.154H-6.827A.673.673,0,0,1-7.5-6.827.673.673,0,0,1-6.827-7.5H13a.673.673,0,0,1,.673.673A.673.673,0,0,1,13-6.154Z" transform="translate(7.5 30.014)"/>
        <path id="Línea_565" data-name="Línea 565" d="M13-6.154H-6.827A.673.673,0,0,1-7.5-6.827.673.673,0,0,1-6.827-7.5H13a.673.673,0,0,1,.673.673A.673.673,0,0,1,13-6.154Z" transform="translate(7.5 26.797)"/>
        <path id="Línea_566" data-name="Línea 566" d="M13-6.154H-6.827A.673.673,0,0,1-7.5-6.827.673.673,0,0,1-6.827-7.5H13a.673.673,0,0,1,.673.673A.673.673,0,0,1,13-6.154Z" transform="translate(7.5 23.581)"/>
        <path id="Línea_567" data-name="Línea 567" d="M13-6.154H-6.827A.673.673,0,0,1-7.5-6.827.673.673,0,0,1-6.827-7.5H13a.673.673,0,0,1,.673.673A.673.673,0,0,1,13-6.154Z" transform="translate(7.5 20.365)"/>
        <path id="Línea_568" data-name="Línea 568" d="M13-6.154H-6.827A.673.673,0,0,1-7.5-6.827.673.673,0,0,1-6.827-7.5H13a.673.673,0,0,1,.673.673A.673.673,0,0,1,13-6.154Z" transform="translate(7.5 17.149)"/>
        <path id="Línea_569" data-name="Línea 569" d="M13-6.154H-6.827A.673.673,0,0,1-7.5-6.827.673.673,0,0,1-6.827-7.5H13a.673.673,0,0,1,.673.673A.673.673,0,0,1,13-6.154Z" transform="translate(7.5 13.932)"/>
        <path id="Línea_570" data-name="Línea 570" d="M13-6.154H-6.827A.673.673,0,0,1-7.5-6.827.673.673,0,0,1-6.827-7.5H13a.673.673,0,0,1,.673.673A.673.673,0,0,1,13-6.154Z" transform="translate(7.5 10.716)"/>
        <path id="Línea_571" data-name="Línea 571" d="M13-6.154H-6.827A.673.673,0,0,1-7.5-6.827.673.673,0,0,1-6.827-7.5H13a.673.673,0,0,1,.673.673A.673.673,0,0,1,13-6.154Z" transform="translate(7.5 7.5)"/>
      </g>
      <circle id="Elipse_12103" data-name="Elipse 12103" cx="10.676" cy="10.676" r="10.676" transform="translate(23.914 17.515)" fill="#6ce79a"/>
      <path id="Trazado_1049353" data-name="Trazado 1049353" d="M373.133,195.063a10.783,10.783,0,0,0-1.223.07,10.676,10.676,0,0,1,0,21.212,10.676,10.676,0,1,0,1.223-21.282Z" transform="translate(-338.542 -177.548)" fill="#00d8a2"/>
      <g id="Grupo_1181875" data-name="Grupo 1181875" transform="translate(28.163 23.383)">
        <path id="Trazado_1049354" data-name="Trazado 1049354" d="M318.638,270.082a1.5,1.5,0,0,1-1.061-.44l-3.238-3.238a1.5,1.5,0,0,1,2.122-2.122l2.176,2.176,5.554-5.554a1.5,1.5,0,0,1,2.122,2.122l-6.615,6.615A1.5,1.5,0,0,1,318.638,270.082Z" transform="translate(-313.899 -260.465)" fill="#faf7f8"/>
      </g>
      <g id="Grupo_1181876" data-name="Grupo 1181876" transform="translate(27.49 22.71)">
        <path id="Trazado_1049355" data-name="Trazado 1049355" d="M311.811,263.928a2.159,2.159,0,0,1-1.537-.637l-3.238-3.238a2.174,2.174,0,0,1,3.074-3.074l1.7,1.7,5.078-5.078a2.16,2.16,0,0,1,1.537-.637h0a2.174,2.174,0,0,1,1.537,3.711l-6.615,6.615A2.159,2.159,0,0,1,311.811,263.928Zm-3.238-6.239a.828.828,0,0,0-.585,1.413l3.238,3.238a.828.828,0,0,0,1.171,0l6.615-6.615a.828.828,0,1,0-1.171-1.171l-5.554,5.554a.673.673,0,0,1-.952,0l-2.176-2.176A.822.822,0,0,0,308.573,257.689Z" transform="translate(-306.399 -252.965)"/>
      </g>
      <path id="Trazado_1049356" data-name="Trazado 1049356" d="M270.389,210.261a11.349,11.349,0,1,1,7.316-20.025.673.673,0,1,1-.868,1.028,10,10,0,1,0,1.66,1.789.673.673,0,1,1,1.09-.789,11.349,11.349,0,0,1-9.2,18Z" transform="translate(-235.799 -170.721)"/>
    </g>
  </g>
</svg>
