<svg xmlns="http://www.w3.org/2000/svg" xmlns:xlink="http://www.w3.org/1999/xlink" width="110" height="110" viewBox="0 0 110 110">
  <defs>
    <clipPath id="clip-path">
      <rect id="Rectángulo_407638" data-name="Rectángulo 407638" width="110" height="110" transform="translate(800.781 1960)" fill="#37a2e4" opacity="0.47"/>
    </clipPath>
    <filter id="Trazado_1049155" x="5" y="-4.866" width="90.454" height="115.637" filterUnits="userSpaceOnUse">
      <feOffset dy="3" input="SourceAlpha"/>
      <feGaussianBlur stdDeviation="3" result="blur"/>
      <feFlood flood-opacity="0.161"/>
      <feComposite operator="in" in2="blur"/>
      <feComposite in="SourceGraphic"/>
    </filter>
  </defs>
  <g id="Grupo_1181879" data-name="Grupo 1181879" transform="translate(-13097 10902)">
    <g id="Enmascarar_grupo_1098980" data-name="Enmascarar grupo 1098980" transform="translate(12296.219 -12862)" clip-path="url(#clip-path)">
      <g id="Grupo_1181850" data-name="Grupo 1181850" transform="translate(-1 -1)">
        <g id="Grupo_1181848" data-name="Grupo 1181848" transform="translate(815.781 1961)">
          <g id="Grupo_1181847" data-name="Grupo 1181847" transform="translate(0 0)">
            <path id="Trazado_1049154" data-name="Trazado 1049154" d="M127.429,109.916c-22.489,0-40.784-16.31-40.784-36.359S124.352,2.836,125.959.662a1.964,1.964,0,0,1,2.941,0c1.607,2.173,39.31,53.434,39.31,72.895s-18.3,36.359-40.784,36.359Z" transform="translate(-86.645 0)" fill="#54eabd"/>
            <g transform="matrix(1, 0, 0, 1, -14, 0)" filter="url(#Trazado_1049155)">
              <path id="Trazado_1049155-2" data-name="Trazado 1049155" d="M122.873,97.636c-19.977,0-36.228-14.488-36.228-32.3S120.139,2.519,121.567.588a1.745,1.745,0,0,1,2.613,0C125.607,2.519,159.1,48.053,159.1,65.34s-16.252,32.3-36.228,32.3Z" transform="translate(-72.64 1.13)" fill="#54eabd" opacity="0.9"/>
            </g>
          </g>
        </g>
      </g>
    </g>
    <g id="prueba-de-sangre" transform="translate(13123.999 -10872.367)">
      <g id="Grupo_1181878" data-name="Grupo 1181878" transform="translate(4.696 8.416)">
        <path id="Trazado_1049355" data-name="Trazado 1049355" d="M23.9,67.158H34.325v36.456a5.212,5.212,0,0,1-10.423,0Z" transform="translate(-22.689 -65.186)" fill="#cee7ff" fill-rule="evenodd"/>
        <path id="Trazado_1049356" data-name="Trazado 1049356" d="M34.324,302.482v13.892a5.212,5.212,0,0,1-10.423,0V302.482H34.324Z" transform="translate(-22.688 -277.946)" fill="#fcdb35" fill-rule="evenodd"/>
        <path id="Trazado_1049357" data-name="Trazado 1049357" d="M61.731,67.158v36.456a5.232,5.232,0,0,1-3.758,5,5.232,5.232,0,0,1-3.758-5V67.158h7.516Z" transform="translate(-50.096 -65.186)" fill="#e3f1ff" fill-rule="evenodd"/>
        <path id="Trazado_1049358" data-name="Trazado 1049358" d="M61.731,302.482v13.892a5.232,5.232,0,0,1-3.758,5,5.232,5.232,0,0,1-3.758-5V302.482Z" transform="translate(-50.096 -277.946)" fill="#ffeb87" fill-rule="evenodd"/>
        <path id="Trazado_1049359" data-name="Trazado 1049359" d="M13.121,46.59h9.114a1.868,1.868,0,1,1,0,3.735H13.121a1.868,1.868,0,1,1,0-3.735Z" transform="translate(-11.253 -46.59)" fill="#a0cdfa" fill-rule="evenodd"/>
        <path id="Trazado_1049360" data-name="Trazado 1049360" d="M46.13,46.59a1.868,1.868,0,0,1,0,3.735H39.546a1.868,1.868,0,0,1,0-3.735Z" transform="translate(-35.146 -46.59)" fill="#b6dbff" fill-rule="evenodd"/>
        <path id="Trazado_1049361" data-name="Trazado 1049361" d="M93.183,221.133a10.83,10.83,0,0,1,1.7,5.831v18.213a2.836,2.836,0,0,0,2.831,2.831h10.4a2.836,2.836,0,0,0,2.831-2.831V226.964a10.829,10.829,0,0,1,1.7-5.831Z" transform="translate(-85.327 -204.397)" fill="#cad0d7" fill-rule="evenodd"/>
        <path id="Trazado_1049362" data-name="Trazado 1049362" d="M126.279,248.009h7.664a2.836,2.836,0,0,0,2.831-2.831V226.965a10.829,10.829,0,0,1,1.7-5.831H121.748a10.829,10.829,0,0,1,1.7,5.831v18.213a2.836,2.836,0,0,0,2.831,2.831Z" transform="translate(-111.153 -204.398)" fill="#e4e8eb" fill-rule="evenodd"/>
      </g>
      <ellipse id="Elipse_12104" data-name="Elipse 12104" cx="9.732" cy="1.502" rx="9.732" ry="1.502" transform="translate(12.552 23.65)" fill="#b7bfc9"/>
      <path id="Trazado_1049363" data-name="Trazado 1049363" d="M128.341,216.547a50.029,50.029,0,0,0,6.361.365c4.849,0,8.87-.548,9.61-1.264C141.627,214.463,128.341,214.322,128.341,216.547Z" transform="translate(-112.418 -190.258)" fill="#cad0d7" fill-rule="evenodd"/>
      <path id="Trazado_1049364" data-name="Trazado 1049364" d="M110.743,342.041v12.474a2.842,2.842,0,0,0,2.836,2.837H124a2.842,2.842,0,0,0,2.836-2.837V342.041Z" transform="translate(-96.507 -305.296)" fill="#4eb1fc" fill-rule="evenodd"/>
      <path id="Trazado_1049365" data-name="Trazado 1049365" d="M142.314,357.352h7.669a2.842,2.842,0,0,0,2.836-2.837V342.041H139.478v12.474A2.842,2.842,0,0,0,142.314,357.352Z" transform="translate(-122.487 -305.296)" fill="#85caff" fill-rule="evenodd"/>
      <path id="Trazado_1049366" data-name="Trazado 1049366" d="M219.476,44.325a10.387,10.387,0,0,1,8.932,15.686,1.761,1.761,0,0,0,.271,2.168l1.855,1.855L228.8,65.767l-1.855-1.855a1.761,1.761,0,0,0-2.168-.271,10.385,10.385,0,1,1-5.3-19.316Z" transform="translate(-185.425 -36.126)" fill="#fdb0a0" fill-rule="evenodd"/>
      <path id="Trazado_1049367" data-name="Trazado 1049367" d="M219.477,44.325a10.027,10.027,0,0,1,8.472,15.226,1.761,1.761,0,0,0,.271,2.168l.459.459h0l1.855,1.855L228.8,65.767l-1.855-1.855-.459-.459a1.761,1.761,0,0,0-2.168-.271,10.122,10.122,0,1,1-4.842-18.857Z" transform="translate(-185.426 -36.126)" fill="#ffcec0" fill-rule="evenodd"/>
      <path id="Trazado_1049368" data-name="Trazado 1049368" d="M404.729,236.821l-6.048-6.048a1.074,1.074,0,0,0-1.516,0l-1.626,1.626a1.074,1.074,0,0,0,0,1.516l6.048,6.048a2.222,2.222,0,0,0,3.142-3.142Z" transform="translate(-353.712 -204.414)" fill="#a34f41" fill-rule="evenodd"/>
      <path id="Trazado_1049369" data-name="Trazado 1049369" d="M396.131,241.553l-.592.592a1.074,1.074,0,0,0,0,1.516l6.048,6.048a1.578,1.578,0,1,0,2.108-2.108l-6.048-6.048a1.074,1.074,0,0,0-1.516,0Z" transform="translate(-353.712 -214.16)" fill="#c86f5c" fill-rule="evenodd"/>
      <circle id="Elipse_12105" data-name="Elipse 12105" cx="7.925" cy="7.925" r="7.925" transform="translate(25.785 10.318)" fill="#fdb0a0"/>
      <circle id="Elipse_12106" data-name="Elipse 12106" cx="7.925" cy="7.925" r="7.925" transform="translate(26.119 10.652)" fill="#eceff1"/>
      <path id="Trazado_1049370" data-name="Trazado 1049370" d="M240.7,86.836a7.925,7.925,0,1,0-2.4-5.686A7.894,7.894,0,0,0,240.7,86.836Z" transform="translate(-211.825 -62.255)" fill="#fff" fill-rule="evenodd"/>
      <path id="Trazado_1049371" data-name="Trazado 1049371" d="M289.434,102.987a27.272,27.272,0,0,0-2.747,5.358c-.843,2.75.962,4.131,2.747,4.153,1.785-.022,3.589-1.4,2.747-4.153A27.267,27.267,0,0,0,289.434,102.987Z" transform="translate(-255.388 -89.164)" fill="#4eb1fc" fill-rule="evenodd"/>
      <path id="Trazado_1049372" data-name="Trazado 1049372" d="M288.894,112.284a21.205,21.205,0,0,0-2.207,4.467c-.758,2.472.624,3.837,2.207,4.1,1.583-.267,2.965-1.632,2.207-4.1A21.2,21.2,0,0,0,288.894,112.284Z" transform="translate(-255.387 -97.569)" fill="#85caff" fill-rule="evenodd"/>
      <path id="Trazado_1049373" data-name="Trazado 1049373" d="M18.982,20.528a15.346,15.346,0,0,1,.617-6.795,15.049,15.049,0,0,1,3.7-6.008,15.3,15.3,0,0,1,2.387-1.949l-.5-.073a.671.671,0,0,1,.194-1.328l2.428.355a.671.671,0,0,1,.522.923l-.918,2.19a.671.671,0,0,1-1.238-.52l.152-.362a13.974,13.974,0,0,0-2.079,1.712,13.765,13.765,0,0,0-3.933,11.674.672.672,0,0,1-.575.756.68.68,0,0,1-.091.006.672.672,0,0,1-.664-.581ZM42.3,6.5a.671.671,0,0,1,.941-.128,15.345,15.345,0,0,1,4.369,5.241,15.043,15.043,0,0,1,1.634,6.863,15.288,15.288,0,0,1-.309,3.067l.4-.3a.671.671,0,1,1,.8,1.076l-1.968,1.466a.67.67,0,0,1-.4.133.684.684,0,0,1-.18-.024.673.673,0,0,1-.441-.392l-.9-2.2a.671.671,0,1,1,1.242-.508l.149.363a13.942,13.942,0,0,0,.259-2.68A13.766,13.766,0,0,0,42.432,7.439.671.671,0,0,1,42.3,6.5ZM35.952,21.665a2.48,2.48,0,0,1-3.813,0,2.65,2.65,0,0,1-.2-2.391,20.51,20.51,0,0,1,2.1-4.258,20.508,20.508,0,0,1,2.105,4.258,2.65,2.65,0,0,1-.2,2.391ZM35,14c-.165-.268-.3-.479-.366-.608a.671.671,0,0,0-1.177,0c-.071.129-.2.341-.366.608a23.011,23.011,0,0,0-2.434,4.876,3.865,3.865,0,0,0,.4,3.576A3.728,3.728,0,0,0,34.037,23.9h.016a3.728,3.728,0,0,0,2.983-1.445,3.866,3.866,0,0,0,.4-3.576A23.034,23.034,0,0,0,35,14ZM50.531,34.96a1.561,1.561,0,0,1-2.206,0l-6.012-6.012a.407.407,0,0,1,0-.573l1.633-1.633a.406.406,0,0,1,.573,0l6.012,6.012A1.562,1.562,0,0,1,50.531,34.96ZM39,26.819a2.412,2.412,0,0,1,2.781.193l.8-.8a2.411,2.411,0,0,1-.193-2.781A9.7,9.7,0,1,0,39,26.819Zm-9.323,3.521H27.966a.671.671,0,0,0,0,1.342h1.7v1.473h-.744a.671.671,0,0,0,0,1.343h.744V35.97H14.906V30.865a11.548,11.548,0,0,0-.851-4.344c.361.082.769.158,1.23.229a48.326,48.326,0,0,0,7,.448c1.669,0,3.307-.066,4.76-.189A11.053,11.053,0,0,0,29.867,28.7a11.57,11.57,0,0,0-.193,1.643ZM27.5,51.28H17.072a2.168,2.168,0,0,1-2.165-2.165v-11.8H29.661v1.473h-.744a.671.671,0,0,0,0,1.343h.744V41.6h-1.7a.671.671,0,0,0,0,1.342h1.7v1.473h-.744a.671.671,0,1,0,0,1.342h.744v1.473h-1.7a.671.671,0,0,0,0,1.342h1.7v.541A2.168,2.168,0,0,1,27.5,51.28Zm-16.376,0a4.564,4.564,0,0,1-4.559-4.559V41.936H9.344a.671.671,0,1,0,0-1.343H6.561V37.728H7.643a.671.671,0,0,0,0-1.343H6.561V33.519h7v15.6a3.491,3.491,0,0,0,.244,1.282,4.534,4.534,0,0,1-2.687.884ZM6.547,8.983h9.147a1.2,1.2,0,0,1,0,2.407H6.547a1.2,1.2,0,0,1,0-2.407Zm8.739,14.312c.128-.02.26-.039.394-.058V12.732H6.561v2.613H9.344a.671.671,0,1,1,0,1.343H6.561v2.865H7.643a.671.671,0,0,1,0,1.343H6.561v2.866H9.344a.671.671,0,1,1,0,1.342H6.561v2.866H7.643a.671.671,0,1,1,0,1.342H6.561v2.866h7V30.865a10.208,10.208,0,0,0-1.383-5.125.954.954,0,0,1-.321-.718c0-.852.992-1.352,3.425-1.728Zm9.34.939a11.127,11.127,0,0,0,1.124,1.523c-1.1.065-2.273.1-3.466.1a32.788,32.788,0,0,1-8.646-.834,32.789,32.789,0,0,1,8.646-.834C23.078,24.188,23.863,24.2,24.625,24.233ZM51.48,31.8l-6.012-6.011a1.749,1.749,0,0,0-1.825-.408,1.09,1.09,0,0,1-.1-1.273,11.045,11.045,0,1,0-19.629-1.246c-.537-.013-1.081-.022-1.63-.022-1.889,0-3.7.082-5.262.235V12.357a2.545,2.545,0,0,0-1.328-4.716H6.547a2.545,2.545,0,0,0-1.328,4.716V46.722a5.893,5.893,0,0,0,9.312,4.808,3.5,3.5,0,0,0,2.541,1.093H27.5A3.512,3.512,0,0,0,31,49.115V30.865a10.243,10.243,0,0,1,.148-1.732,11.059,11.059,0,0,0,8.531-1.16,1.089,1.089,0,0,1,1.273.1,1.748,1.748,0,0,0,.407,1.825l6.012,6.012a2.9,2.9,0,0,0,4.1-4.1ZM34.045,26.027a7.552,7.552,0,1,0-7.552-7.552,7.561,7.561,0,0,0,7.552,7.552Zm0-16.447a8.895,8.895,0,1,0,8.895,8.895A8.9,8.9,0,0,0,34.045,9.58Z" fill-rule="evenodd"/>
    </g>
  </g>
</svg>
