<svg xmlns="http://www.w3.org/2000/svg" xmlns:xlink="http://www.w3.org/1999/xlink" width="110" height="110" viewBox="0 0 110 110">
  <defs>
    <clipPath id="clip-path">
      <rect id="Rectángulo_407640" data-name="Rectángulo 407640" width="110" height="110" transform="translate(800.781 1960)" fill="#37a2e4" opacity="0.47"/>
    </clipPath>
    <filter id="Trazado_1049186" x="5" y="-4.866" width="90.454" height="115.637" filterUnits="userSpaceOnUse">
      <feOffset dy="3" input="SourceAlpha"/>
      <feGaussianBlur stdDeviation="3" result="blur"/>
      <feFlood flood-opacity="0.161"/>
      <feComposite operator="in" in2="blur"/>
      <feComposite in="SourceGraphic"/>
    </filter>
  </defs>
  <g id="Grupo_1181892" data-name="Grupo 1181892" transform="translate(-13440 10902)">
    <g id="Enmascarar_grupo_1098981" data-name="Enmascarar grupo 1098981" transform="translate(12639.219 -12862)" clip-path="url(#clip-path)">
      <g id="Grupo_1181854" data-name="Grupo 1181854" transform="translate(-1 -1)">
        <g id="Grupo_1181852" data-name="Grupo 1181852" transform="translate(815.781 1961)">
          <g id="Grupo_1181851" data-name="Grupo 1181851" transform="translate(0 0)">
            <path id="Trazado_1049185" data-name="Trazado 1049185" d="M127.429,109.916c-22.489,0-40.784-16.31-40.784-36.359S124.352,2.836,125.959.662a1.964,1.964,0,0,1,2.941,0c1.607,2.173,39.31,53.434,39.31,72.895s-18.3,36.359-40.784,36.359Z" transform="translate(-86.645 0)" fill="#54eabd"/>
            <g transform="matrix(1, 0, 0, 1, -14, 0)" filter="url(#Trazado_1049186)">
              <path id="Trazado_1049186-2" data-name="Trazado 1049186" d="M122.873,97.636c-19.977,0-36.228-14.488-36.228-32.3S120.139,2.519,121.567.588a1.745,1.745,0,0,1,2.613,0C125.607,2.519,159.1,48.053,159.1,65.34s-16.252,32.3-36.228,32.3Z" transform="translate(-72.64 1.13)" fill="#54eabd" opacity="0.9"/>
            </g>
          </g>
        </g>
      </g>
    </g>
    <g id="Layer_4" transform="translate(13473 -10866.336)">
      <g id="Grupo_1181891" data-name="Grupo 1181891" transform="translate(0 0)">
        <g id="Grupo_1181882" data-name="Grupo 1181882" transform="translate(0 0)">
          <g id="Grupo_1181880" data-name="Grupo 1181880" transform="translate(19.841 0)">
            <path id="Trazado_1049374" data-name="Trazado 1049374" d="M40.425,2.9,39,1.425,40.425,0,41.9,1.425Z" transform="translate(-39 0)" fill="#282d33"/>
          </g>
          <g id="Grupo_1181881" data-name="Grupo 1181881" transform="translate(0 2.9)">
            <path id="Trazado_1049375" data-name="Trazado 1049375" d="M20.248,54.133c-.712-.051-1.425-.1-2.137-.2l.305-2.035c.661.1,1.272.153,1.933.2Zm2.137,0-.1-2.035c.661-.051,1.323-.1,1.933-.2l.305,2.035c-.712.051-1.425.153-2.137.2Zm-6.41-.661c-.712-.2-1.374-.407-2.086-.661l.712-1.933c.611.2,1.221.407,1.882.56Zm10.684,0-.509-1.984a13.5,13.5,0,0,0,1.882-.61l.712,1.882a16.834,16.834,0,0,1-2.086.712ZM11.9,51.945a13.768,13.768,0,0,1-1.882-1.068l1.068-1.73a18.916,18.916,0,0,0,1.73.967Zm18.773,0-.865-1.832c.56-.305,1.17-.61,1.73-.967l1.068,1.73a14.329,14.329,0,0,1-1.933,1.068ZM8.242,49.656c-.56-.458-1.119-.916-1.628-1.425l1.425-1.475a17.641,17.641,0,0,0,1.475,1.272Zm26.1,0-1.272-1.628a17.641,17.641,0,0,0,1.475-1.272l1.425,1.475c-.509.509-1.068.967-1.628,1.425Zm-29.2-2.951c-.458-.56-.916-1.119-1.323-1.73l1.679-1.17a8.93,8.93,0,0,0,1.221,1.526Zm32.357-.051-1.526-1.323c.407-.509.814-1.017,1.17-1.526l1.679,1.17c-.458.56-.865,1.119-1.323,1.679ZM2.646,43.144c-.356-.61-.661-1.272-.967-1.933L3.561,40.4a18.277,18.277,0,0,0,.865,1.73Zm37.291-.051-1.781-.967a19.225,19.225,0,0,0,.865-1.781l1.882.814c-.305.661-.611,1.323-.967,1.933ZM.967,39.176C.763,38.514.56,37.8.407,37.09l1.984-.407c.153.661.305,1.272.509,1.882Zm40.649-.051-1.933-.611a12.672,12.672,0,0,0,.458-1.882l1.984.407a13.874,13.874,0,0,1-.509,2.086ZM.1,34.953C.051,34.241,0,33.58,0,32.867v-.051H2.035v.051c0,.611.051,1.272.1,1.882ZM42.481,34.9l-2.035-.2c.051-.611.1-1.221.1-1.832v-.1h2.035v.1C42.582,33.529,42.532,34.241,42.481,34.9ZM2.137,30.832.1,30.629a15.6,15.6,0,0,1,.356-2.137l1.984.407a13.8,13.8,0,0,0-.305,1.933Zm38.258-.051a12.723,12.723,0,0,0-.305-1.933l1.984-.407c.153.712.254,1.425.356,2.137ZM2.951,27.017l-1.933-.611a16.542,16.542,0,0,1,.763-2.035l1.832.814c-.254.611-.458,1.221-.661,1.832Zm36.63-.051c-.2-.611-.458-1.221-.712-1.832l1.882-.814a13.938,13.938,0,0,1,.763,2.035Zm-35.1-3.51L2.7,22.438c.356-.611.763-1.221,1.17-1.832l1.679,1.17ZM38,23.4a11.208,11.208,0,0,0-1.068-1.628l1.679-1.17c.407.611.814,1.221,1.17,1.832ZM6.766,20.25,5.24,18.928c.458-.56.967-1.068,1.475-1.577l1.374,1.475A17.533,17.533,0,0,0,6.766,20.25Zm29-.051a12.043,12.043,0,0,0-1.374-1.425L35.765,17.3c.509.509,1.018,1.018,1.475,1.577ZM9.615,17.4,8.14,15.926l1.475-1.475,1.425,1.425Zm23.3-.051-1.475-1.475,1.425-1.425,1.475,1.475Zm-20.4-2.9-1.425-1.425,1.475-1.475,1.425,1.425Zm17.5,0-1.475-1.475,1.425-1.425,1.475,1.475Zm-14.6-2.9-1.425-1.425,1.475-1.475,1.425,1.425Zm11.65-.051L25.59,10.024,27.015,8.6l1.475,1.475ZM18.315,8.651,16.891,7.226l1.475-1.475L19.79,7.175ZM24.166,8.6,22.69,7.125,24.115,5.7,25.59,7.175Z" transform="translate(0 -5.7)" fill="#282d33"/>
          </g>
        </g>
        <g id="Grupo_1181883" data-name="Grupo 1181883" transform="translate(0 0)">
          <path id="Trazado_1049376" data-name="Trazado 1049376" d="M42.582,30.067H40.547a19.388,19.388,0,0,0-6.563-14.5l-.254-.2L21.266,2.9,8.649,15.568a19.179,19.179,0,0,0-6.614,14.5H0A21.307,21.307,0,0,1,7.224,14.092L21.266,0,35.307,14.092A21.356,21.356,0,0,1,42.582,30.067Z" transform="translate(0 0)" fill="#282d33"/>
        </g>
        <path id="Trazado_1049377" data-name="Trazado 1049377" d="M25.2,52.863A17.2,17.2,0,0,1,13.851,22.745l.1-.1L25.2,11.4,36.185,22.389l.254.254.051.051A17.231,17.231,0,0,1,25.2,52.863Z" transform="translate(-3.93 -5.6)" fill="#5eb4e7"/>
        <g id="Grupo_1181890" data-name="Grupo 1181890" transform="translate(9.666 16.178)">
          <g id="Grupo_1181887" data-name="Grupo 1181887" transform="translate(14.754 3.765)">
            <g id="Grupo_1181884" data-name="Grupo 1181884">
              <path id="Trazado_1049378" data-name="Trazado 1049378" d="M48.865,41.489c-.254-.1-.56-.254-.865-.356l.661-1.933a6.064,6.064,0,0,1,1.018.407Z" transform="translate(-48 -39.2)" fill="#282d33"/>
            </g>
            <g id="Grupo_1181885" data-name="Grupo 1181885" transform="translate(2.544 1.679)">
              <path id="Trazado_1049379" data-name="Trazado 1049379" d="M56.46,48.859a8.018,8.018,0,0,0-.814-1.781l1.781-1.017a11.934,11.934,0,0,1,.967,2.188Zm-1.984-3.409A9.136,9.136,0,0,0,53,44.128L54.221,42.5A10.735,10.735,0,0,1,56,44.128Z" transform="translate(-53 -42.5)" fill="#282d33"/>
            </g>
            <g id="Grupo_1181886" data-name="Grupo 1181886" transform="translate(6.359 9.768)">
              <path id="Trazado_1049380" data-name="Trazado 1049380" d="M62.586,59.519H60.551A5.53,5.53,0,0,0,60.5,58.6l2.035-.2A8.243,8.243,0,0,1,62.586,59.519Z" transform="translate(-60.5 -58.4)" fill="#282d33"/>
            </g>
          </g>
          <g id="Grupo_1181888" data-name="Grupo 1181888" transform="translate(0 2.696)">
            <path id="Trazado_1049381" data-name="Trazado 1049381" d="M30.6,60.3a11.6,11.6,0,1,1,0-23.2v2.035A9.565,9.565,0,1,0,40.164,48.7H42.2A11.594,11.594,0,0,1,30.6,60.3Z" transform="translate(-19 -37.1)" fill="#282d33"/>
          </g>
          <g id="Grupo_1181889" data-name="Grupo 1181889" transform="translate(7.682)">
            <path id="Trazado_1049382" data-name="Trazado 1049382" d="M35.525,40.551,34.1,39.126,37,36.175l-2.9-2.9L35.525,31.8,39.9,36.175Z" transform="translate(-34.1 -31.8)" fill="#282d33"/>
          </g>
        </g>
      </g>
    </g>
  </g>
</svg>
